<?xml version="1.0" encoding="utf-8"?>
<!-- Generator: Adobe Illustrator 25.2.0, SVG Export Plug-In . SVG Version: 6.00 Build 0)  -->
<svg version="1.1" id="svg" xmlns="http://www.w3.org/2000/svg" xmlns:xlink="http://www.w3.org/1999/xlink" x="0px" y="0px"
	 viewBox="0 0 400 385" style="enable-background:new 0 0 400 385;" xml:space="preserve">
<style type="text/css">
	.st0{fill-rule:evenodd;clip-rule:evenodd;fill:#FCB404;}
</style>
<g id="svgg">
	<path id="path0" class="st0" d="M170,14.9c-0.5,0.5-0.2,1.3,0.5,1.3c0.4,0,1.1,0.3,1.6,0.7c1.8,1.4-0.9,3.9-3,2.8
		c-0.4-0.2-3.2-0.5-6.3-0.6c-4.5-0.2-5.9-0.4-7.4-1c-2.6-1.2-28.9-1.3-30.6-0.1c-1.2,0.8-1.4,0.9-3.4,2c-0.8,0.4-2.3,0.9-3.2,1.1
		c-1.6,0.3-1.7,0.3-1.5,1.5c0.3,1.8-0.3,2.5-2.2,2.8c-1,0.1-1.7,0.4-1.7,0.6c0,0.2-0.4,0.5-0.9,0.8s-1,0.8-1.3,1.2
		c-0.2,0.5-0.9,1-1.6,1.2c-0.7,0.2-1.5,0.7-1.9,1c-0.4,0.4-1.4,0.8-2.3,0.9c-2.9,0.5-2.1,0.9,1.2,0.7c2.5-0.2,3.4-0.4,4.1-1
		c0.8-0.7,1.5-0.8,5.4-1c3.6-0.2,4.8-0.4,6-1.1c1.1-0.6,2.2-0.8,3.7-0.8c1.5,0,2.3-0.2,2.7-0.6c0.6-0.8,1.7-0.7,3,0.1
		c1.5,0.9,1.6,1.2,1.6,3.3c0,3.3-0.6,3.9-4.7,4.7c-0.9,0.2-1.1,0.4-1.3,2.3c-0.4,3-1,3.3-6.1,3.4c-3.1,0.1-4.2,0.2-4.7,0.7
		c-0.7,0.7-3.1,0.8-3.5,0.2c-0.2-0.3-0.5-1.1-0.8-1.8l-0.4-1.3l0,1.6c0,1.8-1.9,4.3-3.1,4.3c-0.4,0-1.2,0.4-1.9,0.9s-2.1,1.1-3,1.2
		c-1,0.1-2.1,0.6-2.4,1c-0.4,0.4-1.2,0.7-1.8,0.7s-1.5,0.3-2,0.7c-0.8,0.7-1,0.7-1.9,0.1c-1-0.6-1.1-0.5-2,0.2
		c-0.6,0.5-1.9,0.9-3.1,1.1c-1.2,0.1-2.1,0.4-2.1,0.6c0,0.2-0.4,0.7-0.8,1.1c-0.7,0.7-0.7,0.8-0.2,0.8c0.4,0,0.7,0.4,0.9,1
		c0.2,0.7,0.6,1,1.5,1.2c2.1,0.4,3.3,3.2,1.9,4.4c-0.9,0.8-1.3,1.2-1.9,2c-0.3,0.5-1.2,0.8-2.8,0.9c-1.5,0.1-2.5,0.5-3,0.9
		c-0.4,0.4-0.9,0.7-1.1,0.7s-1.2,0.8-2.1,1.8c-1,1.1-2.2,1.9-2.9,2c-1,0.2-1.3,0.5-1.5,1.4c-0.4,1.8-0.7,2.1-2.5,2.1
		c-2,0-2.5-0.6-2.5-3.3c0-1.5-0.2-2-1.1-2.9c-1.3-1.3-1.6-1.4-1.6-0.3c0,0.5-0.4,1-1,1.2c-0.6,0.3-1,0.8-1,1.3c0,0.6,0.3,1,1,1.3
		c1,0.4,1.1,0.8,1,3.1c-0.1,2.7-0.5,3.8-1.2,4c-0.4,0.1-0.8,0.5-0.8,0.8c0,0.3-0.4,0.8-1,1c-0.5,0.2-1.1,0.8-1.2,1.1
		c-0.1,0.4-0.4,0.7-0.6,0.7c-0.5,0-5.1,4.7-5.4,5.5c-0.1,0.4-0.5,0.6-0.8,0.6c-0.3,0-0.8,0.4-1,1c-0.2,0.5-0.6,1-1,1
		c-0.3,0-1.1,0.4-1.8,1c-0.6,0.5-1.6,1-2.1,1c-0.5,0-1.1,0.3-1.3,0.7c-0.2,0.4-1,1-1.7,1.2c-1,0.3-1.5,0.9-1.9,1.9
		c-0.4,1.1-0.9,1.6-2,1.9c-1,0.4-1.5,0.8-1.8,1.7c-0.2,0.7-0.7,1.5-1.2,1.9c-0.4,0.4-0.8,1-0.8,1.3c0,0.4-0.4,1.1-0.9,1.7
		c-0.5,0.6-1,1.4-1.2,1.8c-0.1,0.4-0.6,1-1,1.2c-0.4,0.2-0.9,0.8-1.1,1.3c-0.2,0.5-0.6,0.9-0.9,0.9c-0.3,0-0.7,0.4-0.8,1
		c-0.5,1.8-4.6,1.8-5.1,0c-0.2-0.7-0.3-0.8-0.6-0.5c-0.5,0.8-0.4,5.8,0.2,7.9c0.6,2-0.3,3.6-1.9,3.6c-0.3,0-0.6,0.3-0.6,0.6
		c0,0.8-1.2,1.4-3,1.4c-2.3,0-3.1,1.5-1.8,3.2c0.8,1.1,0.7,4-0.2,5.4c-0.4,0.6-0.8,1.7-0.8,2.4c0,0.9-0.3,1.6-1,2.2
		c-0.5,0.5-1,1.2-1,1.5c0,0.3-0.4,1.2-0.9,1.9c-0.6,0.9-1,2.1-1.1,3.8c-0.1,1.8-0.4,2.6-1,3c-0.4,0.3-0.9,1.3-1.1,2.2
		c-0.1,0.8-0.6,1.9-1.1,2.4c-0.6,0.7-0.8,1.5-1,4.4c-0.1,2.1-0.4,3.9-0.7,4.4c-0.5,0.8-0.5,0.9,0.4,0.9c0.9,0,1-0.2,1-1.5
		c0-1,0.3-1.9,1-2.8c0.5-0.7,1-1.7,1-2.1c0-2.7,4-3.5,4.8-1c0.5,1.5,0.1,4.9-0.7,5.8c-0.3,0.3-0.7,1.6-0.8,2.7
		c-0.1,1.2-0.6,2.7-0.9,3.5c-0.4,0.7-0.8,2.2-0.9,3.1c-0.1,1-0.6,2.2-1,2.7c-0.8,1-1.5,7.2-0.8,7.2c0.2,0,0.4-0.3,0.4-0.7
		s0.4-1.4,1-2.1s1.1-1.8,1.2-2.3c0.1-0.5,0.6-1.2,1-1.6c0.4-0.4,0.7-1,0.7-1.4c0-2.1,1-3.4,2.8-3.4c2.1,0,2.3,0.2,2.6,3.9
		c0.2,2.1,0.4,3.2,0.9,3.7c1.2,1.3,1.3,5.8,0.2,6.9c-0.7,0.7-0.9,1.4-1,4.2c-0.1,2.7-0.3,3.6-1,4.5c-0.7,0.9-0.9,1.8-1.1,4.9
		c-0.2,3-0.4,3.9-1,4.6c-0.6,0.7-0.8,1.6-1,4.7c-0.2,3.2-0.4,3.9-1.1,4.6c-2,1.9-1,12.7,1.2,12.7c0.2,0,0.6-6.6,0.6-9.6
		c0-0.7,0-2.8,0-4.6c0-2.4,0.2-3.7,0.7-4.8c0.4-0.8,0.8-2.2,1-3.1c0.4-2.6,2.6-5.4,4.3-5.7c2.5-0.4,3.7,1.6,2.1,3.2
		c-0.8,0.8-0.8,0.8,0,2c1,1.7,1,3.2-0.1,4.1l-0.9,0.8l-0.1,18.7c-0.1,20.1-0.1,20.2,1.1,19c0.6-0.6,2.3-0.8,2.5-0.2
		c0,0,0.5,0.8,1.1,1.7c1.4,2.1,1.1,3.4-1.1,4.6c-1.5,0.8-1.5,0.8-1.6,3.2c-0.1,2.6,0.4,4.3,0.9,2.9c0.3-1,1.2-1.2,2.8-0.8
		c1.6,0.4,1.9,1.1,2.3,4.4c0.2,1.8,0.5,2.9,1,3.5c0.6,0.6,0.8,1.7,1.1,4.4c0.2,2,0.3,3.1,0.4,2.4c0.2-3.3,1.7-4.2,3.6-2.2
		c1.5,1.6,1.9,2.7,1.9,6c0,2.3,0.1,2.8,0.8,3.2c0.4,0.3,0.9,1.1,1,1.8c0.1,0.8,0.6,1.6,1.2,1.9c0.5,0.3,0.9,0.9,0.9,1.2
		c0,0.3,0.3,0.7,0.8,1c0.4,0.2,0.9,1.1,1.2,2c0.2,0.9,0.8,1.9,1.2,2.3c0.5,0.5,0.8,1.3,0.8,2.2c0.1,3.2,0.6,3.2,0.6,0
		c0-3-0.1-3.4-0.8-3.7c-0.6-0.3-0.9-0.8-1-1.9c-0.1-0.9-0.6-2-1-2.6c-0.6-0.7-0.9-1.9-1.1-4c-0.2-1.8-0.5-3.2-0.8-3.5
		c-1.4-1.1-0.2-3.5,1.6-3.1c1.5,0.3,2,0.7,2.5,2.3c0.3,0.8,0.8,1.6,1.1,1.9c0.4,0.3,0.8,1.2,0.9,2.1c0.1,0.9,0.6,1.8,1,2.1
		c0.5,0.3,0.8,1.2,1,2.6c0.2,1.3,0.5,2.3,1,2.7c0.4,0.4,0.8,1.3,1,2c0.1,0.8,0.6,1.7,1,2c0.5,0.4,0.8,1.3,1,2.3
		c0.1,0.9,0.5,2.1,0.9,2.5c0.4,0.4,0.8,1.3,1,1.9c0.1,0.6,0.5,1.3,0.7,1.5c0.7,0.6,1.4,2,1.4,2.9c0,0.4,0.2,0.8,0.4,0.8
		c0.7,0,1.6,1.2,1.6,2.3c0,0.8,0.3,1.3,1,1.8c0.5,0.3,1,0.9,1,1.2c0,0.3,0.3,0.6,0.6,0.8c1.6,0.6,1,2.8-0.8,2.8c-1.6,0-2,0.5-1,1.4
		c0.4,0.4,0.8,1.3,0.9,2c0.1,1.2,0.2,1.4,1.5,1.5c0.7,0.1,1.8,0.5,2.3,1c0.5,0.5,1.6,1,2.4,1.1c0.8,0.1,1.6,0.5,1.7,0.8
		c0.1,0.3,0.6,0.6,1.1,0.8c0.5,0.1,0.9,0.4,0.9,0.6c0,0.2,0.4,0.8,1,1.4c1,1.1,1.2,1.7,0.6,2.9c-0.3,0.6-0.2,0.8,0.9,1.3
		c2.1,0.9,3.8,2.7,3.8,4.1c0,0.9,0.2,1.3,1,1.6c0.5,0.2,1,0.6,1,0.9c0,0.3,0.5,0.8,1.1,1.1c1.6,0.8,4.3,4.2,4.7,5.9
		c0.2,0.8,0.7,1.7,1.1,2c0.4,0.3,0.7,0.8,0.7,1.2c0,0.4,0.4,1.3,1,2c0.5,0.7,1,1.5,1,1.8c0,0.3,0.5,0.7,1,0.9c0.6,0.2,1.4,0.7,2,1.1
		c0.6,0.5,1.6,0.8,2.5,0.8c1.1,0,1.7,0.2,2.3,1c0.5,0.5,1.2,1,1.7,1c1.1,0,1.1-0.4,0.1-1.3c-1.3-1.1,0.2-2.5,2.6-2.5h1l-1.3-1.3
		c-0.7-0.7-1.7-1.7-2.1-2.2c-1.2-1.3-3.3-3-3.7-3c-2.3,0-4.5-5.9-2.5-7c0.8-0.4-0.9-2.6-2.1-2.7c-0.3,0-2.2-1.4-3.9-3
		c-0.5-0.5-1.5-1-2.3-1.3c-3.2-1-3-5,0.2-5c1.2,0,1.5-0.1,1.7-1c0.6-2.3,4.8-2.3,4.8,0.1c0,0.3,0.5,0.9,1,1.5c1,0.9,1,1,0.4,1.9
		c-0.7,1.1,0.3,2.5,2.5,3.3c1.4,0.5,3.6,3.6,3.9,5.5c0.3,1.9,0.3,1.9,1.8,1.1c1.9-0.9,4.1-0.8,5.3,0.4c0.6,0.5,1.2,1,1.5,1
		c0.9,0,3.1,2.5,3.1,3.6c0,1.2-1.6,2.9-2.7,2.9c-1.9,0-0.9,2.1,1.5,3.1c0.5,0.2,1,0.7,1.1,1.1s0.4,0.8,0.7,0.8s0.8,0.4,1.1,0.9
		c0.7,1.1,1.9,1.5,3.6,1.1c1.5-0.3,1.6-0.9,0.1-0.9c-1.4,0-2.3-0.3-2.3-0.9c0-0.2-0.5-0.7-1.2-1.1c-1.5-0.8-1.8-4.3-0.4-4.7
		c1-0.3,1-0.8,0-1.3c-0.9-0.5-1-1.6-0.2-3.1c0.5-1.1,0.6-1.1,1.4-0.6c0.5,0.3,2,0.7,3.4,0.8c2.7,0.3,3,0.5,3.6,2.7
		c0.3,1.2,2,1.4,2.7,0.3c1.3-2,4.6-1.1,5.1,1.4c0.3,1.3,2,3.4,2.8,3.4c0.2,0,0.7,0.5,1,1.1c1.6,3,4.5,3.9,4.9,1.5
		c0.4-2.4,2.6-3.2,7.6-2.7c1.8,0.2,2.4,0.1,2.2-0.2c-0.2-0.2-0.6-0.4-1-0.4c-0.5,0-0.8-0.4-1-1c-0.3-1.4-2.7-1.4-2.9-0.1
		c-0.1,0.8-0.3,0.9-1.8,0.8c-2.2,0-3.1-0.9-2.5-2.2c0.4-0.9,0.3-1-0.9-1.4c-1.6-0.6-1.9-1.4-1.2-3.1c0.7-1.6,2.6-2.2,3.7-1
		c0.8,0.9,2.2,0.9,2.7,0c0.3-0.6,0.4-0.6,1.1-0.1c0.4,0.3,1.2,0.7,1.8,0.9c0.6,0.1,1.2,0.6,1.5,1c0.2,0.4,0.6,0.8,0.9,0.8
		c0.3,0,1.1,0.5,1.8,1.1c0.7,0.6,1.5,1.1,1.8,1.2c0.3,0,0.6,0.4,0.9,0.8c0.2,0.4,1.7,1.4,3.2,2.1c1.8,0.9,2.9,1.6,3,2.1
		c0.3,1.2,3.8,1.1,4.6,0c0.4-0.5,1.2-0.9,2.2-1c1-0.1,1.7-0.5,1.8-0.8c0.6-1.5,3.7-1.6,8.1-0.2c1.6,0.5,3.9,1,5,1
		c1.5,0,2.2,0.2,3.1,0.9l1.1,0.9l1-0.8c1.5-1.1,5.9-1,7.4,0.1c0.8,0.6,1.6,0.8,3.6,0.8c2.5,0,2.5,0,2.9,1.2c0.7,2,2.5,1.7,2.8-0.6
		c0.3-2,0.7-2.4,2.5-2.5c2.4-0.2,3.1,0,4.2,1.1c0.6,0.6,1.4,1.3,1.7,1.6c0.4,0.4,0.6,1.1,0.5,2.3l-0.1,1.8l-1.9,0.4
		c-1,0.2-2,0.6-2.1,0.9c-0.1,0.3-0.6,0.6-1.1,0.8c-0.8,0.3-0.8,0.5-0.6,1.4c0.4,1.3,1.4,1.6,2.5,0.6c0.5-0.4,1.5-0.9,2.3-1
		c0.8-0.1,1.9-0.6,2.4-1c1.2-0.9,1.5-0.9,2.3,0c0.5,0.5,1.2,0.8,2.4,0.8c1.2,0,1.9,0.2,2.5,0.8l0.8,0.8l-1.2,1.5
		c-1.3,1.7-2.2,1.9-4.2,0.9c-1.8-0.9-2.1-0.4-2,3.3c0.1,3.5,0,3.6-3.4,4c-1.7,0.2-2.2,0.4-2.4,1c-0.2,0.7-0.6,0.7-4.8,0.7
		c-4.3,0-4.7,0.1-5.9,1c-0.7,0.5-1.5,1-1.8,1c-0.3,0-0.9,0.4-1.5,0.9c-0.5,0.5-1.7,1-2.5,1.2c-1.4,0.2-1.5,0.4-1.5,1.3
		c0,1.9-2.3,2.9-4,1.6c-1.3-1-4.2-1-5.9,0c-1.8,1.1-5.5,1.2-6.3,0.1c-0.7-0.9-5.7-1.7-7.4-1.2c-0.5,0.2-1.6,0.4-2.4,0.5
		c-2.9,0.5-1.9,3.3,1.5,4.1c0.9,0.2,2.1,0.9,2.7,1.5c1,1,3.1,1.3,3.1,0.3c0-1.4,2.8-2,4.3-0.8c0.5,0.4,1.6,0.8,2.4,0.9
		c0.9,0.1,1.9,0.6,2.4,1.3c1.1,1.2,6.2,1.2,7.9,0c1.1-0.8,3.4-0.8,4.4-0.1c0.4,0.3,1.2,0.6,1.7,0.6c0.6,0,1.3,0.4,1.8,1
		c1,1.2,2.3,1.2,4,0.2c0.7-0.4,2.2-0.9,3.4-1c1.3-0.2,2.4-0.6,3-1.1c0.8-0.7,1.5-0.8,5.6-1c3.8-0.1,4.9-0.3,5.7-0.9
		c0.6-0.4,1.8-0.8,2.7-1c0.9-0.1,2.1-0.6,2.6-1.1c0.7-0.7,1.5-0.8,4-1c2.5-0.1,3.1-0.3,3.4-0.9c0.2-0.4,1-0.8,1.9-1
		c0.9-0.1,1.7-0.5,1.9-1c0.2-0.4,1-0.8,1.9-1c0.8-0.1,2-0.7,2.5-1.2c0.5-0.5,1.4-0.9,1.9-0.9c0.6,0,1-0.3,1.3-1c0.2-0.5,0.8-1,1.1-1
		c0.4,0,1.3-0.4,2-1c0.7-0.5,1.6-1,2-1c0.4,0,0.8-0.2,0.9-0.5c0.1-0.3,1-0.9,1.9-1.3s1.7-1,1.7-1.2c0-0.2,0.3-0.5,0.7-0.6
		c0.4-0.1,1.1-0.7,1.7-1.2c1.9-1.8,3.1-2.7,3.8-2.7c0.4,0,1.2-0.5,1.8-1.1c2.5-2.2,3.5-2.8,5.4-3c1.2-0.2,2.1-0.5,2.2-0.8
		c0.1-0.3,0.6-0.7,1-0.9c0.4-0.2,1.4-0.8,2.1-1.3c0.7-0.5,1.6-1,2.1-1c0.4,0,1.3-0.4,1.9-1c0.6-0.5,1.4-1,1.8-1s1-0.4,1.5-0.8
		c0.5-0.4,1.7-0.9,2.7-1.1c1.1-0.2,2.3-0.6,2.8-1.1c0.5-0.5,1.3-0.8,2.1-0.8c0.8,0,1.8-0.4,2.6-1c0.8-0.6,1.8-1,2.7-1
		c1.8,0,2.1-0.3,1.1-1.4c-1.1-1.1-1.1-4.1-0.1-5.5c0.4-0.6,0.8-1.7,1-2.6c0.2-1.9,1.6-3.4,4.6-5.4c1.7-1.1,1.8-1.2,1.1-1.5
		c-1.8-0.6-1.7-1.6,0.2-3.5l1.8-1.8l1,1c1.6,1.5,2.5,1.3,5-1.2c1.2-1.2,2.3-2.5,2.5-2.9c0.1-0.4,0.5-0.7,0.8-0.7s0.7-0.3,0.8-0.7
		c0.1-0.4,1.1-1.3,2.2-2c1.1-0.7,2.1-1.6,2.2-2c0.1-0.4,0.3-0.7,0.4-0.7s0.9-0.6,1.8-1.3c0.8-0.7,1.8-1.4,2.2-1.6
		c0.4-0.1,0.7-0.4,0.7-0.6s0.5-0.9,1.1-1.6c0.7-0.7,1.2-1.8,1.3-2.6l0.1-1.3l-2.3,0.1c-2.5,0.1-4.2-1.3-2.8-2.4
		c0.3-0.2,0.7-1.3,0.8-2.4c0.2-1.4,0.6-2.2,1.2-2.8c0.5-0.4,0.9-1,0.9-1.2c0-0.2,0.4-0.5,1-0.6c0.5-0.1,1-0.5,1-0.8
		c0-0.3,0.4-0.8,1-1.2c0.5-0.3,1-0.9,1-1.2c0-0.3,0.2-0.5,0.4-0.5c0.2,0,0.9-0.5,1.6-1.2c0.6-0.6,1.4-1.2,1.6-1.2
		c0.3,0,1.2-0.8,2.1-1.7c0.9-1,2.2-1.8,2.8-2c0.7-0.1,1.7-0.8,2.2-1.4c0.6-0.6,1.4-1.6,1.9-2.1c0.5-0.6,0.9-1.4,0.9-2.2
		c0-3.1,0.6-4.1,2.6-4.1c2.2,0,2.8,0.5,2.8,2.4c0,1.9,0.5,2.1,1.7,0.7c1.3-1.5,1.3-1.4-0.7-3.4c-2.3-2.2-2.3-3.4-0.2-5.7l1.6-1.7
		l1.9,2c2.6,2.7,4,2.8,4.4,0.2c0.2-1,0.5-1.9,0.9-2.1c0.6-0.3,0.6-0.4-0.2-1c-1.5-1.1-1-5.2,0.7-5.2c0.2,0,0.4-2.6,0.6-5.7
		c0.2-4.6,0.4-5.8,1-6.4c0.4-0.4,0.9-1.3,1.2-1.9c0.6-1.3,5.1-1.9,6.3-0.9c1.1,0.9,0.6,4.2-0.7,4.7c-0.6,0.2-0.7,0.8-0.7,3.4v3.2
		l0.9-1.7c0.6-1.1,1.4-2,2.4-2.6c3.2-1.8,3.8-2.2,4.4-2.7c1.6-1.6,2.8,3.5,2,8.8c-0.1,0.9-0.1,2.1,0.1,2.7c0.7,2.1-1.8,5.2-2.5,3.2
		c-0.3-0.8-1.9-0.7-2.7,0.2c-0.8,0.9-2.1,1.2-3.5,0.9c-1.7-0.5-2.1-1.4-1-2.5l0.9-0.9l-1.1-2l-1.1-2l-0.2,1.2
		c-0.6,3-0.3,8.8,0.5,9.5c1.6,1.4,0.4,4.7-1.7,4.7c-0.4,0-1.1,0.3-1.5,0.7c-0.4,0.4-1.4,0.9-2.1,1.1c-1.2,0.3-1.3,0.4-0.5,0.7
		c0.5,0.1,1,0.6,1.1,1.1c0.1,0.4,0.7,1.1,1.2,1.5c0.8,0.7,0.9,1,0.8,3c-0.1,2.1,0,2.3,0.8,2.8c1.4,0.7,1.6,4.4,0.2,4.7
		c-0.6,0.2-1,0.6-1.1,1.3c-0.3,1.5,0.3,1.9,0.8,0.5c0.2-0.7,0.6-1.2,0.8-1.2c0.2,0,0.8-0.7,1.2-1.5c0.5-0.8,1-1.5,1.2-1.5
		c0.2,0,0.3-0.7,0.4-1.6c0.1-1.5,0.3-1.7,1.7-2.4c0.9-0.4,2.1-1.2,2.7-1.6c0.6-0.5,1.5-0.8,2-0.8c1.3,0,3.6-2.4,3.6-3.7
		c0-0.5,0.4-1.4,0.9-1.8c0.5-0.5,1-1.2,1.2-1.7c0.2-0.5,0.6-1.2,1-1.6c0.6-0.6,0.8-1.4,1-4.4c0.2-2.7,0.4-3.9,0.9-4.5
		c0.4-0.4,0.8-1.6,0.9-2.6c0.1-1.1,0.6-2.1,1-2.5c0.4-0.4,0.8-1.4,1-2.4c0.1-1,0.6-1.9,1-2.2c0.5-0.4,0.8-1.2,1-3.5
		c0.2-1.6,0.6-3.6,1-4.4c0.9-1.8,0.9-2.4-0.1-3.5c-0.9-1-1.1-3.3-0.7-8.4l0.2-2.3l-2.3-0.2c-4.7-0.4-5.8-5.5-1.5-7
		c0.8-0.3,1.7-0.8,2-1.2c1.3-1.5,4.2,1.7,3.2,3.5c-0.3,0.5-0.5,1.6-0.5,2.4l0,1.5l1.1-0.6c1.8-0.9,2.1-4.3,0.6-6
		c-0.8-0.8-0.8-4.2,0-5.3c0.4-0.5,0.6-2.4,0.8-6c0.2-4.3,0.4-5.3,1-5.9c0.5-0.5,0.6-0.9,0.4-1.3c-0.5-0.9-0.4-2.8,0.2-4.1
		c0.3-0.6,0.6-1.4,0.6-1.8c0-0.4,0.4-1.2,0.9-1.8c1-1.2,1-2.4-0.3-3.6c-0.7-0.6-0.7-1.1-0.5-3.3c0.2-2.6-0.3-4-0.8-2.1
		c-0.1,0.6-0.7,1.2-1.2,1.4c-0.5,0.2-0.8,0.5-0.7,0.7c1.2,1.9-0.8,5.5-2.8,5.2c-2.3-0.4-2.5-0.8-2.7-5.7c-0.2-7.5-0.7-5.3-0.6,2.9
		c0.1,8.8,0.3,10.8,1.1,12.8c0.4,1,0.6,2.5,0.5,5.4c-0.1,3.9-0.1,4,0.9,5.1c1.8,1.8,1.3,4.2-1,4.9c-0.5,0.1-1.2,0.7-1.6,1.2
		c-1.1,1.5-4.3,0.9-4.7-0.8c-0.2-0.9,0.3-2.7,1-3.1c0.7-0.5,0.5-4.6-0.3-5.4c-0.5-0.4-0.8-1.4-1-3c-0.2-1.8-0.5-2.5-1.1-3
		c-1.8-1.4-1.7-9.6,0.1-10.2c1-0.3,1.7-2.5,1.2-3.8c-0.5-1.3-0.5-7.1-0.1-7.9c0.4-0.6,1.8-0.7,2.9-0.3c1.2,0.4,1.9-0.2,1.4-1.2
		c-0.2-0.4-0.4-1.3-0.4-2c0-1.5-0.6-1.5-0.9-0.1c-1.1,5.3-5.3,0.4-5.3-6.2c0-2.6-0.1-3-0.8-3.5c-1-0.7-1.5-4.6-0.7-6
		c0.8-1.4,4.2-1.2,4.8,0.3c0.7,2,1,1.3,0.7-2.2c-0.2-2.8-0.4-3.6-1.1-4.5c-0.5-0.6-0.9-1.4-0.9-1.9s-0.4-1.4-0.8-2.1
		c-1.6-2.6-0.9-5,1.5-4.6c0.9,0.2,1.2,0.1,1.1-0.2c-0.1-0.2-0.6-0.4-0.9-0.4c-0.5,0-0.7-0.3-0.7-1.6c0-1.1-0.4-2-1-2.7
		c-0.5-0.6-1-1.6-1-2.2c0-0.6-0.3-1.3-0.8-1.6c-0.5-0.3-0.9-1.2-1.1-2.3c-0.2-1-0.7-2.3-1.2-2.8c-0.5-0.6-0.8-1.6-0.8-2.3
		c0-0.8-0.4-1.6-1-2.3c-0.5-0.6-1-1.5-1-2c0-0.5-0.4-1.5-0.9-2.1c-0.5-0.6-1-1.8-1.2-2.9c-0.2-1.2-0.5-2-1-2.3
		c-0.4-0.2-0.8-1.1-1-1.9c-0.2-0.8-0.6-1.7-1-1.9c-0.4-0.3-0.8-1.2-0.9-2.4c-0.1-1.1-0.6-2.2-1-2.5c-0.4-0.4-0.8-1.2-1-1.9
		c-0.1-0.7-0.6-1.6-1-1.9c-0.4-0.4-0.8-1.2-1-1.8c-0.1-0.7-0.6-1.4-1-1.7c-0.4-0.3-0.9-1.1-1-1.9c-0.1-0.7-0.6-1.5-1-1.7
		c-0.4-0.2-0.8-0.8-1-1.2c-0.2-0.5-0.7-1.4-1.2-2c-0.5-0.6-0.9-1.3-0.9-1.6c0-0.3-0.3-0.8-0.8-1.2c-0.4-0.4-1-1.4-1.2-2.2
		c-0.2-0.8-0.6-1.5-1-1.5c-0.3,0-0.7-0.4-0.8-0.9c-0.1-0.5-0.6-1.1-1-1.2c-0.4-0.1-0.7-0.4-0.7-0.6s-0.9-1.3-2-2.4s-2.2-2.6-2.5-3.3
		s-0.8-1.3-1.1-1.3c-0.3,0-0.7-0.2-0.8-0.5c-0.1-0.3-0.9-0.9-1.7-1.4c-0.8-0.5-1.7-1.5-2-2.1c-0.3-0.6-0.9-1.6-1.4-2
		c-0.5-0.5-0.9-1.1-0.9-1.4s-0.3-0.6-0.7-0.7c-0.5-0.1-0.9-0.8-1.2-1.7c-0.4-1.4-0.6-1.6-2-1.8c-0.9-0.1-2-0.7-2.6-1.2
		c-0.6-0.5-1.3-0.9-1.5-0.9c-0.2,0-0.8-0.4-1.3-1c-0.5-0.5-1-1-1.3-1c-0.6,0-2.8-2.3-3.1-3.3c-0.2-0.6-0.7-0.9-2.1-1.1
		c-1-0.1-2.2-0.5-2.6-0.8c-0.4-0.3-1-0.6-1.4-0.6c-0.4,0-1-0.5-1.3-1.1c-0.4-0.6-1-1.3-1.3-1.5c-0.4-0.3-0.8-1-0.9-1.7
		c-0.2-0.7-0.7-1.6-1.2-2.1c-0.6-0.5-0.9-1.3-0.9-2c0-0.8-0.3-1.3-0.8-1.6c-0.5-0.3-0.9-1-1-2c-0.1-0.9-0.6-1.8-1-2.1
		c-0.4-0.3-0.8-1.2-1-2.1c-0.2-1.9-1-2.1-0.9-0.3c0.2,3.2-0.7,4.5-3.2,4.5c-1.2,0-1.5-0.2-1.8-1c-0.2-0.5-0.6-1-0.9-1
		c-0.3,0-0.8-0.3-1-0.8c-0.3-0.6-0.8-0.8-1.8-0.8c-1.9,0-2.6-0.5-5.4-3.5l-2.4-2.5l-5.5-0.1c-5.3-0.1-5.5-0.1-6.3-1
		c-0.5-0.6-1.6-1.1-2.8-1.4c-1.1-0.3-2.1-0.6-2.3-0.9c-0.1-0.2-0.8-0.6-1.5-0.9c-0.7-0.3-1.3-0.8-1.3-1.1c0-0.3-0.3-0.7-0.7-0.8
		c-0.4-0.1-1-0.7-1.4-1.2c-0.5-0.8-0.9-0.9-2.7-0.9c-1.5,0-2.3-0.2-2.8-0.7c-1.2-1.2-11.2-3.1-16.5-3.1c-2.8,0-4.3-0.4-4.9-1.3
		c-0.1-0.2-1.3-0.5-2.6-0.7c-1.4-0.2-2.7-0.6-3.2-1c-1.9-1.8-9.2-1.2-11.2,0.9c-1.3,1.4-1.3,1.4-2.6,0.8c-2-1-3.3-0.7-3.4,0.9
		c-0.2,1.8-0.5,2.2-2.5,2.5c-0.9,0.1-1.9,0.5-2.3,0.9c-0.6,0.6-0.8,0.5-2.7-0.2c-1.1-0.5-2.3-0.8-2.6-0.8c-0.4,0-1.2-0.4-1.9-1
		c-0.8-0.6-1.8-1-2.6-1c-0.8,0-1.4-0.3-1.8-0.8c-0.4-0.6-1.2-0.9-3.1-1.1c-1.4-0.2-3.1-0.7-3.8-1.1c-0.7-0.4-1.9-0.8-2.7-0.8
		c-0.9,0-2-0.4-2.8-1c-0.8-0.5-1.7-1-2-1c-0.3,0-1.4-0.4-2.3-0.9c-1.2-0.6-2.7-1-5.2-1.2C175.2,14.8,170.3,14.6,170,14.9
		 M214.5,19.5c0.4,0.1,1,0.1,1.3,0c0.4-0.1,0.1-0.2-0.7-0.2S214.2,19.4,214.5,19.5 M139.3,26.9c0.4,0.2,1.1,0.6,1.7,0.8
		c0.7,0.2,1.1,0.7,1.1,1.2c0,0.9,1.5,1,4.6,0.3c1.7-0.4,2-0.4,2.7,0.3c1.4,1.2,0.8,3.7-0.8,3.7c-0.4,0-0.7,0.2-0.9,0.6
		c-0.1,0.3-0.9,0.8-1.8,1c-0.9,0.3-1.6,0.6-1.6,0.8c0,0.5,3.2-0.1,4.2-0.9c1.8-1.4,3.1-0.7,3.1,1.8c0,1.7-0.5,2.5-1.6,2.5
		c-0.4,0-1.1,0.4-1.7,0.8c-1.7,1.3-3.2,1.1-4.7-0.6c-1-1.2-1.3-1.3-1.5-0.8c-0.1,0.3-0.5,0.6-0.9,0.6s-1.1,0.4-1.6,0.9
		c-1.6,1.5-4,0.9-4.2-1.1c-0.1-1.7,0.6-2.8,2.3-3.1c1.2-0.3,1.3-0.5,0.8-1.3c-0.2-0.4-0.4-0.4-0.6-0.1c-0.4,0.6-3.9,0.5-4.4-0.1
		c-1.7-2-0.5-5.8,1.9-6.2c0.8-0.1,1.8-0.5,2.2-0.8C138.6,26.5,138.5,26.5,139.3,26.9 M158.3,30.2c1,1.7,1.1,1.4-2.2,3.5
		c-2.5,1.6-3.9,0.8-3.8-2.3C152.5,27.2,156.2,26.4,158.3,30.2 M97.9,33.4c0.6,0.1,1.5,0.1,1.9,0c0.5-0.1,0-0.2-1.1-0.2
		C97.7,33.2,97.3,33.3,97.9,33.4 M88.3,36.9c-0.7,0.1-1.3,0.3-1.3,0.5c0,0.3,2.6,0.1,3-0.2C90.3,36.9,89.4,36.8,88.3,36.9
		 M83.8,39.2c0.5,0.1,1.2,0.1,1.5,0s0-0.2-0.9-0.2C83.7,39,83.4,39.1,83.8,39.2 M78.9,41.2c-0.5,0.3-0.4,0.4,0.2,0.4
		c0.4,0,1-0.2,1.3-0.4c0.5-0.3,0.4-0.4-0.2-0.4C79.8,40.8,79.2,41,78.9,41.2 M77.4,42.1c-0.2,0.3-1.1,0.6-2,0.8
		c-1,0.2-1.7,0.5-1.9,1c-0.2,0.4-0.7,0.8-1.2,0.8c-0.4,0-0.9,0.3-1.1,0.7s-0.7,0.9-1.2,1c-1.1,0.3-1,0.9,0.3,1
		c0.9,0.1,1.1,0.4,1.5,2l0.4,1.9l0.2-1.7c0.1-0.9,0.4-1.8,0.7-1.9c0.2-0.1,0.7-0.7,1-1.5c0.3-0.7,0.8-1.3,1.1-1.3s0.7-0.3,0.8-0.6
		c0.1-0.3,0.7-0.8,1.2-1c0.6-0.2,1-0.7,1-1.1C78.2,41.4,78,41.4,77.4,42.1 M268.8,43c0.8,0.1,1.8,0,2.2-0.2c0.7-0.4,1-0.3,1.7,0.1
		c0.5,0.3,1.1,0.6,1.5,0.6c0.3,0,1.1,0.3,1.6,0.8c0.5,0.4,1.5,0.9,2.1,1c0.6,0.1,1.5,0.5,1.9,0.9c0.4,0.4,1.3,1,1.9,1.3
		c0.6,0.3,1.3,0.9,1.4,1.2c0.1,0.3,0.6,0.6,1,0.6s1.3,0.4,1.9,1c0.6,0.5,1.4,1,1.7,1c0.3,0,1.2,0.4,1.9,0.9c0.7,0.5,1.8,1.1,2.4,1.3
		c0.6,0.3,1.1,0.7,1.1,1c0,0.3,0.4,0.7,1,1c1.1,0.5,1.3,1.9,0.6,3.7c-0.5,1.2-2.3,1.4-3.3,0.2c-0.4-0.4-0.9-0.8-1.2-0.8
		c-0.3,0-0.6-0.2-0.7-0.6c-0.1-0.3-1-0.9-1.9-1.3c-0.9-0.4-1.7-1-1.9-1.3c-0.1-0.3-0.9-0.7-1.8-0.8c-1.2-0.2-1.7-0.5-1.8-1
		c-0.2-0.8-1.5-1-5-0.8c-1.5,0.1-2.7-0.5-3-1.4c-0.4-1.1-2.7-2.3-4.9-2.6c-2.3-0.3-4.9-2.2-4.9-3.6c0-1.3,1.5-2.9,2.5-2.6
		C267,42.7,268,42.9,268.8,43 M345.8,84c0.6,0.7,1.4,1.9,1.8,2.7c0.4,0.8,1,1.6,1.3,1.9c0.3,0.3,0.6,0.7,0.6,1s0.4,0.8,1,1.1
		c0.5,0.3,1,0.8,1,1c0,0.2,0.4,0.7,0.9,1.1c0.5,0.4,1,1.2,1.2,1.8c0.1,0.6,0.6,1.4,1,1.9c0.4,0.5,0.9,1.5,1,2.4
		c0.1,1.1,0.4,1.6,0.9,1.8c0.4,0.1,0.8,0.8,1,1.6c0.1,0.7,0.7,1.8,1.2,2.3c0.7,0.7,0.9,1.3,0.9,3c0,1.8,0.1,2.2,1,2.7
		c0.5,0.3,1,0.8,1,1.1c0,0.2,0.4,0.8,1,1.3c0.6,0.6,1,1.3,1,2.1c0,0.7,0.3,1.5,0.8,1.9c0.4,0.4,0.9,1.6,1.1,2.7
		c0.2,1.1,0.7,2.3,1.2,2.8c0.8,0.8,0.9,1.3,0.4,2.5c-0.4,1.1,0.5,4.8,1.4,5.4c0.4,0.3,0.9,1.2,1,2.1c0.1,0.8,0.5,1.7,0.9,1.9
		c0.3,0.2,0.8,1.2,1,2.2c0.2,1,0.7,2.2,1.1,2.7c0.4,0.4,0.9,1.5,1,2.3c0.2,0.8,0.6,1.8,1,2.2c1.6,1.6,1.6,11.8,0,13
		c-0.9,0.7-1,0.9-1,4.7c-0.1,9.7-2,12.9-5.5,9.6c-1.1-1-1.6-1.8-1.6-2.5c0-0.6-0.4-1.4-0.9-1.9c-0.5-0.5-1-1.5-1.2-2.3
		c-0.1-0.8-0.7-2.1-1.2-2.8c-0.5-0.8-0.9-1.6-0.9-1.9c0-0.3-0.4-0.8-0.8-1.2c-0.7-0.7-0.8-1-0.6-3.6c0.3-3.5-0.3-7.2-1.3-8.2
		c-0.4-0.4-0.8-1.4-1-2.2c-0.1-0.8-0.6-1.8-1-2.2c-0.5-0.5-0.7-1.2-0.7-2.8c0-3.6-0.4-6.2-1-6.2c-0.3,0-0.7-0.4-0.9-0.9
		c-0.2-0.5-0.7-1.2-1.1-1.6c-0.8-0.7-1-1.4-1.4-5.3c-0.3-3.2,1.4-4.5,3.3-2.6l0.8,0.8v-0.9c0-0.6-0.3-1-0.7-1.2
		c-1.5-0.5-2.4-3.7-2.5-8.8c0-1.6-0.2-3.1-0.3-3.2c-0.2-0.2-0.3-0.6-0.3-0.9c0-0.4-0.4-0.8-0.8-0.9c-0.4-0.1-0.9-0.6-1-1
		c-0.1-0.4-0.5-0.9-1-1c-0.4-0.1-0.9-0.6-1-1c-0.1-0.4-0.6-1-1.1-1.4c-0.5-0.3-1-1.1-1.1-1.6c-0.1-0.6-0.6-1.3-1-1.6
		c-0.4-0.3-0.7-0.8-0.7-1.2c0-0.3-0.4-1.2-0.9-2c-0.6-0.8-1-2-1-3.1c-0.1-1.2-0.3-1.7-0.8-1.9c-2.2-0.6-4-6-2.7-8.1
		C340.2,81.9,344.2,82.1,345.8,84 M357.7,126.1c0,1.1,0.1,2.1,0.3,2.3c0.4,0.5,1.9,1.3,2.1,1.1c0.4-0.4-0.2-2.5-0.7-2.5
		c-0.3,0-0.8-0.6-1.1-1.4l-0.6-1.4L357.7,126.1 M361.5,132c0,0.8,0.3,1.3,1,1.7c0.5,0.3,1,1,1,1.4c0,0.4,0.4,1.2,1,1.9
		c0.5,0.6,1,1.5,1,1.9c0,0.4,0.2,0.9,0.4,1.1c0.9,0.5,0.1-4.5-0.8-5.1c-0.5-0.3-0.9-1.2-1-2.3C363.7,130.4,361.5,129.9,361.5,132
		 M369.3,147.7c0.1,0.8,0.2,1.8,0.2,2.2c0,0.4,0.4,1,1,1.2c1.2,0.6,1.4-0.4,0.2-1c-0.6-0.3-0.8-0.8-0.8-2.1c0-1-0.2-1.7-0.4-1.7
		C369.2,146.3,369.2,146.8,369.3,147.7 M19,177.1c0,0.7,0.1,1,0.2,0.7c0.1-0.4,0.1-1,0-1.3C19,176,19,176.4,19,177.1 M13,178.8
		c-0.1,0.8,0,1.5,0.1,1.6c0.2,0.1,0.3,0,0.3-0.3c0-0.3,0.1-0.8,0.2-1.1c0.1-0.3,0-0.8-0.2-1.1C13.3,177.6,13.1,177.9,13,178.8
		 M16.8,180c-0.4,0.4-0.3,2.1,0.1,2.1c0.2,0,0.4-0.5,0.4-1.2C17.3,179.7,17.2,179.6,16.8,180 M19.5,222.4c-1.3,0.7-1.1,1.3,0.5,1.3
		c1.3,0,1.6-0.2,1.3-1.2C21,221.6,20.9,221.6,19.5,222.4 M30.8,254.9c-0.1,3.2,0,4.7,0.5,4.2c0.1-0.1,0-1.5-0.1-3.2
		C30.9,252.9,30.9,252.8,30.8,254.9 M32.4,261.4c0,1.9,0.6,6.2,0.7,5.6c0.2-1.1-0.1-6.6-0.4-6.9C32.5,259.8,32.4,260.4,32.4,261.4
		 M34.4,269.9c0.1,1.2,0.2,3.1,0.2,4.3c0,1.8,0.1,2.2,0.6,2.2c0.4,0,0.5-0.2,0.3-0.7c-0.2-0.4-0.4-2.2-0.6-4.1
		c-0.2-1.9-0.4-3.5-0.6-3.7C34.3,267.9,34.3,268.7,34.4,269.9 M355.7,282.2c0,0.2,0.4,0.4,0.9,0.4c0.5,0,1-0.2,1.2-0.4
		c0.1-0.2-0.3-0.4-0.9-0.4C356.3,281.8,355.7,282,355.7,282.2 M55.7,294c-0.5,1.2-0.2,1.7,0.9,2.1c0.6,0.2,1.3,0.7,1.6,1.1
		c0.2,0.4,0.7,0.7,1.1,0.7c1,0,1-0.6,0-0.9c-0.4-0.1-0.8-0.5-0.8-0.8C58.5,295,56,293,55.7,294 M346.8,294.4
		c0.5,0.3,0.9,0.8,0.9,1.1c0,0.3,0.4,0.5,0.8,0.5c0.5,0,1,0.4,1.2,1c0.7,1.5,2.4,1.2,2.4-0.4c0-1.1-0.1-1.2-1.5-1.3
		c-0.9-0.1-1.6-0.4-1.9-0.9c-0.3-0.5-0.9-0.7-1.6-0.7l-1.2,0L346.8,294.4 M338.5,307.1c-0.5,0.1-0.9,0.4-0.9,0.8
		c0,0.4,0.2,0.5,0.6,0.4c0.3-0.1,1-0.3,1.5-0.5c0.5-0.1,0.8-0.4,0.7-0.6C340.3,306.8,340,306.8,338.5,307.1 M336.6,308.7
		c-0.2,0.1-0.5,0.7-0.7,1.3c-0.1,0.6-0.5,1.1-0.8,1.1c-0.3,0-0.8,0.4-1,1c-0.2,0.5-0.6,1-0.9,1c-0.3,0-0.8,0.4-1.1,1
		c-0.3,0.5-0.9,1-1.2,1c-0.3,0-0.7,0.4-0.9,1c-0.2,0.5-0.6,1-0.8,1s-0.9,0.5-1.5,1.1c-1.7,1.6-3.2,2.7-4.4,3
		c-0.6,0.1-1.1,0.6-1.2,0.9c-0.1,0.4-0.6,0.8-1,0.9c-0.4,0.1-0.8,0.4-0.8,0.6c0,0.7,2.3,0,3.3-1c0.5-0.5,1.3-0.9,1.8-0.9
		c0.6,0,1.2-0.4,1.6-1c0.3-0.5,0.9-1,1.2-1s0.6-0.4,0.7-0.8c0.1-0.4,0.5-0.9,1-1c0.4-0.1,0.9-0.6,1.2-1.1c0.2-0.5,0.6-0.9,0.9-0.9
		c0.3,0,1-0.6,1.6-1.4c0.6-0.8,1.5-1.8,1.9-2.2C336.9,310.7,337.8,307.9,336.6,308.7 M317.3,324.8c-0.5,0.1-0.9,0.3-0.9,0.6
		c0,0.2,0.4,0.3,0.9,0.2c0.5-0.1,1.1-0.2,1.3-0.2c0.3,0,0.5-0.2,0.5-0.4C319.2,324.5,318.9,324.5,317.3,324.8 M126.7,347.7
		c0,2.9-3.7,3.5-8.4,1.2c-1.6-0.8-2.3-0.9-3.3-0.7l-1.3,0.3l1.4,0.4c0.8,0.2,1.7,0.7,2.1,1.1c1,0.9,7.3,1.7,10.9,1.5
		c2.4-0.2,3-0.1,3.6,0.5c0.9,0.9,1.1,0.8,1.1,0c0-0.9-0.7-1.6-1.6-1.6c-0.7,0-3.4-2.4-4.1-3.7C126.7,346,126.7,346.2,126.7,347.7
		 M195.2,346.5c0,1.4,5.6,3.1,6.3,1.9c0.1-0.2,0-0.4-0.3-0.4c-0.3,0-0.8-0.4-1.1-0.8C199.4,346.2,195.2,345.6,195.2,346.5
		 M193.3,358.4c0,0.2,0.4,0.4,0.9,0.4c0.5,0,1-0.2,1.2-0.4c0.1-0.2-0.3-0.4-0.9-0.4C193.8,358,193.3,358.2,193.3,358.4 M169.6,361.8
		c-0.4,0.4,0.3,0.9,1.4,0.9c0.6,0,1.1-0.2,0.9-0.3C171.7,361.9,169.9,361.5,169.6,361.8 M134.4,363.8c0,0.6,0.3,0.7,1.2,0.7
		c0.6,0,1.2-0.1,1.2-0.2s-0.5-0.4-1.2-0.7C134.4,363.1,134.4,363.1,134.4,363.8 M162.6,366.4c0.4,0.1,1,0.1,1.3,0
		c0.4-0.1,0.1-0.2-0.7-0.2C162.5,366.2,162.2,366.3,162.6,366.4 M137.8,369c0,1.1,0.2,1.2,2.8,1.4c2.5,0.2,2.9-0.2,1.3-1.4
		C140.1,367.6,137.8,367.6,137.8,369 M183.6,380.3c0,0.5,0.2,0.8,0.6,0.8c0.3,0,0.6,0.2,0.6,0.4c0,0.2,0.6,0.4,1.4,0.4
		c1.6,0,1.7-0.9,0.2-1.1c-0.5-0.1-1.3-0.4-1.8-0.7C183.7,379.5,183.6,379.6,183.6,380.3"/>
</g>
</svg>
