<?xml version="1.0" encoding="utf-8"?>
<!-- Generator: Adobe Illustrator 19.2.1, SVG Export Plug-In . SVG Version: 6.00 Build 0)  -->
<svg version="1.1" id="Livello_1" xmlns="http://www.w3.org/2000/svg" xmlns:xlink="http://www.w3.org/1999/xlink" x="0px" y="0px"
	 viewBox="0 0 540 122.5" style="enable-background:new 0 0 540 122.5;" xml:space="preserve">
<g id="Layer_1">
</g>
<path d="M168.2,25.7h36c10.6,0.1,18.2,3.1,23,9.1s6.3,14.2,4.7,24.6c-0.6,4.7-2,9.4-4.2,14c-2.1,4.6-4.9,8.7-8.6,12.4
	c-4.5,4.7-9.3,7.6-14.4,8.9c-5.1,1.3-10.4,1.9-15.9,1.9h-16.1l-5.1,25.5H149L168.2,25.7L168.2,25.7 M183.9,41l-8.1,40.3
	c0.5,0.1,1.1,0.1,1.6,0.1c0.6,0,1.3,0,1.9,0c8.6,0.1,15.8-0.8,21.5-2.6c5.7-1.9,9.6-8.4,11.6-19.6c1.6-9.4,0-14.8-4.8-16.3
	c-4.7-1.4-10.7-2.1-17.9-2c-1.1,0.1-2.1,0.1-3.1,0.1c-0.9,0-1.8,0-2.8,0L183.9,41"/>
<path d="M253.2,0h18.5l-5.2,25.7h16.7c9.1,0.2,15.9,2.1,20.4,5.6c4.6,3.6,5.9,10.4,4,20.4l-9,44.7h-18.8l8.6-42.7
	c0.9-4.5,0.6-7.7-0.8-9.5s-4.5-2.8-9.3-2.8l-14.9-0.1l-11,55.2h-18.5L253.2,0L253.2,0"/>
<path d="M327.5,25.7h36c10.6,0.1,18.2,3.1,23,9.1c4.7,6,6.3,14.2,4.7,24.6c-0.6,4.7-2,9.4-4.2,14c-2.1,4.6-4.9,8.7-8.6,12.4
	c-4.5,4.7-9.3,7.6-14.4,8.9c-5.1,1.3-10.4,1.9-15.9,1.9h-16.1L327,122h-18.7L327.5,25.7L327.5,25.7 M343.2,41l-8.1,40.3
	c0.5,0.1,1.1,0.1,1.6,0.1c0.6,0,1.3,0,1.9,0c8.6,0.1,15.8-0.8,21.5-2.6c5.7-1.9,9.6-8.4,11.6-19.6c1.6-9.4,0-14.8-4.8-16.3
	c-4.7-1.4-10.7-2.1-17.9-2c-1.1,0.1-2.1,0.1-3.1,0.1c-0.9,0-1.8,0-2.8,0L343.2,41"/>
</svg>
