<svg xmlns="http://www.w3.org/2000/svg" xmlns:xlink="http://www.w3.org/1999/xlink" width="112" zoomAndPan="magnify" viewBox="0 0 84 83.999999" height="112" preserveAspectRatio="xMidYMid meet" version="1.0"><rect x="-8.4" width="100.8" fill="#ffffff" y="-8.4" height="100.799999" fill-opacity="1"/><rect x="-8.4" width="100.8" fill="#ffffff" y="-8.4" height="100.799999" fill-opacity="1"/><rect x="-8.4" width="100.8" fill="#ffffff" y="-8.4" height="100.799999" fill-opacity="1"/><path fill="#201f48" d="M 84.007812 42.003906 C 84.007812 43.378906 83.941406 44.75 83.804688 46.121094 C 83.667969 47.488281 83.46875 48.847656 83.199219 50.199219 C 82.929688 51.546875 82.597656 52.878906 82.199219 54.195312 C 81.800781 55.511719 81.335938 56.804688 80.808594 58.078125 C 80.285156 59.347656 79.695312 60.589844 79.046875 61.804688 C 78.398438 63.015625 77.691406 64.195312 76.929688 65.339844 C 76.164062 66.484375 75.34375 67.585938 74.472656 68.648438 C 73.601562 69.714844 72.675781 70.730469 71.703125 71.703125 C 70.730469 72.675781 69.714844 73.601562 68.648438 74.472656 C 67.585938 75.34375 66.484375 76.164062 65.339844 76.929688 C 64.195312 77.691406 63.015625 78.398438 61.804688 79.046875 C 60.589844 79.695312 59.347656 80.285156 58.078125 80.808594 C 56.804688 81.335938 55.511719 81.800781 54.195312 82.199219 C 52.878906 82.597656 51.546875 82.929688 50.199219 83.199219 C 48.847656 83.46875 47.488281 83.667969 46.121094 83.804688 C 44.75 83.941406 43.378906 84.007812 42.003906 84.007812 C 40.628906 84.007812 39.253906 83.941406 37.886719 83.804688 C 36.515625 83.667969 35.160156 83.46875 33.808594 83.199219 C 32.460938 82.929688 31.128906 82.597656 29.808594 82.199219 C 28.492188 81.800781 27.199219 81.335938 25.929688 80.808594 C 24.660156 80.285156 23.417969 79.695312 22.203125 79.046875 C 20.988281 78.398438 19.8125 77.691406 18.667969 76.929688 C 17.523438 76.164062 16.421875 75.34375 15.355469 74.472656 C 14.292969 73.601562 13.273438 72.675781 12.300781 71.703125 C 11.328125 70.730469 10.40625 69.714844 9.535156 68.648438 C 8.660156 67.585938 7.84375 66.484375 7.078125 65.339844 C 6.316406 64.195312 5.609375 63.015625 4.960938 61.804688 C 4.3125 60.589844 3.722656 59.347656 3.199219 58.078125 C 2.671875 56.804688 2.207031 55.511719 1.808594 54.195312 C 1.410156 52.878906 1.074219 51.546875 0.808594 50.199219 C 0.539062 48.847656 0.335938 47.488281 0.203125 46.121094 C 0.0664062 44.75 0 43.378906 0 42.003906 C 0 40.628906 0.0664062 39.253906 0.203125 37.886719 C 0.335938 36.515625 0.539062 35.160156 0.808594 33.808594 C 1.074219 32.460938 1.410156 31.128906 1.808594 29.808594 C 2.207031 28.492188 2.671875 27.199219 3.199219 25.929688 C 3.722656 24.660156 4.3125 23.417969 4.960938 22.203125 C 5.609375 20.988281 6.316406 19.8125 7.078125 18.667969 C 7.84375 17.523438 8.660156 16.421875 9.535156 15.355469 C 10.40625 14.292969 11.328125 13.273438 12.300781 12.300781 C 13.273438 11.328125 14.292969 10.40625 15.355469 9.535156 C 16.421875 8.660156 17.523438 7.84375 18.667969 7.078125 C 19.8125 6.316406 20.988281 5.609375 22.203125 4.960938 C 23.417969 4.3125 24.660156 3.722656 25.929688 3.199219 C 27.199219 2.671875 28.492188 2.207031 29.808594 1.808594 C 31.128906 1.410156 32.460938 1.074219 33.808594 0.808594 C 35.160156 0.539062 36.515625 0.335938 37.886719 0.203125 C 39.253906 0.0664062 40.628906 0 42.003906 0 C 43.378906 0 44.75 0.0664062 46.121094 0.203125 C 47.488281 0.335938 48.847656 0.539062 50.199219 0.808594 C 51.546875 1.074219 52.878906 1.410156 54.195312 1.808594 C 55.511719 2.207031 56.804688 2.671875 58.078125 3.199219 C 59.347656 3.722656 60.589844 4.3125 61.804688 4.960938 C 63.015625 5.609375 64.195312 6.316406 65.339844 7.078125 C 66.484375 7.84375 67.585938 8.660156 68.648438 9.535156 C 69.714844 10.40625 70.730469 11.328125 71.703125 12.300781 C 72.675781 13.273438 73.601562 14.292969 74.472656 15.355469 C 75.34375 16.421875 76.164062 17.523438 76.929688 18.667969 C 77.691406 19.8125 78.398438 20.988281 79.046875 22.203125 C 79.695312 23.417969 80.285156 24.660156 80.808594 25.929688 C 81.335938 27.199219 81.800781 28.492188 82.199219 29.808594 C 82.597656 31.128906 82.929688 32.460938 83.199219 33.808594 C 83.46875 35.160156 83.667969 36.515625 83.804688 37.886719 C 83.941406 39.253906 84.007812 40.628906 84.007812 42.003906 Z M 84.007812 42.003906 " fill-opacity="1" fill-rule="nonzero"/><path fill="#6dbad9" d="M 81.027344 42.003906 C 81.03125 44.621094 80.773438 47.210938 80.253906 49.777344 C 79.734375 52.34375 78.960938 54.832031 77.941406 57.242188 C 76.917969 59.652344 75.664062 61.933594 74.183594 64.09375 C 72.699219 66.25 71.015625 68.238281 69.132812 70.054688 C 68.332031 70.832031 67.496094 71.570312 66.628906 72.273438 C 66.292969 72.550781 65.949219 72.824219 65.601562 73.085938 C 65.265625 73.339844 64.925781 73.589844 64.582031 73.832031 C 63.25 74.78125 61.859375 75.644531 60.417969 76.417969 C 59.476562 76.921875 58.511719 77.390625 57.527344 77.820312 C 55.265625 78.792969 52.9375 79.550781 50.535156 80.085938 C 48.132812 80.621094 45.703125 80.929688 43.242188 81.007812 C 40.78125 81.085938 38.335938 80.933594 35.90625 80.550781 C 33.476562 80.167969 31.101562 79.5625 28.785156 78.734375 C 28.449219 78.609375 28.121094 78.488281 27.789062 78.359375 C 27.175781 78.117188 26.566406 77.859375 25.964844 77.589844 C 23.621094 76.53125 21.402344 75.253906 19.3125 73.757812 C 18.949219 73.496094 18.59375 73.234375 18.242188 72.960938 C 17.753906 72.585938 17.269531 72.195312 16.796875 71.796875 C 15.996094 71.113281 15.21875 70.402344 14.46875 69.65625 C 14.328125 69.515625 14.183594 69.371094 14.046875 69.226562 C 12.285156 67.425781 10.714844 65.46875 9.335938 63.363281 C 7.953125 61.253906 6.789062 59.035156 5.839844 56.699219 C 4.894531 54.367188 4.179688 51.964844 3.695312 49.492188 C 3.214844 47.019531 2.976562 44.523438 2.980469 42.003906 C 2.980469 20.449219 20.453125 2.980469 42.003906 2.980469 C 63.554688 2.980469 81.027344 20.449219 81.027344 42.003906 Z M 81.027344 42.003906 " fill-opacity="1" fill-rule="nonzero"/><path fill="#eeeeee" d="M 66.996094 61.183594 C 66.996094 64.988281 66.875 68.695312 66.628906 72.273438 C 66.292969 72.550781 65.949219 72.824219 65.601562 73.085938 C 65.265625 73.339844 64.925781 73.589844 64.582031 73.832031 C 63.25 74.78125 61.859375 75.644531 60.417969 76.417969 C 59.476562 76.921875 58.511719 77.390625 57.527344 77.820312 C 55.265625 78.792969 52.9375 79.550781 50.535156 80.085938 C 48.132812 80.621094 45.703125 80.929688 43.242188 81.007812 C 40.78125 81.085938 38.335938 80.933594 35.90625 80.550781 C 33.476562 80.167969 31.101562 79.5625 28.785156 78.734375 C 28.449219 78.609375 28.121094 78.488281 27.789062 78.359375 C 27.175781 78.117188 26.566406 77.859375 25.964844 77.589844 C 23.621094 76.53125 21.402344 75.253906 19.3125 73.757812 C 18.949219 73.496094 18.59375 73.234375 18.242188 72.960938 C 17.753906 72.585938 17.269531 72.195312 16.796875 71.796875 C 16.667969 69.625 16.582031 67.40625 16.539062 65.148438 C 16.511719 63.839844 16.496094 62.515625 16.496094 61.183594 C 16.496094 60.171875 16.882812 59.574219 17.597656 59.277344 C 18.125 59.085938 18.667969 59.003906 19.226562 59.035156 C 23.398438 59.089844 31.914062 62.433594 41.746094 62.433594 C 46.75 62.433594 51.414062 62.777344 55.339844 61.902344 C 55.753906 61.808594 56.160156 61.703125 56.554688 61.582031 C 59.960938 60.542969 62.722656 59.546875 64.550781 59.367188 C 64.570312 59.367188 64.589844 59.363281 64.609375 59.363281 C 64.652344 59.359375 64.695312 59.355469 64.738281 59.351562 C 64.867188 59.34375 64.988281 59.335938 65.105469 59.335938 C 65.183594 59.335938 65.265625 59.339844 65.339844 59.34375 C 66.410156 59.410156 66.996094 59.933594 66.996094 61.183594 Z M 66.996094 61.183594 " fill-opacity="1" fill-rule="nonzero"/><path fill="#ffffff" d="M 64.660156 59.738281 C 64.660156 59.996094 64.503906 60.246094 64.207031 60.488281 C 63.320312 61.210938 61.175781 61.855469 58.167969 62.367188 C 57.894531 62.410156 57.613281 62.457031 57.324219 62.5 C 57.28125 62.507812 57.238281 62.515625 57.195312 62.519531 C 53.121094 63.132812 47.699219 63.507812 41.746094 63.507812 C 29.089844 63.507812 18.832031 61.820312 18.832031 59.738281 C 18.832031 58.460938 22.6875 57.332031 28.585938 56.652344 C 29.328125 56.566406 30.105469 56.484375 30.910156 56.414062 C 31.417969 56.371094 31.9375 56.328125 32.46875 56.289062 C 35.304688 56.082031 38.445312 55.96875 41.746094 55.96875 C 52.679688 55.96875 61.824219 57.226562 64.109375 58.914062 C 64.148438 58.941406 64.1875 58.972656 64.222656 59 C 64.390625 59.132812 64.519531 59.292969 64.609375 59.484375 C 64.640625 59.566406 64.660156 59.648438 64.660156 59.738281 Z M 64.660156 59.738281 " fill-opacity="1" fill-rule="nonzero"/><path fill="#6dbad9" d="M 57.527344 72.53125 L 57.527344 77.820312 C 55.265625 78.792969 52.9375 79.550781 50.535156 80.085938 C 48.132812 80.621094 45.703125 80.929688 43.242188 81.007812 C 40.78125 81.085938 38.335938 80.933594 35.90625 80.550781 C 33.476562 80.167969 31.101562 79.5625 28.785156 78.734375 C 28.449219 78.609375 28.121094 78.488281 27.789062 78.359375 C 27.175781 78.117188 26.566406 77.859375 25.964844 77.589844 L 25.964844 72.53125 C 25.964844 72.097656 26.050781 71.679688 26.21875 71.277344 C 26.382812 70.875 26.621094 70.519531 26.929688 70.214844 C 27.238281 69.90625 27.59375 69.667969 27.992188 69.5 C 28.394531 69.335938 28.8125 69.25 29.25 69.25 C 29.25 69.25 30.511719 69.800781 33.019531 70.300781 C 35.238281 70.730469 37.480469 70.980469 39.738281 71.054688 C 40.378906 71.078125 41.046875 71.089844 41.746094 71.089844 C 42.351562 71.089844 42.929688 71.082031 43.488281 71.0625 C 45.789062 71.011719 48.074219 70.777344 50.335938 70.355469 C 51.335938 70.171875 52.320312 69.921875 53.285156 69.609375 C 53.613281 69.507812 53.929688 69.386719 54.242188 69.25 C 54.648438 69.25 55.039062 69.320312 55.414062 69.464844 C 55.945312 69.671875 56.394531 69.996094 56.761719 70.433594 C 57.269531 71.039062 57.527344 71.742188 57.527344 72.53125 Z M 57.527344 72.53125 " fill-opacity="1" fill-rule="nonzero"/><path fill="#ffffff" d="M 28.785156 78.734375 C 28.449219 78.609375 28.121094 78.488281 27.789062 78.359375 C 27.757812 77.964844 27.742188 77.546875 27.746094 77.117188 C 27.761719 74.578125 28.425781 72.519531 28.710938 72.519531 C 28.992188 72.523438 28.789062 74.582031 28.773438 77.125 C 28.773438 77.691406 28.777344 78.234375 28.785156 78.734375 Z M 28.785156 78.734375 " fill-opacity="1" fill-rule="nonzero"/><path fill="#ffffff" d="M 18.808594 60.355469 L 18.808594 72.003906 C 18.808594 72.4375 18.621094 72.753906 18.242188 72.960938 C 17.753906 72.585938 17.269531 72.195312 16.796875 71.796875 C 15.996094 71.113281 15.21875 70.402344 14.46875 69.65625 C 14.328125 69.515625 14.183594 69.371094 14.046875 69.226562 C 13.761719 68.230469 13.625 67.214844 13.636719 66.179688 C 13.636719 62.839844 14.914062 60.039062 17.441406 59.308594 C 17.492188 59.296875 17.546875 59.285156 17.597656 59.277344 C 17.769531 59.253906 17.9375 59.273438 18.097656 59.332031 C 18.3125 59.414062 18.484375 59.546875 18.613281 59.734375 C 18.746094 59.921875 18.808594 60.128906 18.808594 60.355469 Z M 18.808594 60.355469 " fill-opacity="1" fill-rule="nonzero"/><path fill="#ffffff" d="M 69.832031 66.179688 C 69.835938 66.882812 69.773438 67.578125 69.648438 68.269531 C 69.550781 68.839844 69.390625 69.398438 69.179688 69.941406 C 69.164062 69.980469 69.148438 70.015625 69.132812 70.054688 C 68.332031 70.832031 67.496094 71.570312 66.628906 72.273438 C 66.292969 72.550781 65.949219 72.824219 65.601562 73.085938 C 65.332031 73.046875 65.105469 72.925781 64.929688 72.722656 C 64.75 72.515625 64.660156 72.277344 64.660156 72.003906 L 64.660156 60.355469 C 64.660156 60.136719 64.722656 59.933594 64.84375 59.746094 C 64.96875 59.5625 65.132812 59.429688 65.339844 59.34375 C 65.351562 59.339844 65.359375 59.335938 65.371094 59.332031 C 65.585938 59.253906 65.804688 59.246094 66.027344 59.308594 C 67.429688 59.714844 68.445312 60.753906 69.074219 62.171875 C 69.375 62.867188 69.582031 63.59375 69.695312 64.34375 C 69.789062 64.953125 69.835938 65.566406 69.832031 66.179688 Z M 69.832031 66.179688 " fill-opacity="1" fill-rule="nonzero"/><path fill="#cfd3d8" d="M 18.808594 60.355469 L 18.808594 72.003906 C 18.808594 72.4375 18.621094 72.753906 18.242188 72.960938 C 17.753906 72.585938 17.269531 72.195312 16.796875 71.796875 C 15.996094 71.113281 15.21875 70.402344 14.46875 69.65625 C 14.554688 69.53125 14.636719 69.402344 14.707031 69.28125 C 15.148438 68.515625 15.535156 67.730469 15.871094 66.914062 C 16.117188 66.335938 16.335938 65.746094 16.539062 65.148438 C 16.902344 64.082031 17.203125 62.996094 17.484375 61.90625 C 17.699219 61.050781 17.902344 60.191406 18.097656 59.332031 C 18.3125 59.414062 18.484375 59.546875 18.613281 59.734375 C 18.746094 59.921875 18.808594 60.128906 18.808594 60.355469 Z M 18.808594 60.355469 " fill-opacity="1" fill-rule="nonzero"/><path fill="#eeeeee" d="M 18.535156 32.863281 L 16.871094 32.847656 L 16.980469 22.453125 L 17 20.9375 L 17.019531 18.925781 L 18.683594 18.945312 L 18.664062 20.800781 L 18.660156 21.242188 L 18.644531 22.445312 L 18.644531 22.65625 Z M 18.535156 32.863281 " fill-opacity="1" fill-rule="nonzero"/><path fill="#cfd3d8" d="M 18.644531 22.445312 C 18.085938 22.601562 17.53125 22.578125 16.984375 22.378906 L 17 20.9375 C 17.566406 21.066406 18.125 21.019531 18.664062 20.800781 L 18.660156 21.242188 Z M 18.644531 22.445312 " fill-opacity="1" fill-rule="nonzero"/><path fill="#ffffff" d="M 18.082031 16.828125 C 18.398438 16.855469 18.695312 16.945312 18.972656 17.089844 C 19.253906 17.238281 19.492188 17.433594 19.695312 17.679688 C 19.898438 17.921875 20.046875 18.195312 20.140625 18.5 C 20.234375 18.800781 20.265625 19.113281 20.238281 19.429688 C 20.210938 19.746094 20.125 20.046875 19.976562 20.328125 C 19.832031 20.609375 19.636719 20.851562 19.394531 21.058594 C 19.152344 21.261719 18.882812 21.410156 18.578125 21.507812 C 18.277344 21.601562 17.972656 21.636719 17.65625 21.609375 C 17.34375 21.582031 17.046875 21.492188 16.765625 21.347656 C 16.488281 21.199219 16.246094 21.003906 16.046875 20.757812 C 15.84375 20.515625 15.695312 20.242188 15.601562 19.9375 C 15.507812 19.636719 15.472656 19.324219 15.5 19.007812 C 15.53125 18.691406 15.617188 18.390625 15.761719 18.109375 C 15.910156 17.828125 16.105469 17.585938 16.347656 17.378906 C 16.589844 17.175781 16.859375 17.027344 17.160156 16.929688 C 17.460938 16.835938 17.769531 16.800781 18.082031 16.828125 Z M 18.082031 16.828125 " fill-opacity="1" fill-rule="nonzero"/><path fill="#cfd3d8" d="M 19.714844 17.667969 C 19.40625 17.296875 19.023438 17.039062 18.5625 16.898438 C 18.097656 16.757812 17.636719 16.757812 17.171875 16.898438 C 17.585938 17.039062 17.9375 17.269531 18.222656 17.597656 C 18.507812 17.925781 18.695312 18.304688 18.777344 18.730469 C 18.859375 19.160156 18.828125 19.578125 18.683594 19.992188 C 18.539062 20.402344 18.300781 20.75 17.972656 21.03125 C 17.726562 21.234375 17.453125 21.382812 17.152344 21.476562 C 17.539062 21.605469 17.9375 21.636719 18.339844 21.558594 C 18.746094 21.484375 19.105469 21.316406 19.417969 21.050781 C 19.664062 20.847656 19.855469 20.601562 20.003906 20.320312 C 20.148438 20.039062 20.238281 19.738281 20.265625 19.421875 C 20.292969 19.105469 20.257812 18.792969 20.164062 18.492188 C 20.066406 18.1875 19.917969 17.914062 19.714844 17.667969 Z M 19.714844 17.667969 " fill-opacity="1" fill-rule="nonzero"/><path fill="#eeeeee" d="M 48.648438 59.539062 C 48.648438 62.214844 45.519531 61.753906 41.65625 61.753906 C 37.796875 61.753906 34.667969 62.214844 34.667969 59.539062 C 34.667969 56.867188 37.796875 54.695312 41.65625 54.695312 C 45.519531 54.695312 48.648438 56.867188 48.648438 59.539062 Z M 48.648438 59.539062 " fill-opacity="1" fill-rule="nonzero"/><path fill="#cfd3d8" d="M 64.660156 59.605469 C 64.660156 59.855469 64.503906 60.09375 64.207031 60.328125 C 63.320312 61.027344 61.175781 61.652344 58.167969 62.140625 C 57.894531 62.1875 57.613281 62.230469 57.324219 62.273438 C 57.28125 62.28125 57.238281 62.285156 57.195312 62.292969 C 56.683594 62.199219 56.175781 62.089844 55.671875 61.976562 C 50.4375 60.808594 45.199219 59.640625 39.964844 58.476562 C 37.417969 57.898438 34.921875 57.167969 32.46875 56.277344 C 35.304688 56.078125 38.445312 55.96875 41.746094 55.96875 C 52.679688 55.96875 61.824219 57.183594 64.109375 58.808594 C 64.148438 58.839844 64.1875 58.867188 64.222656 58.894531 C 64.390625 59.019531 64.519531 59.175781 64.609375 59.363281 C 64.640625 59.441406 64.660156 59.523438 64.660156 59.605469 Z M 64.660156 59.605469 " fill-opacity="1" fill-rule="nonzero"/><path fill="#eeeeee" d="M 65.589844 40.976562 C 65.589844 41.039062 65.589844 41.097656 65.589844 41.160156 C 65.570312 43.980469 65.054688 46.441406 64.128906 48.566406 C 64.128906 48.570312 64.128906 48.574219 64.125 48.578125 C 61.699219 54.128906 56.464844 57.390625 49.875 58.773438 C 47.191406 59.316406 44.484375 59.582031 41.746094 59.5625 C 36.246094 59.5625 31.179688 58.617188 27.144531 56.558594 C 21.519531 53.6875 17.898438 48.644531 17.898438 40.976562 C 17.898438 39.703125 18 38.4375 18.203125 37.179688 C 18.40625 35.921875 18.707031 34.6875 19.109375 33.476562 C 19.507812 32.269531 20.003906 31.097656 20.589844 29.96875 C 21.179688 28.835938 21.851562 27.761719 22.613281 26.738281 C 23.375 25.714844 24.210938 24.761719 25.125 23.871094 C 26.039062 22.984375 27.015625 22.175781 28.058594 21.445312 C 29.105469 20.710938 30.199219 20.070312 31.34375 19.511719 C 32.492188 18.957031 33.675781 18.496094 34.894531 18.128906 C 35.566406 17.929688 36.25 17.757812 36.945312 17.613281 C 40.0625 16.980469 43.179688 16.964844 46.304688 17.566406 C 46.792969 17.660156 47.273438 17.769531 47.753906 17.894531 C 47.867188 17.925781 47.984375 17.953125 48.097656 17.988281 C 48.109375 17.988281 48.121094 17.992188 48.132812 17.996094 C 48.246094 18.027344 48.359375 18.058594 48.46875 18.09375 C 48.472656 18.09375 48.476562 18.09375 48.480469 18.097656 C 48.574219 18.125 48.667969 18.152344 48.761719 18.179688 C 48.855469 18.210938 48.949219 18.238281 49.042969 18.269531 C 49.105469 18.289062 49.167969 18.308594 49.226562 18.328125 C 49.28125 18.347656 49.335938 18.367188 49.390625 18.382812 C 49.460938 18.40625 49.527344 18.429688 49.597656 18.453125 C 49.671875 18.480469 49.746094 18.507812 49.816406 18.53125 C 49.851562 18.542969 49.882812 18.554688 49.917969 18.570312 C 49.996094 18.597656 50.070312 18.625 50.148438 18.65625 C 50.253906 18.691406 50.355469 18.734375 50.457031 18.773438 C 50.527344 18.800781 50.597656 18.828125 50.667969 18.859375 C 50.683594 18.863281 50.699219 18.867188 50.710938 18.875 C 50.796875 18.910156 50.878906 18.941406 50.960938 18.976562 C 51.050781 19.015625 51.140625 19.054688 51.230469 19.09375 C 51.234375 19.09375 51.238281 19.09375 51.242188 19.097656 C 51.328125 19.132812 51.410156 19.171875 51.496094 19.210938 C 51.574219 19.246094 51.65625 19.28125 51.738281 19.320312 C 51.941406 19.414062 52.144531 19.511719 52.347656 19.613281 C 52.421875 19.648438 52.492188 19.683594 52.566406 19.722656 C 52.644531 19.761719 52.722656 19.800781 52.800781 19.84375 C 52.894531 19.890625 52.988281 19.945312 53.085938 19.996094 C 53.125 20.015625 53.164062 20.039062 53.203125 20.058594 C 53.277344 20.097656 53.351562 20.140625 53.425781 20.183594 C 53.476562 20.210938 53.527344 20.238281 53.574219 20.269531 C 53.664062 20.320312 53.753906 20.371094 53.84375 20.421875 C 53.847656 20.425781 53.847656 20.425781 53.851562 20.429688 C 53.957031 20.492188 54.0625 20.554688 54.164062 20.617188 C 54.195312 20.636719 54.226562 20.65625 54.257812 20.671875 C 54.34375 20.726562 54.433594 20.785156 54.519531 20.839844 C 54.539062 20.847656 54.554688 20.859375 54.570312 20.871094 C 54.671875 20.933594 54.769531 21 54.867188 21.066406 C 54.871094 21.066406 54.871094 21.066406 54.871094 21.066406 C 54.972656 21.132812 55.074219 21.199219 55.171875 21.269531 C 55.1875 21.277344 55.203125 21.289062 55.21875 21.300781 C 55.304688 21.359375 55.386719 21.414062 55.46875 21.472656 C 55.613281 21.574219 55.757812 21.679688 55.898438 21.785156 C 55.972656 21.835938 56.042969 21.890625 56.117188 21.945312 C 56.160156 21.980469 56.203125 22.011719 56.246094 22.046875 C 56.347656 22.121094 56.445312 22.199219 56.542969 22.277344 C 56.621094 22.335938 56.695312 22.398438 56.769531 22.457031 C 56.785156 22.472656 56.800781 22.484375 56.816406 22.496094 C 56.910156 22.574219 57.003906 22.652344 57.09375 22.726562 C 57.1875 22.804688 57.277344 22.882812 57.367188 22.960938 C 57.410156 23 57.453125 23.039062 57.5 23.074219 C 57.574219 23.144531 57.652344 23.210938 57.730469 23.28125 C 57.816406 23.363281 57.90625 23.441406 57.996094 23.527344 C 58 23.53125 58.007812 23.535156 58.011719 23.542969 C 58.09375 23.617188 58.175781 23.695312 58.257812 23.773438 C 58.441406 23.949219 58.625 24.132812 58.804688 24.316406 C 58.84375 24.355469 58.882812 24.398438 58.921875 24.4375 C 58.984375 24.5 59.046875 24.566406 59.105469 24.628906 C 59.152344 24.675781 59.195312 24.726562 59.242188 24.777344 C 59.257812 24.792969 59.273438 24.808594 59.289062 24.828125 C 59.390625 24.9375 59.492188 25.050781 59.59375 25.164062 C 59.640625 25.214844 59.6875 25.269531 59.734375 25.324219 C 59.855469 25.460938 59.972656 25.597656 60.085938 25.738281 C 60.1875 25.855469 60.28125 25.976562 60.378906 26.09375 C 60.425781 26.152344 60.472656 26.214844 60.519531 26.273438 C 60.570312 26.335938 60.617188 26.402344 60.667969 26.464844 C 60.71875 26.527344 60.765625 26.59375 60.8125 26.65625 C 60.917969 26.792969 61.019531 26.929688 61.117188 27.070312 C 61.160156 27.125 61.199219 27.183594 61.242188 27.242188 C 61.320312 27.351562 61.394531 27.460938 61.46875 27.570312 C 61.496094 27.613281 61.527344 27.65625 61.554688 27.695312 C 61.585938 27.746094 61.617188 27.792969 61.648438 27.839844 C 61.695312 27.910156 61.738281 27.976562 61.78125 28.042969 C 61.8125 28.089844 61.84375 28.136719 61.871094 28.183594 C 61.902344 28.230469 61.933594 28.277344 61.964844 28.328125 C 62.027344 28.429688 62.089844 28.53125 62.152344 28.632812 C 62.164062 28.652344 62.175781 28.671875 62.1875 28.691406 C 62.261719 28.816406 62.339844 28.949219 62.414062 29.078125 C 62.453125 29.148438 62.496094 29.21875 62.535156 29.289062 C 62.574219 29.359375 62.613281 29.429688 62.652344 29.5 C 62.730469 29.644531 62.808594 29.785156 62.882812 29.929688 C 62.957031 30.070312 63.03125 30.214844 63.105469 30.363281 C 63.140625 30.433594 63.171875 30.503906 63.207031 30.574219 C 63.210938 30.574219 63.210938 30.578125 63.210938 30.582031 C 63.28125 30.726562 63.351562 30.875 63.421875 31.019531 C 63.453125 31.09375 63.488281 31.167969 63.519531 31.242188 C 63.585938 31.390625 63.652344 31.542969 63.714844 31.691406 C 63.746094 31.765625 63.78125 31.839844 63.808594 31.917969 C 63.839844 31.992188 63.871094 32.070312 63.902344 32.144531 C 63.933594 32.21875 63.960938 32.296875 63.992188 32.371094 C 64.109375 32.679688 64.222656 32.984375 64.328125 33.296875 C 64.355469 33.375 64.378906 33.453125 64.40625 33.53125 C 64.472656 33.742188 64.542969 33.953125 64.605469 34.164062 C 64.621094 34.21875 64.636719 34.277344 64.652344 34.332031 C 64.667969 34.378906 64.679688 34.429688 64.695312 34.480469 C 64.71875 34.558594 64.738281 34.636719 64.761719 34.714844 C 64.804688 34.875 64.84375 35.035156 64.886719 35.195312 C 64.90625 35.277344 64.925781 35.355469 64.945312 35.4375 C 64.957031 35.496094 64.972656 35.554688 64.984375 35.613281 C 64.996094 35.660156 65.007812 35.707031 65.019531 35.757812 C 65.03125 35.8125 65.042969 35.867188 65.054688 35.925781 C 65.070312 35.996094 65.085938 36.066406 65.101562 36.136719 C 65.1875 36.570312 65.265625 37.003906 65.332031 37.441406 C 65.339844 37.511719 65.351562 37.585938 65.363281 37.65625 C 65.367188 37.707031 65.375 37.753906 65.382812 37.804688 C 65.390625 37.859375 65.398438 37.917969 65.40625 37.976562 C 65.414062 38.058594 65.425781 38.140625 65.433594 38.21875 C 65.449219 38.359375 65.464844 38.5 65.476562 38.636719 C 65.5 38.851562 65.515625 39.066406 65.53125 39.277344 C 65.542969 39.417969 65.550781 39.554688 65.558594 39.695312 C 65.570312 39.960938 65.582031 40.230469 65.585938 40.496094 C 65.589844 40.570312 65.589844 40.644531 65.589844 40.71875 C 65.589844 40.804688 65.589844 40.890625 65.589844 40.976562 Z M 65.589844 40.976562 " fill-opacity="1" fill-rule="nonzero"/><path fill="#201f48" d="M 58.480469 46.542969 C 58.480469 46.542969 50.457031 47.421875 41.859375 47.421875 C 33.625 47.421875 25.011719 46.542969 25.011719 46.542969 C 23.339844 46.542969 21.988281 45.136719 21.988281 43.398438 L 21.988281 35.355469 C 21.988281 33.617188 23.339844 32.210938 25.011719 32.210938 C 25.011719 32.210938 33.800781 31.332031 41.859375 31.332031 C 49.40625 31.332031 58.480469 32.210938 58.480469 32.210938 C 60.148438 32.210938 61.503906 33.617188 61.503906 35.355469 L 61.503906 43.398438 C 61.503906 45.136719 60.148438 46.542969 58.480469 46.542969 Z M 58.480469 46.542969 " fill-opacity="1" fill-rule="nonzero"/><path fill="#ffffff" d="M 55.753906 38.347656 C 55.753906 38.839844 55.660156 39.316406 55.472656 39.773438 C 55.28125 40.230469 55.011719 40.632812 54.664062 40.980469 C 54.3125 41.332031 53.910156 41.601562 53.453125 41.789062 C 53 41.976562 52.523438 42.074219 52.027344 42.074219 C 51.535156 42.074219 51.058594 41.976562 50.601562 41.789062 C 50.148438 41.601562 49.742188 41.332031 49.394531 40.980469 C 49.042969 40.632812 48.777344 40.230469 48.585938 39.773438 C 48.398438 39.316406 48.304688 38.839844 48.304688 38.347656 C 48.304688 37.851562 48.398438 37.378906 48.585938 36.921875 C 48.777344 36.464844 49.042969 36.0625 49.394531 35.710938 C 49.742188 35.363281 50.148438 35.09375 50.601562 34.90625 C 51.058594 34.714844 51.535156 34.621094 52.027344 34.621094 C 52.523438 34.621094 53 34.714844 53.453125 34.90625 C 53.910156 35.09375 54.3125 35.363281 54.664062 35.710938 C 55.011719 36.0625 55.28125 36.464844 55.472656 36.921875 C 55.660156 37.378906 55.753906 37.851562 55.753906 38.347656 Z M 55.753906 38.347656 " fill-opacity="1" fill-rule="nonzero"/><path fill="#ffffff" d="M 60.085938 25.738281 C 49.214844 24.597656 33.941406 24.839844 23.433594 25.703125 C 24.933594 23.902344 26.65625 22.359375 28.609375 21.070312 C 30.558594 19.78125 32.65625 18.800781 34.894531 18.128906 C 35.566406 17.929688 36.25 17.757812 36.945312 17.613281 C 40.0625 16.980469 43.179688 16.964844 46.304688 17.566406 C 46.792969 17.660156 47.273438 17.769531 47.753906 17.894531 C 47.867188 17.925781 47.984375 17.953125 48.097656 17.988281 C 48.109375 17.988281 48.121094 17.992188 48.132812 17.996094 C 48.246094 18.027344 48.359375 18.058594 48.46875 18.09375 C 48.472656 18.09375 48.476562 18.09375 48.480469 18.097656 C 48.574219 18.125 48.667969 18.152344 48.761719 18.179688 C 48.855469 18.210938 48.949219 18.238281 49.042969 18.269531 C 49.105469 18.289062 49.167969 18.308594 49.226562 18.328125 C 49.28125 18.347656 49.335938 18.367188 49.390625 18.382812 C 49.460938 18.40625 49.527344 18.429688 49.597656 18.453125 C 49.671875 18.480469 49.746094 18.507812 49.816406 18.53125 C 49.851562 18.542969 49.882812 18.554688 49.917969 18.570312 C 49.996094 18.597656 50.070312 18.625 50.148438 18.65625 C 50.253906 18.691406 50.355469 18.734375 50.457031 18.773438 C 50.527344 18.800781 50.597656 18.828125 50.667969 18.859375 C 50.683594 18.863281 50.699219 18.867188 50.710938 18.875 C 50.796875 18.910156 50.878906 18.941406 50.960938 18.976562 C 51.050781 19.015625 51.140625 19.054688 51.230469 19.09375 C 51.234375 19.09375 51.238281 19.09375 51.242188 19.097656 C 51.328125 19.132812 51.410156 19.171875 51.496094 19.210938 C 51.574219 19.246094 51.65625 19.28125 51.738281 19.320312 C 51.941406 19.414062 52.144531 19.511719 52.347656 19.613281 C 52.421875 19.648438 52.492188 19.683594 52.566406 19.722656 C 52.644531 19.761719 52.722656 19.800781 52.800781 19.84375 C 52.894531 19.890625 52.988281 19.945312 53.085938 19.996094 C 53.125 20.015625 53.164062 20.039062 53.203125 20.058594 C 53.277344 20.097656 53.351562 20.140625 53.425781 20.183594 C 53.476562 20.210938 53.527344 20.238281 53.574219 20.269531 C 53.664062 20.320312 53.753906 20.371094 53.84375 20.421875 C 53.847656 20.425781 53.847656 20.425781 53.851562 20.429688 C 53.957031 20.492188 54.0625 20.554688 54.164062 20.617188 C 54.195312 20.636719 54.226562 20.65625 54.257812 20.671875 C 54.34375 20.726562 54.433594 20.785156 54.519531 20.839844 C 54.539062 20.847656 54.554688 20.859375 54.570312 20.871094 C 54.671875 20.933594 54.769531 21 54.867188 21.066406 C 54.871094 21.066406 54.871094 21.066406 54.871094 21.066406 C 54.972656 21.132812 55.074219 21.199219 55.171875 21.269531 C 55.1875 21.277344 55.203125 21.289062 55.21875 21.300781 C 55.304688 21.359375 55.386719 21.414062 55.46875 21.472656 C 55.613281 21.574219 55.757812 21.679688 55.898438 21.785156 C 55.972656 21.835938 56.042969 21.890625 56.117188 21.945312 C 56.160156 21.980469 56.203125 22.011719 56.246094 22.046875 C 56.347656 22.121094 56.445312 22.199219 56.542969 22.277344 C 56.621094 22.335938 56.695312 22.398438 56.769531 22.457031 C 56.785156 22.472656 56.800781 22.484375 56.816406 22.496094 C 56.910156 22.574219 57.003906 22.652344 57.09375 22.726562 C 57.1875 22.804688 57.277344 22.882812 57.367188 22.960938 C 57.410156 23 57.453125 23.039062 57.5 23.074219 C 57.574219 23.144531 57.652344 23.210938 57.730469 23.28125 C 57.816406 23.363281 57.90625 23.441406 57.996094 23.527344 C 58 23.53125 58.007812 23.535156 58.011719 23.542969 C 58.09375 23.617188 58.175781 23.695312 58.257812 23.773438 C 58.441406 23.949219 58.625 24.132812 58.804688 24.316406 C 58.84375 24.355469 58.882812 24.398438 58.921875 24.4375 C 58.984375 24.5 59.046875 24.566406 59.105469 24.628906 C 59.152344 24.675781 59.195312 24.726562 59.242188 24.777344 C 59.257812 24.792969 59.273438 24.808594 59.289062 24.828125 C 59.390625 24.9375 59.492188 25.050781 59.59375 25.164062 C 59.640625 25.214844 59.6875 25.269531 59.734375 25.324219 C 59.855469 25.460938 59.972656 25.597656 60.085938 25.738281 Z M 60.085938 25.738281 " fill-opacity="1" fill-rule="nonzero"/><path fill="#cfd3d8" d="M 65.589844 40.976562 C 65.589844 41.039062 65.589844 41.097656 65.589844 41.160156 C 65.542969 43.714844 65.054688 46.183594 64.128906 48.566406 C 64.128906 48.570312 64.128906 48.574219 64.125 48.578125 C 61.699219 54.128906 56.464844 57.390625 49.875 58.773438 C 47.191406 59.316406 44.484375 59.582031 41.746094 59.5625 C 36.246094 59.5625 31.179688 58.617188 27.144531 56.558594 C 60.652344 60.457031 63.027344 45.554688 63.257812 37.382812 C 63.433594 31.15625 57.261719 23.707031 47.753906 17.894531 C 47.867188 17.925781 47.984375 17.953125 48.097656 17.988281 C 48.109375 17.988281 48.121094 17.992188 48.132812 17.996094 C 48.246094 18.027344 48.359375 18.058594 48.46875 18.09375 C 48.472656 18.09375 48.476562 18.09375 48.480469 18.097656 C 48.574219 18.125 48.667969 18.152344 48.761719 18.179688 C 48.855469 18.210938 48.949219 18.238281 49.042969 18.269531 C 49.105469 18.289062 49.167969 18.308594 49.226562 18.328125 C 49.28125 18.347656 49.335938 18.367188 49.390625 18.382812 C 49.460938 18.40625 49.527344 18.429688 49.597656 18.453125 C 49.671875 18.480469 50.382812 18.769531 50.457031 18.796875 C 50.488281 18.808594 49.882812 18.554688 49.917969 18.570312 C 49.996094 18.597656 50.070312 18.625 50.148438 18.65625 C 50.253906 18.691406 50.355469 18.734375 50.457031 18.773438 C 50.527344 18.800781 50.597656 18.828125 50.667969 18.859375 C 50.683594 18.863281 50.699219 18.867188 50.710938 18.875 C 50.796875 18.910156 50.878906 18.941406 50.960938 18.976562 C 51.050781 19.015625 51.140625 19.054688 51.230469 19.09375 C 51.234375 19.09375 51.238281 19.09375 51.242188 19.097656 C 51.328125 19.132812 51.410156 19.171875 51.496094 19.210938 C 51.574219 19.246094 51.65625 19.28125 51.738281 19.320312 C 51.941406 19.414062 52.144531 19.511719 52.347656 19.613281 C 52.421875 19.648438 52.492188 19.683594 52.566406 19.722656 C 52.644531 19.761719 52.722656 19.800781 52.800781 19.84375 C 52.894531 19.890625 52.988281 19.945312 53.085938 19.996094 C 53.125 20.015625 53.164062 20.039062 53.203125 20.058594 C 53.277344 20.097656 53.351562 20.140625 53.425781 20.183594 C 53.476562 20.210938 53.527344 20.238281 53.574219 20.269531 C 53.664062 20.320312 53.753906 20.371094 53.84375 20.421875 C 53.847656 20.425781 53.847656 20.425781 53.851562 20.429688 C 53.957031 20.492188 54.0625 20.554688 54.164062 20.617188 C 54.195312 20.636719 54.226562 20.65625 54.257812 20.671875 C 54.34375 20.726562 54.433594 20.785156 54.519531 20.839844 C 54.539062 20.847656 54.554688 20.859375 54.570312 20.871094 C 54.671875 20.933594 54.769531 21 54.867188 21.066406 C 54.871094 21.066406 54.871094 21.066406 54.871094 21.066406 C 54.972656 21.132812 55.074219 21.199219 55.171875 21.269531 C 55.1875 21.277344 55.203125 21.289062 55.21875 21.300781 C 55.304688 21.359375 55.386719 21.414062 55.46875 21.472656 C 55.613281 21.574219 55.757812 21.679688 55.898438 21.785156 C 55.972656 21.835938 56.042969 21.890625 56.117188 21.945312 C 56.160156 21.980469 56.203125 22.011719 56.246094 22.046875 C 56.347656 22.121094 56.445312 22.199219 56.542969 22.277344 C 56.621094 22.335938 56.695312 22.398438 56.769531 22.457031 C 56.785156 22.472656 56.800781 22.484375 56.816406 22.496094 C 56.910156 22.574219 57.003906 22.652344 57.09375 22.726562 C 57.1875 22.804688 57.277344 22.882812 57.367188 22.960938 C 57.410156 23 57.453125 23.039062 57.5 23.074219 C 57.574219 23.144531 57.652344 23.210938 57.730469 23.28125 C 57.816406 23.363281 57.90625 23.441406 57.996094 23.527344 C 58 23.53125 58.007812 23.535156 58.011719 23.542969 C 58.09375 23.617188 58.175781 23.695312 58.257812 23.773438 C 58.441406 23.949219 58.625 24.132812 58.804688 24.316406 C 58.84375 24.355469 58.882812 24.398438 58.921875 24.4375 C 58.984375 24.5 59.046875 24.566406 59.105469 24.628906 C 59.152344 24.675781 59.195312 24.726562 59.242188 24.777344 C 59.257812 24.792969 59.273438 24.808594 59.289062 24.828125 C 59.390625 24.9375 59.492188 25.050781 59.59375 25.164062 C 59.640625 25.214844 59.6875 25.269531 59.734375 25.324219 C 59.953125 25.574219 60.167969 25.832031 60.378906 26.09375 C 60.425781 26.152344 60.472656 26.214844 60.519531 26.273438 C 60.570312 26.335938 60.617188 26.402344 60.667969 26.464844 C 60.71875 26.527344 60.765625 26.59375 60.8125 26.65625 C 60.917969 26.792969 61.019531 26.929688 61.117188 27.070312 C 61.160156 27.125 61.199219 27.183594 61.242188 27.242188 C 61.316406 27.351562 61.394531 27.460938 61.46875 27.570312 C 61.496094 27.613281 61.527344 27.65625 61.554688 27.695312 C 61.585938 27.746094 61.617188 27.792969 61.648438 27.839844 C 61.695312 27.910156 61.738281 27.976562 61.78125 28.042969 C 61.8125 28.089844 61.84375 28.136719 61.871094 28.183594 C 61.902344 28.230469 61.933594 28.277344 61.964844 28.328125 C 62.027344 28.429688 62.089844 28.53125 62.152344 28.632812 C 62.164062 28.652344 62.175781 28.671875 62.1875 28.691406 C 62.261719 28.816406 62.339844 28.949219 62.414062 29.078125 C 62.453125 29.148438 62.496094 29.21875 62.535156 29.289062 C 62.574219 29.359375 62.613281 29.429688 62.652344 29.5 C 62.730469 29.644531 62.808594 29.785156 62.882812 29.929688 C 62.957031 30.070312 63.03125 30.214844 63.105469 30.363281 C 63.140625 30.433594 63.171875 30.503906 63.207031 30.574219 C 63.210938 30.574219 63.210938 30.578125 63.210938 30.582031 C 63.28125 30.726562 63.351562 30.875 63.421875 31.019531 C 63.453125 31.09375 63.488281 31.167969 63.519531 31.242188 C 63.585938 31.390625 63.652344 31.542969 63.714844 31.691406 C 63.746094 31.765625 63.78125 31.839844 63.808594 31.917969 C 63.839844 31.992188 63.871094 32.070312 63.902344 32.144531 C 63.933594 32.21875 63.960938 32.296875 63.992188 32.371094 C 64.109375 32.679688 64.222656 32.984375 64.328125 33.296875 C 64.355469 33.375 64.378906 33.453125 64.40625 33.53125 C 64.472656 33.742188 64.542969 33.953125 64.605469 34.164062 C 64.621094 34.21875 64.636719 34.277344 64.652344 34.332031 C 64.667969 34.378906 64.679688 34.429688 64.695312 34.480469 C 64.71875 34.558594 64.738281 34.636719 64.761719 34.714844 C 64.804688 34.875 64.84375 35.035156 64.886719 35.195312 C 64.90625 35.277344 64.925781 35.355469 64.945312 35.4375 C 64.957031 35.496094 64.972656 35.554688 64.984375 35.613281 C 64.996094 35.660156 65.007812 35.707031 65.019531 35.757812 C 65.03125 35.8125 65.042969 35.867188 65.054688 35.925781 C 65.070312 35.996094 65.085938 36.066406 65.101562 36.136719 C 65.1875 36.570312 65.265625 37.003906 65.332031 37.441406 C 65.339844 37.511719 65.351562 37.585938 65.363281 37.65625 C 65.367188 37.707031 65.375 37.753906 65.382812 37.804688 C 65.390625 37.859375 65.398438 37.917969 65.40625 37.976562 C 65.414062 38.058594 65.425781 38.140625 65.433594 38.21875 C 65.449219 38.359375 65.464844 38.5 65.476562 38.636719 C 65.5 38.851562 65.515625 39.066406 65.53125 39.277344 C 65.542969 39.417969 65.550781 39.554688 65.558594 39.695312 C 65.570312 39.960938 65.582031 40.230469 65.585938 40.496094 C 65.589844 40.570312 65.589844 40.644531 65.589844 40.71875 C 65.589844 40.804688 65.589844 40.890625 65.589844 40.976562 Z M 65.589844 40.976562 " fill-opacity="1" fill-rule="nonzero"/><path fill="#ffffff" d="M 28.214844 25.804688 C 26.8125 27.910156 25.945312 29.796875 25.542969 29.527344 C 25.140625 29.261719 25.355469 26.941406 26.753906 24.835938 C 28.15625 22.730469 30.214844 21.636719 30.617188 21.90625 C 31.019531 22.171875 29.613281 23.699219 28.214844 25.804688 Z M 28.214844 25.804688 " fill-opacity="1" fill-rule="nonzero"/><path fill="#ffffff" d="M 26.277344 51.707031 C 27.71875 53.347656 29.101562 54.492188 28.78125 54.773438 C 28.457031 55.058594 26.550781 54.371094 25.109375 52.726562 C 23.667969 51.082031 23.242188 49.101562 23.5625 48.820312 C 23.886719 48.539062 24.835938 50.0625 26.277344 51.707031 Z M 26.277344 51.707031 " fill-opacity="1" fill-rule="nonzero"/><path fill="#201f48" d="M 42.171875 53.164062 C 39.101562 53.164062 37.359375 52.722656 34.714844 51.285156 C 34.554688 51.199219 34.449219 51.066406 34.398438 50.894531 C 34.347656 50.71875 34.363281 50.554688 34.449219 50.394531 C 34.535156 50.234375 34.667969 50.128906 34.839844 50.078125 C 35.015625 50.027344 35.183594 50.042969 35.34375 50.128906 C 37.792969 51.460938 39.324219 51.847656 42.171875 51.847656 C 45.3125 51.847656 47.039062 51.339844 49.007812 49.835938 C 49.148438 49.726562 49.3125 49.679688 49.492188 49.707031 C 49.671875 49.730469 49.816406 49.8125 49.925781 49.957031 C 50.039062 50.101562 50.082031 50.261719 50.058594 50.441406 C 50.035156 50.621094 49.949219 50.769531 49.804688 50.878906 C 47.308594 52.789062 45.117188 53.164062 42.171875 53.164062 Z M 42.171875 53.164062 " fill-opacity="1" fill-rule="nonzero"/><path fill="#ffffff" d="M 19.421875 32.566406 C 19.421875 32.398438 19.386719 32.238281 19.3125 32.085938 C 19.238281 31.933594 19.132812 31.804688 19 31.703125 C 18.867188 31.601562 18.714844 31.53125 18.550781 31.5 C 18.382812 31.46875 18.21875 31.472656 18.054688 31.519531 C 15.527344 32.25 14.25 35.046875 14.25 38.390625 C 14.25 41.730469 15.527344 44.53125 18.054688 45.261719 C 18.21875 45.308594 18.382812 45.3125 18.550781 45.28125 C 18.714844 45.25 18.867188 45.179688 19 45.078125 C 19.132812 44.976562 19.238281 44.847656 19.3125 44.695312 C 19.386719 44.542969 19.421875 44.382812 19.421875 44.214844 Z M 19.421875 32.566406 " fill-opacity="1" fill-rule="nonzero"/><path fill="#eeeeee" d="M 64.996094 32.863281 L 66.660156 32.847656 L 66.546875 22.453125 L 66.53125 20.9375 L 66.511719 18.925781 L 64.84375 18.945312 L 64.867188 20.800781 L 64.871094 21.242188 L 64.882812 22.445312 L 64.886719 22.65625 Z M 64.996094 32.863281 " fill-opacity="1" fill-rule="nonzero"/><path fill="#cfd3d8" d="M 64.882812 22.445312 C 65.445312 22.601562 66 22.578125 66.546875 22.378906 L 66.53125 20.9375 C 65.960938 21.066406 65.40625 21.019531 64.867188 20.800781 L 64.871094 21.242188 Z M 64.882812 22.445312 " fill-opacity="1" fill-rule="nonzero"/><path fill="#ffffff" d="M 65.847656 16.828125 C 66.164062 16.859375 66.460938 16.945312 66.738281 17.09375 C 67.019531 17.238281 67.257812 17.433594 67.460938 17.679688 C 67.664062 17.921875 67.8125 18.195312 67.90625 18.5 C 68 18.804688 68.03125 19.113281 68.003906 19.429688 C 67.976562 19.746094 67.886719 20.046875 67.742188 20.328125 C 67.597656 20.609375 67.402344 20.855469 67.160156 21.058594 C 66.917969 21.261719 66.644531 21.414062 66.34375 21.507812 C 66.042969 21.601562 65.738281 21.636719 65.421875 21.609375 C 65.109375 21.582031 64.8125 21.492188 64.53125 21.347656 C 64.253906 21.199219 64.011719 21.003906 63.808594 20.757812 C 63.609375 20.515625 63.460938 20.242188 63.367188 19.9375 C 63.273438 19.636719 63.238281 19.324219 63.265625 19.007812 C 63.296875 18.691406 63.382812 18.390625 63.527344 18.109375 C 63.675781 17.828125 63.871094 17.585938 64.109375 17.378906 C 64.351562 17.175781 64.625 17.027344 64.925781 16.929688 C 65.226562 16.835938 65.535156 16.800781 65.847656 16.828125 Z M 65.847656 16.828125 " fill-opacity="1" fill-rule="nonzero"/><path fill="#cfd3d8" d="M 67.480469 17.667969 C 67.171875 17.296875 66.789062 17.039062 66.324219 16.898438 C 65.863281 16.757812 65.402344 16.757812 64.9375 16.898438 C 65.351562 17.039062 65.699219 17.269531 65.988281 17.597656 C 66.273438 17.925781 66.460938 18.304688 66.542969 18.730469 C 66.625 19.160156 66.59375 19.578125 66.449219 19.992188 C 66.304688 20.402344 66.066406 20.75 65.734375 21.03125 C 65.492188 21.234375 65.21875 21.382812 64.914062 21.476562 C 65.304688 21.605469 65.703125 21.636719 66.105469 21.558594 C 66.507812 21.484375 66.871094 21.316406 67.183594 21.050781 C 67.425781 20.847656 67.621094 20.601562 67.769531 20.320312 C 67.914062 20.039062 68 19.738281 68.027344 19.421875 C 68.058594 19.105469 68.023438 18.792969 67.929688 18.492188 C 67.832031 18.1875 67.683594 17.914062 67.480469 17.667969 Z M 67.480469 17.667969 " fill-opacity="1" fill-rule="nonzero"/><path fill="#ffffff" d="M 64.105469 32.566406 C 64.105469 32.398438 64.144531 32.238281 64.21875 32.085938 C 64.292969 31.933594 64.394531 31.804688 64.53125 31.703125 C 64.664062 31.601562 64.816406 31.53125 64.980469 31.5 C 65.148438 31.46875 65.3125 31.472656 65.472656 31.519531 C 68.003906 32.25 69.28125 35.046875 69.28125 38.390625 C 69.28125 41.730469 68.003906 44.53125 65.472656 45.261719 C 65.3125 45.308594 65.148438 45.3125 64.980469 45.28125 C 64.816406 45.25 64.664062 45.179688 64.53125 45.078125 C 64.394531 44.976562 64.292969 44.847656 64.21875 44.695312 C 64.144531 44.542969 64.105469 44.382812 64.105469 44.214844 Z M 64.105469 32.566406 " fill-opacity="1" fill-rule="nonzero"/><path fill="#cfd3d8" d="M 57.421875 62.488281 C 57.386719 62.414062 57.355469 62.34375 57.324219 62.273438 C 57.613281 62.230469 57.894531 62.1875 58.167969 62.144531 C 61.175781 61.652344 63.320312 61.027344 64.207031 60.328125 C 64.480469 60.117188 64.632812 59.894531 64.65625 59.671875 C 64.65625 59.648438 64.660156 59.628906 64.660156 59.605469 C 64.660156 59.523438 64.640625 59.441406 64.609375 59.363281 C 64.652344 59.359375 64.695312 59.355469 64.738281 59.351562 C 64.9375 59.335938 65.140625 59.335938 65.339844 59.34375 C 65.132812 59.429688 64.96875 59.5625 64.84375 59.746094 C 64.722656 59.933594 64.660156 60.136719 64.660156 60.355469 L 64.660156 72.003906 C 64.660156 72.277344 64.75 72.515625 64.929688 72.722656 C 65.105469 72.925781 65.332031 73.046875 65.601562 73.085938 C 65.265625 73.339844 64.925781 73.589844 64.582031 73.832031 C 63.25 74.78125 61.859375 75.644531 60.417969 76.417969 C 60.332031 71.714844 59.441406 66.988281 57.421875 62.488281 Z M 57.421875 62.488281 " fill-opacity="1" fill-rule="nonzero"/><path fill="#cfd3d8" d="M 55.789062 38.347656 C 55.785156 38.75 55.71875 39.144531 55.589844 39.527344 C 55.460938 39.90625 55.273438 40.261719 55.027344 40.582031 C 54.785156 40.902344 54.496094 41.179688 54.164062 41.410156 C 53.832031 41.636719 53.472656 41.808594 53.082031 41.921875 C 52.695312 42.035156 52.300781 42.085938 51.898438 42.070312 C 51.492188 42.054688 51.101562 41.980469 50.722656 41.839844 C 50.34375 41.699219 49.996094 41.5 49.683594 41.25 C 49.367188 40.996094 49.097656 40.703125 48.878906 40.363281 C 53.699219 42.46875 55.164062 38.1875 55.570312 37.085938 C 55.71875 37.492188 55.789062 37.914062 55.789062 38.347656 Z M 55.789062 38.347656 " fill-opacity="1" fill-rule="nonzero"/><path fill="#ffffff" d="M 31.8125 34.710938 C 32.296875 34.792969 32.753906 34.960938 33.171875 35.222656 C 33.59375 35.480469 33.949219 35.8125 34.238281 36.210938 C 34.527344 36.613281 34.726562 37.054688 34.839844 37.535156 C 34.953125 38.015625 34.972656 38.5 34.890625 38.988281 C 34.8125 39.476562 34.644531 39.929688 34.382812 40.347656 C 34.125 40.769531 33.792969 41.125 33.394531 41.414062 C 32.992188 41.703125 32.550781 41.902344 32.070312 42.015625 C 31.589844 42.128906 31.105469 42.148438 30.617188 42.070312 C 30.128906 41.988281 29.675781 41.820312 29.253906 41.558594 C 28.835938 41.300781 28.480469 40.96875 28.191406 40.570312 C 27.902344 40.167969 27.703125 39.726562 27.585938 39.246094 C 27.472656 38.765625 27.457031 38.28125 27.535156 37.792969 C 27.617188 37.304688 27.785156 36.851562 28.042969 36.433594 C 28.304688 36.011719 28.632812 35.65625 29.035156 35.367188 C 29.4375 35.078125 29.878906 34.878906 30.359375 34.765625 C 30.839844 34.652344 31.324219 34.632812 31.8125 34.710938 Z M 31.8125 34.710938 " fill-opacity="1" fill-rule="nonzero"/><path fill="#cfd3d8" d="M 34.976562 38.390625 C 34.972656 38.792969 34.90625 39.1875 34.773438 39.570312 C 34.644531 39.953125 34.457031 40.304688 34.214844 40.625 C 33.96875 40.949219 33.683594 41.222656 33.347656 41.453125 C 33.015625 41.683594 32.65625 41.851562 32.269531 41.964844 C 31.882812 42.078125 31.484375 42.128906 31.082031 42.113281 C 30.679688 42.101562 30.289062 42.023438 29.910156 41.882812 C 29.53125 41.742188 29.183594 41.546875 28.867188 41.292969 C 28.550781 41.039062 28.285156 40.746094 28.066406 40.40625 C 32.886719 42.511719 34.351562 38.230469 34.757812 37.128906 C 34.902344 37.539062 34.976562 37.957031 34.976562 38.390625 Z M 34.976562 38.390625 " fill-opacity="1" fill-rule="nonzero"/></svg>