<svg id="Layer_1" data-name="Layer 1" xmlns="http://www.w3.org/2000/svg" viewBox="0 0 796.27 150.89"><defs><style>.cls-1{fill:#ff0101;}</style></defs><path class="cls-1" d="M286.3,84.39v25.7h-12V40.8h26.51q11.61,0,18.44,6.05t6.83,16q0,10.19-6.68,15.86t-18.73,5.67Zm0-9.71h14.47c4.29,0,7.55-1,9.81-3S314,66.73,314,62.93a12,12,0,0,0-3.43-9q-3.43-3.36-9.42-3.46H286.3Z"/><path class="cls-1" d="M348.6,100.48h31.46v9.61h-43.5V40.8h12Z"/><path class="cls-1" d="M429,94H402.15l-5.62,16.13H384L410.19,40.8H421l26.23,69.29H434.65Zm-23.47-9.71h20.09l-10-28.75Z"/><path class="cls-1" d="M470.54,73.64,486.48,40.8h13.33L476.58,84.58v25.51H464.49V84.58L441.22,40.8h13.37Z"/><path class="cls-1" d="M556,95,573.63,40.8h13.23l-24.94,69.29H550.26L525.41,40.8H538.6Z"/><path class="cls-1" d="M607.37,110.09h-12V40.8h12Z"/><path class="cls-1" d="M622.17,110.09V40.8h20.47a32.11,32.11,0,0,1,16.3,4.09A28,28,0,0,1,670,56.5a36.92,36.92,0,0,1,3.9,17.23v3.48a36.68,36.68,0,0,1-3.93,17.32,27.6,27.6,0,0,1-11.18,11.52,33.69,33.69,0,0,1-16.64,4Zm12-59.59v50h7.85q9.48,0,14.55-5.93t5.16-17V73.68q0-11.28-4.9-17.23t-14.23-6Z"/><path class="cls-1" d="M726.35,79.16H697.89v21.32h33.27v9.61H685.85V40.8h45v9.7H697.89V69.64h28.46Z"/><path class="cls-1" d="M796.27,77.25a42.62,42.62,0,0,1-3.52,17.87,26.68,26.68,0,0,1-10.07,11.81,29.57,29.57,0,0,1-30.08,0A27.08,27.08,0,0,1,742.42,95.2a41.26,41.26,0,0,1-3.65-17.57v-3.9a42,42,0,0,1,3.6-17.89A26.93,26.93,0,0,1,752.51,44a27.61,27.61,0,0,1,15-4.12,27.9,27.9,0,0,1,15,4.07,26.74,26.74,0,0,1,10.11,11.71,42,42,0,0,1,3.62,17.78Zm-12-3.61q0-11.52-4.36-17.66t-12.35-6.14A14.23,14.23,0,0,0,755.31,56q-4.39,6.12-4.49,17.3v4q0,11.43,4.45,17.66a14.31,14.31,0,0,0,12.35,6.24q8,0,12.3-6.1t4.31-17.8Z"/><path class="cls-1" d="M169,0H44.29A44.29,44.29,0,0,0,0,44.29V106.6a44.29,44.29,0,0,0,44.29,44.29H169a44.28,44.28,0,0,0,44.28-44.29V44.29A44.28,44.28,0,0,0,169,0ZM139,78.48,80.69,106.29a2.35,2.35,0,0,1-3.35-2.12V46.82a2.34,2.34,0,0,1,3.4-2.09l58.31,29.55A2.34,2.34,0,0,1,139,78.48Z"/></svg>