<!-- Generated by IcoMoon.io -->
<svg version="1.1" xmlns="http://www.w3.org/2000/svg" width="1024" height="1024" viewBox="0 0 1024 1024">
<title></title>
<g id="icomoon-ignore">
</g>
<path d="M512 166.4c-102.4 0-185.6 83.2-185.6 185.6 0 19.2 16 35.2 35.2 35.2s35.2-16 35.2-35.2c0-60.8 51.2-112 112-112s112 51.2 112 112c0 38.4-32 89.6-83.2 108.8-38.4 16-67.2 51.2-67.2 92.8v44.8c0 19.2 16 35.2 35.2 35.2s35.2-16 35.2-35.2v-44.8c0-12.8 6.4-22.4 19.2-25.6 73.6-25.6 131.2-102.4 131.2-176 6.4-102.4-76.8-185.6-179.2-185.6zM512 720c-25.6 0-44.8 19.2-44.8 44.8s19.2 44.8 44.8 44.8c25.6 0 44.8-19.2 44.8-44.8s-19.2-44.8-44.8-44.8zM512 0c-281.6 0-512 230.4-512 512s230.4 512 512 512 512-230.4 512-512-230.4-512-512-512zM512 950.4c-243.2 0-441.6-198.4-441.6-441.6s198.4-441.6 441.6-441.6c243.2 0 441.6 198.4 441.6 441.6 0 246.4-198.4 441.6-441.6 441.6z"></path>
</svg>
