<svg xmlns="http://www.w3.org/2000/svg" xmlns:xlink="http://www.w3.org/1999/xlink" width="1820" zoomAndPan="magnify" viewBox="0 0 1365 205.499994" height="274" preserveAspectRatio="xMidYMid meet" version="1.0"><defs><g/><clipPath id="0f5319875e"><path d="M 34.324219 0 L 239.328125 0 L 239.328125 205 L 34.324219 205 Z M 34.324219 0 " clip-rule="nonzero"/></clipPath></defs><g fill="#263151" fill-opacity="1"><g transform="translate(500.30896, 159.661547)"><g><path d="M 0 0 L 30.171875 -102.921875 L 72.625 -102.921875 L 102.78125 0 L 75.140625 0 L 69.96875 -20.53125 L 32.8125 -20.53125 L 27.65625 0 Z M 37.984375 -40.640625 L 64.796875 -40.640625 L 53.90625 -83.234375 L 48.875 -83.234375 Z M 37.984375 -40.640625 "/></g></g></g><g fill="#263151" fill-opacity="1"><g transform="translate(617.059163, 159.661547)"><g><path d="M 9.078125 0 L 9.078125 -102.921875 L 35.1875 -102.921875 L 35.1875 0 Z M 9.078125 0 "/></g></g></g><g fill="#263151" fill-opacity="1"><g transform="translate(675.295014, 159.661547)"><g><path d="M 6.28125 0 L 6.28125 -17.3125 L 40.640625 -55.171875 L 9.5 -55.171875 L 9.5 -72.90625 L 75.828125 -72.90625 L 75.828125 -55.171875 L 41.75 -17.875 L 76.953125 -17.875 L 76.953125 0 Z M 6.28125 0 "/></g></g></g><g fill="#263151" fill-opacity="1"><g transform="translate(773.192156, 159.661547)"><g><path d="M 9.078125 -29.609375 L 9.078125 -48.1875 L 55.171875 -48.1875 L 55.171875 -29.609375 Z M 9.078125 -29.609375 "/></g></g></g><g fill="#263151" fill-opacity="1"><g transform="translate(851.398291, 159.661547)"><g><path d="M 9.78125 0 L 9.78125 -102.921875 L 78.484375 -102.921875 L 93.984375 -87.421875 L 93.984375 -62.703125 L 87 -55.578125 L 98.03125 -45.25 L 98.03125 -15.5 L 82.53125 0 Z M 35.890625 -62.984375 L 64.109375 -62.984375 L 68.984375 -67.875 L 68.984375 -78.203125 L 64.109375 -83.09375 L 35.890625 -83.09375 Z M 35.890625 -19.828125 L 67.03125 -19.828125 L 71.921875 -24.71875 L 71.921875 -39.9375 L 67.03125 -44.828125 L 35.890625 -44.828125 Z M 35.890625 -19.828125 "/></g></g></g><g fill="#263151" fill-opacity="1"><g transform="translate(969.684685, 159.661547)"><g><path d="M 22.484375 0 L 6.984375 -15.5 L 6.984375 -57.40625 L 22.484375 -72.90625 L 68.015625 -72.90625 L 83.515625 -57.40625 L 83.515625 -15.5 L 68.015625 0 Z M 37.984375 -14.53125 L 52.515625 -14.53125 L 57.40625 -19.546875 L 57.40625 -53.484375 L 52.515625 -58.375 L 37.984375 -58.375 L 33.09375 -53.484375 L 33.09375 -19.546875 Z M 37.984375 -14.53125 "/></g></g></g><g fill="#263151" fill-opacity="1"><g transform="translate(1074.145465, 159.661547)"><g><path d="M 24.15625 0 L 9.5 -13.546875 L 9.5 -56.703125 L 4.1875 -56.703125 L 4.1875 -72.90625 L 10.46875 -72.90625 L 18.4375 -93.703125 L 35.609375 -93.703125 L 35.609375 -72.90625 L 47.0625 -72.90625 L 47.0625 -56.703125 L 35.609375 -56.703125 L 35.609375 -20.390625 L 39.390625 -16.625 L 50 -16.625 L 50 0 Z M 24.15625 0 "/></g></g></g><g clip-path="url(#0f5319875e)"><path fill="#201f48" d="M 239.34375 102.507812 C 239.34375 104.1875 239.300781 105.863281 239.21875 107.539062 C 239.136719 109.214844 239.015625 110.886719 238.851562 112.558594 C 238.6875 114.226562 238.480469 115.890625 238.234375 117.550781 C 237.988281 119.210938 237.703125 120.863281 237.375 122.507812 C 237.046875 124.152344 236.679688 125.789062 236.273438 127.417969 C 235.863281 129.042969 235.417969 130.660156 234.929688 132.265625 C 234.441406 133.871094 233.917969 135.464844 233.351562 137.042969 C 232.785156 138.621094 232.183594 140.1875 231.539062 141.738281 C 230.898438 143.289062 230.21875 144.820312 229.5 146.335938 C 228.785156 147.855469 228.03125 149.351562 227.238281 150.832031 C 226.449219 152.3125 225.621094 153.769531 224.757812 155.210938 C 223.898438 156.648438 223 158.066406 222.066406 159.460938 C 221.136719 160.855469 220.171875 162.226562 219.171875 163.574219 C 218.171875 164.921875 217.140625 166.242188 216.074219 167.539062 C 215.011719 168.835938 213.914062 170.105469 212.789062 171.351562 C 211.664062 172.59375 210.503906 173.808594 209.320312 174.992188 C 208.132812 176.179688 206.917969 177.335938 205.675781 178.464844 C 204.433594 179.589844 203.164062 180.683594 201.867188 181.75 C 200.570312 182.8125 199.246094 183.847656 197.898438 184.84375 C 196.550781 185.84375 195.179688 186.808594 193.785156 187.742188 C 192.390625 188.675781 190.972656 189.570312 189.535156 190.433594 C 188.097656 191.296875 186.636719 192.125 185.15625 192.914062 C 183.675781 193.703125 182.179688 194.460938 180.664062 195.175781 C 179.144531 195.894531 177.613281 196.574219 176.0625 197.214844 C 174.511719 197.855469 172.949219 198.460938 171.367188 199.027344 C 169.789062 199.589844 168.195312 200.117188 166.589844 200.605469 C 164.984375 201.089844 163.371094 201.539062 161.742188 201.945312 C 160.113281 202.355469 158.480469 202.722656 156.832031 203.046875 C 155.1875 203.375 153.535156 203.664062 151.875 203.910156 C 150.214844 204.15625 148.550781 204.359375 146.882812 204.523438 C 145.210938 204.6875 143.539062 204.8125 141.863281 204.894531 C 140.1875 204.976562 138.511719 205.019531 136.835938 205.019531 C 135.15625 205.019531 133.480469 204.976562 131.804688 204.894531 C 130.128906 204.8125 128.457031 204.6875 126.785156 204.523438 C 125.117188 204.359375 123.453125 204.15625 121.792969 203.910156 C 120.132812 203.664062 118.480469 203.375 116.835938 203.046875 C 115.191406 202.722656 113.554688 202.355469 111.925781 201.945312 C 110.300781 201.539062 108.683594 201.089844 107.078125 200.605469 C 105.472656 200.117188 103.878906 199.589844 102.300781 199.027344 C 100.722656 198.460938 99.15625 197.855469 97.605469 197.214844 C 96.054688 196.574219 94.523438 195.894531 93.007812 195.175781 C 91.488281 194.460938 89.992188 193.703125 88.511719 192.914062 C 87.03125 192.125 85.574219 191.296875 84.132812 190.433594 C 82.695312 189.570312 81.277344 188.675781 79.882812 187.742188 C 78.488281 186.808594 77.117188 185.84375 75.769531 184.84375 C 74.421875 183.847656 73.101562 182.8125 71.804688 181.75 C 70.507812 180.683594 69.238281 179.589844 67.992188 178.464844 C 66.75 177.335938 65.535156 176.179688 64.351562 174.992188 C 63.164062 173.808594 62.007812 172.59375 60.878906 171.351562 C 59.753906 170.105469 58.660156 168.835938 57.59375 167.539062 C 56.53125 166.242188 55.496094 164.921875 54.5 163.574219 C 53.5 162.226562 52.535156 160.855469 51.601562 159.460938 C 50.667969 158.066406 49.773438 156.648438 48.910156 155.210938 C 48.046875 153.769531 47.21875 152.3125 46.429688 150.832031 C 45.640625 149.351562 44.882812 147.855469 44.167969 146.335938 C 43.449219 144.820312 42.769531 143.289062 42.128906 141.738281 C 41.488281 140.1875 40.882812 138.621094 40.316406 137.042969 C 39.753906 135.464844 39.226562 133.871094 38.738281 132.265625 C 38.253906 130.660156 37.804688 129.042969 37.398438 127.417969 C 36.988281 125.789062 36.621094 124.152344 36.296875 122.507812 C 35.96875 120.863281 35.679688 119.210938 35.433594 117.550781 C 35.1875 115.890625 34.984375 114.226562 34.820312 112.558594 C 34.65625 110.886719 34.53125 109.214844 34.449219 107.539062 C 34.367188 105.863281 34.324219 104.1875 34.324219 102.507812 C 34.324219 100.832031 34.367188 99.15625 34.449219 97.480469 C 34.53125 95.804688 34.65625 94.132812 34.820312 92.460938 C 34.984375 90.792969 35.1875 89.128906 35.433594 87.46875 C 35.679688 85.808594 35.96875 84.15625 36.296875 82.511719 C 36.621094 80.863281 36.988281 79.230469 37.398438 77.601562 C 37.804688 75.972656 38.253906 74.359375 38.738281 72.753906 C 39.226562 71.148438 39.753906 69.554688 40.316406 67.976562 C 40.882812 66.394531 41.488281 64.832031 42.128906 63.28125 C 42.769531 61.730469 43.449219 60.199219 44.167969 58.679688 C 44.882812 57.164062 45.640625 55.667969 46.429688 54.1875 C 47.21875 52.707031 48.046875 51.246094 48.910156 49.808594 C 49.773438 48.371094 50.667969 46.953125 51.601562 45.558594 C 52.535156 44.164062 53.5 42.792969 54.5 41.445312 C 55.496094 40.097656 56.53125 38.773438 57.59375 37.476562 C 58.660156 36.179688 59.753906 34.910156 60.878906 33.667969 C 62.007812 32.425781 63.164062 31.210938 64.351562 30.023438 C 65.535156 28.839844 66.75 27.679688 67.992188 26.554688 C 69.238281 25.429688 70.507812 24.332031 71.804688 23.269531 C 73.101562 22.203125 74.421875 21.171875 75.769531 20.171875 C 77.117188 19.171875 78.488281 18.207031 79.882812 17.277344 C 81.277344 16.34375 82.695312 15.445312 84.132812 14.585938 C 85.574219 13.722656 87.03125 12.894531 88.511719 12.105469 C 89.992188 11.3125 91.488281 10.558594 93.007812 9.84375 C 94.523438 9.125 96.054688 8.445312 97.605469 7.804688 C 99.15625 7.160156 100.722656 6.558594 102.300781 5.992188 C 103.878906 5.425781 105.472656 4.902344 107.078125 4.414062 C 108.683594 3.925781 110.300781 3.480469 111.925781 3.070312 C 113.554688 2.664062 115.191406 2.296875 116.835938 1.96875 C 118.480469 1.640625 120.132812 1.355469 121.792969 1.109375 C 123.453125 0.863281 125.117188 0.65625 126.785156 0.492188 C 128.457031 0.328125 130.128906 0.207031 131.804688 0.125 C 133.480469 0.0429688 135.15625 0 136.835938 0 C 138.511719 0 140.1875 0.0429688 141.863281 0.125 C 143.539062 0.207031 145.210938 0.328125 146.882812 0.492188 C 148.550781 0.65625 150.214844 0.863281 151.875 1.109375 C 153.535156 1.355469 155.1875 1.640625 156.832031 1.96875 C 158.480469 2.296875 160.113281 2.664062 161.742188 3.070312 C 163.371094 3.480469 164.984375 3.925781 166.589844 4.414062 C 168.195312 4.902344 169.789062 5.425781 171.367188 5.992188 C 172.949219 6.558594 174.511719 7.160156 176.0625 7.804688 C 177.613281 8.445312 179.144531 9.125 180.664062 9.84375 C 182.179688 10.558594 183.675781 11.3125 185.15625 12.105469 C 186.636719 12.894531 188.097656 13.722656 189.535156 14.585938 C 190.972656 15.445312 192.390625 16.34375 193.785156 17.277344 C 195.179688 18.207031 196.550781 19.171875 197.898438 20.171875 C 199.246094 21.171875 200.570312 22.203125 201.867188 23.269531 C 203.164062 24.332031 204.433594 25.429688 205.675781 26.554688 C 206.917969 27.679688 208.132812 28.839844 209.320312 30.023438 C 210.503906 31.210938 211.664062 32.425781 212.789062 33.667969 C 213.914062 34.910156 215.011719 36.179688 216.074219 37.476562 C 217.140625 38.773438 218.171875 40.097656 219.171875 41.445312 C 220.171875 42.792969 221.136719 44.164062 222.066406 45.558594 C 223 46.953125 223.898438 48.371094 224.757812 49.808594 C 225.621094 51.246094 226.449219 52.707031 227.238281 54.1875 C 228.03125 55.667969 228.785156 57.164062 229.5 58.679688 C 230.21875 60.199219 230.898438 61.730469 231.539062 63.28125 C 232.183594 64.832031 232.785156 66.394531 233.351562 67.976562 C 233.917969 69.554688 234.441406 71.148438 234.929688 72.753906 C 235.417969 74.359375 235.863281 75.972656 236.273438 77.601562 C 236.679688 79.230469 237.046875 80.863281 237.375 82.511719 C 237.703125 84.15625 237.988281 85.808594 238.234375 87.46875 C 238.480469 89.128906 238.6875 90.792969 238.851562 92.460938 C 239.015625 94.132812 239.136719 95.804688 239.21875 97.480469 C 239.300781 99.15625 239.34375 100.832031 239.34375 102.507812 Z M 239.34375 102.507812 " fill-opacity="1" fill-rule="nonzero"/></g><path fill="#6dbad9" d="M 232.070312 102.507812 C 232.078125 105.695312 231.921875 108.875 231.605469 112.042969 C 231.289062 115.214844 230.8125 118.359375 230.183594 121.484375 C 229.550781 124.605469 228.761719 127.6875 227.816406 130.734375 C 226.875 133.777344 225.78125 136.765625 224.539062 139.699219 C 223.292969 142.628906 221.90625 145.496094 220.375 148.289062 C 218.839844 151.082031 217.171875 153.789062 215.367188 156.417969 C 213.5625 159.042969 211.628906 161.570312 209.570312 164 C 207.511719 166.433594 205.335938 168.753906 203.042969 170.964844 C 201.085938 172.859375 199.050781 174.667969 196.9375 176.386719 C 196.109375 177.0625 195.273438 177.722656 194.421875 178.367188 C 193.605469 178.988281 192.777344 179.597656 191.941406 180.191406 C 188.683594 182.503906 185.292969 184.609375 181.769531 186.496094 C 179.472656 187.730469 177.121094 188.871094 174.714844 189.914062 C 171.964844 191.101562 169.164062 192.160156 166.316406 193.082031 C 163.464844 194.007812 160.578125 194.796875 157.652344 195.449219 C 154.730469 196.101562 151.78125 196.617188 148.808594 196.992188 C 145.835938 197.367188 142.851562 197.605469 139.855469 197.699219 C 136.863281 197.792969 133.871094 197.75 130.878906 197.5625 C 127.890625 197.375 124.914062 197.050781 121.953125 196.585938 C 118.996094 196.117188 116.0625 195.515625 113.160156 194.773438 C 110.257812 194.03125 107.394531 193.15625 104.574219 192.144531 C 103.757812 191.851562 102.953125 191.546875 102.148438 191.234375 C 100.644531 190.644531 99.160156 190.019531 97.695312 189.355469 C 91.972656 186.773438 86.558594 183.65625 81.457031 180 C 80.574219 179.371094 79.703125 178.726562 78.847656 178.0625 C 77.648438 177.144531 76.476562 176.195312 75.324219 175.214844 C 73.359375 173.554688 71.464844 171.816406 69.640625 170 C 69.289062 169.652344 68.945312 169.300781 68.601562 168.949219 C 66.460938 166.753906 64.429688 164.460938 62.507812 162.070312 C 60.585938 159.679688 58.785156 157.203125 57.105469 154.636719 C 55.425781 152.070312 53.875 149.429688 52.449219 146.714844 C 51.027344 143.996094 49.738281 141.21875 48.582031 138.378906 C 47.425781 135.535156 46.410156 132.648438 45.539062 129.707031 C 44.664062 126.769531 43.933594 123.792969 43.347656 120.78125 C 42.757812 117.773438 42.320312 114.742188 42.027344 111.6875 C 41.734375 108.636719 41.589844 105.574219 41.59375 102.507812 C 41.59375 49.910156 84.238281 7.269531 136.832031 7.269531 C 189.433594 7.269531 232.070312 49.910156 232.070312 102.507812 Z M 232.070312 102.507812 " fill-opacity="1" fill-rule="nonzero"/><path fill="#eeeeee" d="M 197.824219 149.316406 C 197.824219 158.601562 197.535156 167.65625 196.9375 176.386719 C 196.109375 177.0625 195.273438 177.722656 194.421875 178.367188 C 193.605469 178.988281 192.777344 179.597656 191.941406 180.191406 C 188.683594 182.503906 185.292969 184.609375 181.769531 186.496094 C 179.472656 187.730469 177.121094 188.871094 174.714844 189.914062 C 171.964844 191.101562 169.164062 192.160156 166.316406 193.082031 C 163.464844 194.007812 160.578125 194.796875 157.652344 195.449219 C 154.730469 196.101562 151.78125 196.617188 148.808594 196.992188 C 145.835938 197.367188 142.851562 197.605469 139.855469 197.699219 C 136.863281 197.792969 133.871094 197.75 130.878906 197.5625 C 127.890625 197.375 124.914062 197.050781 121.953125 196.585938 C 118.996094 196.117188 116.0625 195.515625 113.160156 194.773438 C 110.257812 194.03125 107.394531 193.15625 104.574219 192.144531 C 103.757812 191.851562 102.953125 191.546875 102.148438 191.234375 C 100.644531 190.644531 99.160156 190.019531 97.695312 189.355469 C 91.972656 186.773438 86.5625 183.65625 81.457031 180 C 80.574219 179.371094 79.703125 178.726562 78.847656 178.0625 C 77.648438 177.144531 76.476562 176.195312 75.324219 175.214844 C 75.003906 169.921875 74.796875 164.503906 74.6875 158.996094 C 74.621094 155.800781 74.585938 152.574219 74.589844 149.316406 C 74.589844 146.847656 75.527344 145.394531 77.273438 144.664062 C 78.558594 144.195312 79.886719 143.996094 81.253906 144.074219 C 91.433594 144.203125 112.214844 152.371094 136.207031 152.371094 C 148.417969 152.371094 159.804688 153.207031 169.382812 151.070312 C 170.390625 150.847656 171.378906 150.589844 172.347656 150.292969 C 180.65625 147.757812 187.398438 145.328125 191.859375 144.886719 C 191.90625 144.882812 191.957031 144.875 192 144.875 C 192.109375 144.863281 192.214844 144.855469 192.320312 144.847656 C 192.628906 144.824219 192.925781 144.8125 193.214844 144.8125 C 193.410156 144.8125 193.601562 144.820312 193.789062 144.832031 C 196.394531 144.992188 197.824219 146.269531 197.824219 149.316406 Z M 197.824219 149.316406 " fill-opacity="1" fill-rule="nonzero"/><path fill="#ffffff" d="M 192.125 145.789062 C 192.125 146.417969 191.746094 147.027344 191.019531 147.617188 C 188.859375 149.378906 183.628906 150.960938 176.289062 152.203125 C 175.617188 152.316406 174.929688 152.425781 174.226562 152.535156 C 174.121094 152.550781 174.015625 152.566406 173.910156 152.582031 C 163.96875 154.078125 150.730469 154.988281 136.203125 154.988281 C 105.320312 154.988281 80.28125 150.867188 80.28125 145.789062 C 80.28125 142.675781 89.691406 139.921875 104.089844 138.257812 C 105.902344 138.046875 107.792969 137.851562 109.761719 137.683594 C 111 137.574219 112.269531 137.472656 113.566406 137.375 C 120.488281 136.871094 128.148438 136.589844 136.203125 136.589844 C 162.886719 136.589844 185.207031 139.664062 190.78125 143.777344 C 190.882812 143.847656 190.976562 143.921875 191.0625 143.992188 C 191.472656 144.308594 191.785156 144.703125 192.003906 145.171875 C 192.082031 145.371094 192.125 145.574219 192.125 145.789062 Z M 192.125 145.789062 " fill-opacity="1" fill-rule="nonzero"/><path fill="#6dbad9" d="M 174.714844 177.015625 L 174.714844 189.914062 C 171.964844 191.101562 169.164062 192.160156 166.316406 193.082031 C 163.464844 194.007812 160.578125 194.796875 157.652344 195.449219 C 154.730469 196.101562 151.78125 196.617188 148.808594 196.992188 C 145.835938 197.367188 142.851562 197.605469 139.855469 197.699219 C 136.863281 197.792969 133.871094 197.75 130.878906 197.5625 C 127.890625 197.375 124.914062 197.050781 121.953125 196.585938 C 118.996094 196.117188 116.0625 195.515625 113.160156 194.773438 C 110.257812 194.03125 107.394531 193.15625 104.574219 192.144531 C 103.757812 191.851562 102.953125 191.546875 102.148438 191.234375 C 100.644531 190.644531 99.160156 190.019531 97.695312 189.355469 L 97.695312 177.015625 C 97.695312 176.488281 97.746094 175.96875 97.851562 175.453125 C 97.953125 174.9375 98.105469 174.4375 98.308594 173.953125 C 98.511719 173.464844 98.757812 173.003906 99.050781 172.566406 C 99.34375 172.132812 99.675781 171.726562 100.046875 171.355469 C 100.417969 170.984375 100.824219 170.652344 101.257812 170.359375 C 101.695312 170.066406 102.15625 169.820312 102.644531 169.617188 C 103.128906 169.414062 103.628906 169.261719 104.144531 169.160156 C 104.660156 169.054688 105.179688 169.003906 105.707031 169 C 105.707031 169 108.789062 170.351562 114.90625 171.570312 C 120.324219 172.621094 125.792969 173.230469 131.308594 173.40625 C 132.867188 173.464844 134.5 173.492188 136.207031 173.496094 C 137.683594 173.496094 139.097656 173.472656 140.460938 173.429688 C 146.078125 173.304688 151.644531 172.726562 157.167969 171.707031 C 159.609375 171.253906 162.007812 170.644531 164.371094 169.886719 C 165.167969 169.636719 165.945312 169.339844 166.707031 169 C 167.691406 169 168.644531 169.179688 169.5625 169.53125 C 170.863281 170.035156 171.957031 170.824219 172.851562 171.890625 C 173.453125 172.609375 173.914062 173.410156 174.234375 174.289062 C 174.554688 175.171875 174.714844 176.078125 174.714844 177.015625 Z M 174.714844 177.015625 " fill-opacity="1" fill-rule="nonzero"/><path fill="#ffffff" d="M 104.574219 192.144531 C 103.757812 191.851562 102.953125 191.546875 102.148438 191.234375 C 102.074219 190.269531 102.035156 189.257812 102.039062 188.207031 C 102.078125 182.007812 103.699219 176.988281 104.394531 176.988281 C 105.082031 176.992188 104.589844 182.019531 104.550781 188.222656 C 104.542969 189.601562 104.554688 190.925781 104.574219 192.144531 Z M 104.574219 192.144531 " fill-opacity="1" fill-rule="nonzero"/><path fill="#ffffff" d="M 80.230469 147.300781 L 80.230469 175.730469 C 80.230469 176.214844 80.105469 176.667969 79.855469 177.085938 C 79.609375 177.503906 79.273438 177.828125 78.847656 178.0625 C 77.648438 177.144531 76.476562 176.195312 75.324219 175.214844 C 73.359375 173.554688 71.464844 171.816406 69.640625 170 C 69.289062 169.652344 68.945312 169.300781 68.601562 168.949219 C 67.914062 166.519531 67.582031 164.039062 67.605469 161.515625 C 67.605469 153.359375 70.71875 146.527344 76.894531 144.746094 C 77.019531 144.710938 77.144531 144.683594 77.273438 144.664062 C 77.691406 144.609375 78.097656 144.65625 78.492188 144.804688 C 79.015625 144.996094 79.433594 145.324219 79.753906 145.78125 C 80.070312 146.238281 80.230469 146.742188 80.230469 147.300781 Z M 80.230469 147.300781 " fill-opacity="1" fill-rule="nonzero"/><path fill="#ffffff" d="M 204.75 161.515625 C 204.757812 163.226562 204.609375 164.921875 204.304688 166.605469 C 204.058594 168.007812 203.675781 169.367188 203.15625 170.691406 C 203.121094 170.785156 203.082031 170.875 203.042969 170.964844 C 201.085938 172.859375 199.050781 174.667969 196.9375 176.386719 C 196.109375 177.0625 195.273438 177.722656 194.421875 178.367188 C 194.101562 178.320312 193.804688 178.222656 193.519531 178.070312 C 193.238281 177.917969 192.992188 177.71875 192.78125 177.476562 C 192.570312 177.234375 192.410156 176.964844 192.296875 176.664062 C 192.183594 176.363281 192.125 176.050781 192.125 175.730469 L 192.125 147.300781 C 192.125 146.757812 192.277344 146.261719 192.582031 145.8125 C 192.882812 145.363281 193.285156 145.035156 193.785156 144.832031 C 193.8125 144.820312 193.835938 144.8125 193.863281 144.804688 C 194.390625 144.605469 194.921875 144.589844 195.460938 144.746094 C 198.882812 145.734375 201.367188 148.269531 202.898438 151.726562 C 203.632812 153.429688 204.140625 155.195312 204.414062 157.027344 C 204.640625 158.515625 204.753906 160.011719 204.75 161.515625 Z M 204.75 161.515625 " fill-opacity="1" fill-rule="nonzero"/><path fill="#cfd3d8" d="M 80.230469 147.300781 L 80.230469 175.730469 C 80.230469 176.214844 80.105469 176.667969 79.855469 177.085938 C 79.609375 177.503906 79.273438 177.828125 78.847656 178.0625 C 77.648438 177.144531 76.476562 176.195312 75.324219 175.214844 C 73.359375 173.554688 71.464844 171.816406 69.640625 170 C 69.84375 169.6875 70.046875 169.375 70.21875 169.078125 C 71.289062 167.214844 72.238281 165.292969 73.0625 163.308594 C 73.65625 161.890625 74.191406 160.449219 74.6875 158.996094 C 75.570312 156.394531 76.3125 153.742188 76.992188 151.082031 C 77.523438 148.996094 78.011719 146.898438 78.492188 144.804688 C 79.015625 144.996094 79.433594 145.324219 79.753906 145.78125 C 80.070312 146.238281 80.230469 146.742188 80.230469 147.300781 Z M 80.230469 147.300781 " fill-opacity="1" fill-rule="nonzero"/><path fill="#eeeeee" d="M 79.554688 80.207031 L 75.496094 80.160156 L 75.769531 54.800781 L 75.808594 51.101562 L 75.863281 46.191406 L 79.925781 46.234375 L 79.875 50.761719 L 79.863281 51.84375 L 79.832031 54.78125 L 79.824219 55.296875 Z M 79.554688 80.207031 " fill-opacity="1" fill-rule="nonzero"/><path fill="#cfd3d8" d="M 79.832031 54.78125 C 78.460938 55.160156 77.105469 55.105469 75.773438 54.613281 L 75.808594 51.101562 C 77.199219 51.414062 78.554688 51.300781 79.875 50.761719 L 79.863281 51.84375 Z M 79.832031 54.78125 " fill-opacity="1" fill-rule="nonzero"/><path fill="#ffffff" d="M 78.457031 41.070312 C 78.835938 41.105469 79.210938 41.175781 79.574219 41.285156 C 79.941406 41.390625 80.292969 41.535156 80.628906 41.710938 C 80.96875 41.890625 81.285156 42.097656 81.582031 42.339844 C 81.878906 42.582031 82.148438 42.847656 82.390625 43.144531 C 82.636719 43.4375 82.851562 43.753906 83.03125 44.089844 C 83.214844 44.429688 83.363281 44.78125 83.476562 45.148438 C 83.589844 45.515625 83.667969 45.886719 83.707031 46.269531 C 83.75 46.652344 83.753906 47.035156 83.71875 47.417969 C 83.683594 47.800781 83.613281 48.175781 83.503906 48.546875 C 83.398438 48.914062 83.257812 49.269531 83.078125 49.609375 C 82.902344 49.953125 82.695312 50.273438 82.457031 50.570312 C 82.214844 50.871094 81.949219 51.144531 81.65625 51.390625 C 81.367188 51.636719 81.050781 51.855469 80.71875 52.039062 C 80.382812 52.222656 80.035156 52.371094 79.671875 52.488281 C 79.304688 52.605469 78.933594 52.683594 78.554688 52.722656 C 78.175781 52.765625 77.796875 52.769531 77.417969 52.734375 C 77.039062 52.703125 76.667969 52.628906 76.300781 52.523438 C 75.933594 52.414062 75.582031 52.273438 75.246094 52.09375 C 74.90625 51.917969 74.589844 51.707031 74.292969 51.464844 C 73.996094 51.226562 73.726562 50.957031 73.484375 50.664062 C 73.238281 50.367188 73.027344 50.050781 72.84375 49.714844 C 72.660156 49.378906 72.511719 49.027344 72.398438 48.660156 C 72.285156 48.292969 72.207031 47.917969 72.167969 47.535156 C 72.125 47.152344 72.125 46.773438 72.15625 46.386719 C 72.191406 46.003906 72.261719 45.628906 72.371094 45.261719 C 72.476562 44.890625 72.621094 44.535156 72.796875 44.195312 C 72.972656 43.855469 73.179688 43.535156 73.421875 43.234375 C 73.660156 42.9375 73.925781 42.664062 74.21875 42.414062 C 74.511719 42.167969 74.824219 41.953125 75.15625 41.769531 C 75.492188 41.582031 75.839844 41.433594 76.207031 41.320312 C 76.570312 41.203125 76.941406 41.125 77.320312 41.082031 C 77.699219 41.042969 78.078125 41.039062 78.457031 41.070312 Z M 78.457031 41.070312 " fill-opacity="1" fill-rule="nonzero"/><path fill="#cfd3d8" d="M 82.441406 43.125 C 82.074219 42.675781 81.652344 42.292969 81.171875 41.972656 C 80.691406 41.652344 80.175781 41.410156 79.625 41.242188 C 79.070312 41.074219 78.507812 40.992188 77.929688 40.992188 C 77.351562 40.992188 76.789062 41.074219 76.234375 41.242188 C 76.730469 41.40625 77.195312 41.636719 77.628906 41.925781 C 78.066406 42.214844 78.453125 42.554688 78.796875 42.949219 C 79.140625 43.34375 79.429688 43.773438 79.65625 44.242188 C 79.886719 44.710938 80.050781 45.203125 80.152344 45.714844 C 80.25 46.226562 80.28125 46.746094 80.242188 47.265625 C 80.203125 47.785156 80.097656 48.292969 79.925781 48.785156 C 79.753906 49.28125 79.519531 49.742188 79.222656 50.171875 C 78.925781 50.601562 78.582031 50.988281 78.183594 51.324219 C 77.589844 51.824219 76.921875 52.183594 76.179688 52.410156 C 77.132812 52.734375 78.101562 52.800781 79.085938 52.617188 C 80.070312 52.433594 80.949219 52.019531 81.71875 51.375 C 82.011719 51.128906 82.28125 50.851562 82.519531 50.554688 C 82.757812 50.253906 82.96875 49.933594 83.144531 49.589844 C 83.320312 49.25 83.460938 48.894531 83.570312 48.523438 C 83.675781 48.15625 83.746094 47.78125 83.78125 47.398438 C 83.8125 47.015625 83.808594 46.632812 83.769531 46.25 C 83.726562 45.867188 83.648438 45.496094 83.535156 45.128906 C 83.417969 44.761719 83.269531 44.410156 83.085938 44.070312 C 82.902344 43.734375 82.6875 43.417969 82.441406 43.125 Z M 82.441406 43.125 " fill-opacity="1" fill-rule="nonzero"/><path fill="#eeeeee" d="M 153.054688 145.308594 C 153.054688 151.835938 145.414062 150.710938 135.992188 150.710938 C 126.566406 150.710938 118.929688 151.835938 118.929688 145.308594 C 118.929688 138.78125 126.566406 133.488281 135.992188 133.488281 C 145.414062 133.488281 153.054688 138.78125 153.054688 145.308594 Z M 153.054688 145.308594 " fill-opacity="1" fill-rule="nonzero"/><path fill="#cfd3d8" d="M 192.125 145.46875 C 192.125 146.074219 191.746094 146.664062 191.019531 147.234375 C 188.859375 148.933594 183.628906 150.460938 176.289062 151.65625 C 175.617188 151.765625 174.929688 151.875 174.226562 151.980469 C 174.121094 151.992188 174.015625 152.007812 173.910156 152.023438 C 172.664062 151.800781 171.425781 151.527344 170.195312 151.25 C 157.417969 148.402344 144.636719 145.554688 131.859375 142.707031 C 125.648438 141.304688 119.550781 139.519531 113.566406 137.347656 C 120.488281 136.859375 128.148438 136.589844 136.203125 136.589844 C 162.886719 136.589844 185.207031 139.558594 190.78125 143.527344 C 190.882812 143.597656 190.976562 143.664062 191.0625 143.734375 C 191.46875 144.035156 191.785156 144.414062 192.003906 144.875 C 192.082031 145.0625 192.125 145.261719 192.125 145.46875 Z M 192.125 145.46875 " fill-opacity="1" fill-rule="nonzero"/><path fill="#eeeeee" d="M 194.402344 100.003906 C 194.402344 100.152344 194.402344 100.300781 194.398438 100.449219 C 194.347656 107.332031 193.089844 113.335938 190.835938 118.523438 C 190.832031 118.53125 190.828125 118.542969 190.820312 118.550781 C 184.902344 132.105469 172.125 140.0625 156.042969 143.441406 C 149.496094 144.765625 142.882812 145.40625 136.207031 145.363281 C 122.78125 145.363281 110.421875 143.058594 100.574219 138.027344 C 86.847656 131.019531 78.011719 118.71875 78.011719 100.003906 C 78.011719 98.449219 78.070312 96.902344 78.195312 95.355469 C 78.320312 93.804688 78.503906 92.265625 78.75 90.734375 C 79 89.203125 79.304688 87.679688 79.675781 86.171875 C 80.042969 84.664062 80.472656 83.175781 80.960938 81.703125 C 81.445312 80.226562 81.992188 78.777344 82.597656 77.347656 C 83.203125 75.917969 83.863281 74.511719 84.578125 73.136719 C 85.292969 71.757812 86.0625 70.414062 86.886719 69.097656 C 87.710938 67.78125 88.585938 66.5 89.515625 65.253906 C 90.441406 64.011719 91.414062 62.804688 92.4375 61.636719 C 93.460938 60.46875 94.527344 59.34375 95.640625 58.261719 C 96.753906 57.179688 97.910156 56.144531 99.105469 55.15625 C 100.300781 54.164062 101.535156 53.222656 102.804688 52.332031 C 104.078125 51.441406 105.382812 50.605469 106.71875 49.816406 C 108.058594 49.03125 109.425781 48.300781 110.824219 47.621094 C 112.21875 46.945312 113.640625 46.324219 115.085938 45.761719 C 116.535156 45.199219 118 44.691406 119.488281 44.246094 C 121.125 43.753906 122.792969 43.335938 124.488281 42.988281 C 132.09375 41.441406 139.707031 41.402344 147.328125 42.871094 C 148.519531 43.101562 149.699219 43.367188 150.867188 43.671875 C 151.144531 43.746094 151.425781 43.820312 151.703125 43.898438 C 151.734375 43.902344 151.761719 43.910156 151.792969 43.921875 C 152.066406 43.996094 152.34375 44.074219 152.617188 44.15625 C 152.625 44.15625 152.632812 44.160156 152.640625 44.164062 C 152.871094 44.230469 153.097656 44.300781 153.328125 44.371094 C 153.558594 44.441406 153.785156 44.511719 154.011719 44.585938 C 154.164062 44.632812 154.316406 44.679688 154.464844 44.734375 C 154.597656 44.777344 154.730469 44.820312 154.863281 44.867188 C 155.03125 44.921875 155.199219 44.980469 155.371094 45.039062 C 155.550781 45.101562 155.726562 45.164062 155.90625 45.230469 C 155.984375 45.257812 156.066406 45.285156 156.144531 45.316406 C 156.335938 45.386719 156.523438 45.457031 156.714844 45.527344 C 156.964844 45.621094 157.214844 45.71875 157.464844 45.816406 C 157.640625 45.882812 157.8125 45.953125 157.984375 46.023438 C 158.019531 46.035156 158.054688 46.046875 158.089844 46.0625 C 158.292969 46.148438 158.496094 46.230469 158.695312 46.316406 C 158.914062 46.40625 159.132812 46.5 159.351562 46.59375 C 159.363281 46.597656 159.371094 46.601562 159.382812 46.605469 C 159.589844 46.695312 159.792969 46.789062 160 46.878906 C 160.195312 46.96875 160.390625 47.054688 160.585938 47.148438 C 161.089844 47.378906 161.585938 47.617188 162.078125 47.863281 C 162.257812 47.949219 162.433594 48.039062 162.609375 48.128906 C 162.800781 48.226562 162.992188 48.324219 163.179688 48.425781 C 163.414062 48.546875 163.648438 48.671875 163.878906 48.796875 C 163.976562 48.847656 164.070312 48.902344 164.164062 48.953125 C 164.34375 49.050781 164.527344 49.152344 164.707031 49.253906 C 164.832031 49.324219 164.953125 49.394531 165.078125 49.464844 C 165.292969 49.589844 165.511719 49.714844 165.726562 49.84375 C 165.734375 49.847656 165.742188 49.851562 165.75 49.855469 C 166.007812 50.007812 166.261719 50.160156 166.515625 50.316406 C 166.589844 50.359375 166.664062 50.40625 166.738281 50.453125 C 166.953125 50.585938 167.167969 50.722656 167.382812 50.859375 C 167.421875 50.882812 167.460938 50.90625 167.503906 50.933594 C 167.75 51.089844 167.992188 51.246094 168.230469 51.40625 C 168.234375 51.40625 168.238281 51.410156 168.238281 51.414062 C 168.488281 51.574219 168.730469 51.738281 168.976562 51.90625 C 169.011719 51.929688 169.050781 51.957031 169.089844 51.984375 C 169.292969 52.121094 169.496094 52.265625 169.695312 52.40625 C 170.046875 52.652344 170.398438 52.90625 170.746094 53.164062 C 170.925781 53.296875 171.101562 53.429688 171.277344 53.558594 C 171.382812 53.640625 171.488281 53.722656 171.59375 53.800781 C 171.835938 53.988281 172.078125 54.175781 172.320312 54.367188 C 172.503906 54.515625 172.6875 54.664062 172.871094 54.808594 C 172.910156 54.84375 172.949219 54.875 172.988281 54.902344 C 173.214844 55.089844 173.441406 55.277344 173.667969 55.464844 C 173.890625 55.65625 174.113281 55.84375 174.328125 56.035156 C 174.4375 56.128906 174.542969 56.222656 174.652344 56.316406 C 174.839844 56.480469 175.023438 56.648438 175.210938 56.816406 C 175.429688 57.011719 175.648438 57.210938 175.863281 57.414062 C 175.878906 57.425781 175.890625 57.441406 175.90625 57.453125 C 176.105469 57.636719 176.304688 57.828125 176.5 58.015625 C 176.957031 58.453125 177.402344 58.894531 177.839844 59.34375 C 177.933594 59.441406 178.03125 59.539062 178.128906 59.640625 C 178.277344 59.796875 178.425781 59.953125 178.570312 60.105469 C 178.683594 60.226562 178.796875 60.34375 178.90625 60.464844 C 178.945312 60.503906 178.984375 60.546875 179.023438 60.589844 C 179.269531 60.859375 179.515625 61.132812 179.761719 61.410156 C 179.761719 61.410156 179.761719 61.410156 179.765625 61.414062 C 179.878906 61.539062 179.992188 61.671875 180.105469 61.800781 C 180.398438 62.136719 180.683594 62.472656 180.96875 62.8125 C 181.207031 63.101562 181.445312 63.390625 181.675781 63.683594 C 181.792969 63.828125 181.90625 63.972656 182.023438 64.121094 C 182.144531 64.273438 182.265625 64.429688 182.386719 64.585938 C 182.503906 64.742188 182.621094 64.898438 182.742188 65.054688 C 182.992188 65.386719 183.238281 65.722656 183.480469 66.0625 C 183.582031 66.203125 183.683594 66.34375 183.78125 66.484375 C 183.972656 66.75 184.160156 67.019531 184.339844 67.289062 C 184.410156 67.386719 184.476562 67.492188 184.546875 67.59375 C 184.625 67.710938 184.703125 67.828125 184.78125 67.945312 C 184.890625 68.113281 185 68.277344 185.105469 68.441406 C 185.179688 68.554688 185.253906 68.671875 185.324219 68.785156 C 185.402344 68.902344 185.476562 69.015625 185.546875 69.132812 C 185.703125 69.378906 185.851562 69.625 186.003906 69.875 C 186.035156 69.921875 186.0625 69.96875 186.089844 70.019531 C 186.277344 70.332031 186.464844 70.648438 186.648438 70.964844 C 186.746094 71.132812 186.84375 71.304688 186.941406 71.476562 C 187.035156 71.648438 187.132812 71.820312 187.230469 71.996094 C 187.417969 72.34375 187.605469 72.691406 187.789062 73.039062 C 187.972656 73.390625 188.152344 73.742188 188.332031 74.097656 C 188.417969 74.269531 188.5 74.441406 188.585938 74.617188 C 188.585938 74.621094 188.589844 74.625 188.59375 74.628906 C 188.765625 74.988281 188.933594 75.347656 189.101562 75.707031 C 189.183594 75.886719 189.265625 76.066406 189.347656 76.25 C 189.511719 76.613281 189.667969 76.976562 189.824219 77.34375 C 189.902344 77.527344 189.976562 77.710938 190.054688 77.894531 C 190.128906 78.078125 190.203125 78.261719 190.277344 78.449219 C 190.351562 78.632812 190.425781 78.820312 190.496094 79.003906 C 190.785156 79.75 191.058594 80.503906 191.316406 81.261719 C 191.378906 81.449219 191.445312 81.640625 191.507812 81.828125 C 191.675781 82.34375 191.835938 82.859375 191.992188 83.382812 C 192.03125 83.515625 192.074219 83.652344 192.113281 83.785156 C 192.144531 83.90625 192.179688 84.023438 192.214844 84.144531 C 192.269531 84.335938 192.320312 84.527344 192.371094 84.71875 C 192.480469 85.113281 192.582031 85.5 192.679688 85.894531 C 192.726562 86.09375 192.773438 86.289062 192.820312 86.484375 C 192.855469 86.625 192.890625 86.769531 192.921875 86.910156 C 192.949219 87.027344 192.976562 87.148438 193 87.265625 C 193.035156 87.402344 193.0625 87.535156 193.089844 87.671875 C 193.128906 87.847656 193.167969 88.023438 193.203125 88.195312 C 193.417969 89.246094 193.605469 90.304688 193.765625 91.375 C 193.792969 91.550781 193.816406 91.726562 193.839844 91.898438 C 193.859375 92.019531 193.875 92.140625 193.890625 92.261719 C 193.910156 92.398438 193.925781 92.539062 193.945312 92.679688 C 193.96875 92.878906 193.996094 93.078125 194.015625 93.273438 C 194.054688 93.613281 194.089844 93.953125 194.125 94.296875 C 194.175781 94.816406 194.21875 95.335938 194.253906 95.859375 C 194.277344 96.195312 194.300781 96.535156 194.316406 96.875 C 194.351562 97.527344 194.378906 98.179688 194.390625 98.835938 C 194.390625 99.011719 194.398438 99.191406 194.398438 99.371094 C 194.398438 99.578125 194.402344 99.792969 194.402344 100.003906 Z M 194.402344 100.003906 " fill-opacity="1" fill-rule="nonzero"/><path fill="#201f48" d="M 177.046875 113.589844 C 177.046875 113.589844 157.464844 115.730469 136.488281 115.730469 C 116.386719 115.730469 95.367188 113.589844 95.367188 113.589844 C 91.289062 113.589844 87.988281 110.152344 87.988281 105.914062 L 87.988281 86.28125 C 87.988281 82.042969 91.289062 78.609375 95.367188 78.609375 C 95.367188 78.609375 116.816406 76.46875 136.488281 76.46875 C 154.898438 76.46875 177.046875 78.609375 177.046875 78.609375 C 181.121094 78.609375 184.425781 82.042969 184.425781 86.28125 L 184.425781 105.914062 C 184.425781 110.152344 181.121094 113.589844 177.046875 113.589844 Z M 177.046875 113.589844 " fill-opacity="1" fill-rule="nonzero"/><path fill="#ffffff" d="M 170.394531 93.585938 C 170.394531 94.183594 170.335938 94.773438 170.21875 95.359375 C 170.101562 95.945312 169.929688 96.511719 169.703125 97.0625 C 169.472656 97.617188 169.195312 98.140625 168.863281 98.636719 C 168.53125 99.132812 168.152344 99.59375 167.730469 100.015625 C 167.308594 100.4375 166.851562 100.8125 166.351562 101.144531 C 165.855469 101.476562 165.332031 101.757812 164.78125 101.984375 C 164.230469 102.214844 163.660156 102.386719 163.074219 102.503906 C 162.488281 102.621094 161.898438 102.675781 161.300781 102.675781 C 160.703125 102.675781 160.113281 102.621094 159.527344 102.503906 C 158.941406 102.386719 158.375 102.214844 157.820312 101.984375 C 157.269531 101.757812 156.746094 101.476562 156.25 101.144531 C 155.753906 100.8125 155.292969 100.4375 154.871094 100.015625 C 154.449219 99.59375 154.074219 99.132812 153.742188 98.636719 C 153.410156 98.140625 153.128906 97.617188 152.902344 97.0625 C 152.671875 96.511719 152.5 95.945312 152.382812 95.359375 C 152.265625 94.773438 152.207031 94.183594 152.207031 93.585938 C 152.207031 92.988281 152.265625 92.394531 152.382812 91.8125 C 152.5 91.226562 152.671875 90.65625 152.902344 90.105469 C 153.128906 89.554688 153.410156 89.027344 153.742188 88.53125 C 154.074219 88.035156 154.449219 87.578125 154.871094 87.15625 C 155.292969 86.734375 155.753906 86.355469 156.25 86.023438 C 156.746094 85.691406 157.269531 85.414062 157.820312 85.183594 C 158.375 84.957031 158.941406 84.78125 159.527344 84.667969 C 160.113281 84.550781 160.703125 84.492188 161.300781 84.492188 C 161.898438 84.492188 162.488281 84.550781 163.074219 84.667969 C 163.660156 84.78125 164.230469 84.957031 164.78125 85.183594 C 165.332031 85.414062 165.855469 85.691406 166.351562 86.023438 C 166.851562 86.355469 167.308594 86.734375 167.730469 87.15625 C 168.152344 87.578125 168.53125 88.035156 168.863281 88.53125 C 169.195312 89.027344 169.472656 89.554688 169.703125 90.105469 C 169.929688 90.65625 170.101562 91.226562 170.21875 91.8125 C 170.335938 92.394531 170.394531 92.988281 170.394531 93.585938 Z M 170.394531 93.585938 " fill-opacity="1" fill-rule="nonzero"/><path fill="#ffffff" d="M 180.96875 62.8125 C 154.433594 60.027344 117.164062 60.625 91.519531 62.722656 C 95.171875 58.339844 99.378906 54.570312 104.140625 51.425781 C 108.90625 48.28125 114.019531 45.886719 119.488281 44.246094 C 121.125 43.753906 122.792969 43.335938 124.488281 42.988281 C 132.09375 41.441406 139.707031 41.402344 147.328125 42.871094 C 148.519531 43.101562 149.699219 43.367188 150.867188 43.671875 C 151.144531 43.746094 151.425781 43.820312 151.703125 43.898438 C 151.734375 43.902344 151.761719 43.910156 151.792969 43.921875 C 152.066406 43.996094 152.34375 44.074219 152.617188 44.15625 C 152.625 44.15625 152.632812 44.160156 152.640625 44.164062 C 152.871094 44.230469 153.097656 44.300781 153.328125 44.371094 C 153.558594 44.441406 153.785156 44.511719 154.011719 44.585938 C 154.164062 44.632812 154.316406 44.679688 154.464844 44.734375 C 154.597656 44.777344 154.730469 44.820312 154.863281 44.867188 C 155.03125 44.921875 155.199219 44.980469 155.371094 45.039062 C 155.550781 45.101562 155.726562 45.164062 155.90625 45.230469 C 155.984375 45.257812 156.066406 45.285156 156.144531 45.316406 C 156.335938 45.386719 156.523438 45.457031 156.714844 45.527344 C 156.964844 45.621094 157.214844 45.71875 157.464844 45.816406 C 157.640625 45.882812 157.8125 45.953125 157.984375 46.023438 C 158.019531 46.035156 158.054688 46.046875 158.089844 46.0625 C 158.292969 46.148438 158.496094 46.230469 158.695312 46.316406 C 158.914062 46.40625 159.132812 46.5 159.351562 46.59375 C 159.363281 46.597656 159.371094 46.601562 159.382812 46.605469 C 159.589844 46.695312 159.792969 46.789062 160 46.878906 C 160.195312 46.96875 160.390625 47.054688 160.585938 47.148438 C 161.089844 47.378906 161.585938 47.617188 162.078125 47.863281 C 162.257812 47.949219 162.433594 48.039062 162.609375 48.128906 C 162.800781 48.226562 162.992188 48.324219 163.179688 48.425781 C 163.414062 48.546875 163.648438 48.671875 163.878906 48.796875 C 163.976562 48.847656 164.070312 48.902344 164.164062 48.953125 C 164.34375 49.050781 164.527344 49.152344 164.707031 49.253906 C 164.832031 49.324219 164.953125 49.394531 165.078125 49.464844 C 165.292969 49.589844 165.511719 49.714844 165.726562 49.84375 C 165.734375 49.847656 165.742188 49.851562 165.75 49.855469 C 166.007812 50.007812 166.261719 50.160156 166.515625 50.316406 C 166.589844 50.359375 166.664062 50.40625 166.738281 50.453125 C 166.953125 50.585938 167.167969 50.722656 167.382812 50.859375 C 167.421875 50.882812 167.460938 50.90625 167.503906 50.933594 C 167.75 51.089844 167.992188 51.246094 168.230469 51.40625 C 168.234375 51.40625 168.238281 51.410156 168.238281 51.414062 C 168.488281 51.574219 168.730469 51.738281 168.976562 51.90625 C 169.011719 51.929688 169.050781 51.957031 169.089844 51.984375 C 169.292969 52.121094 169.496094 52.265625 169.695312 52.40625 C 170.046875 52.652344 170.398438 52.90625 170.746094 53.164062 C 170.925781 53.296875 171.101562 53.429688 171.277344 53.558594 C 171.382812 53.640625 171.488281 53.722656 171.59375 53.800781 C 171.835938 53.988281 172.078125 54.175781 172.320312 54.367188 C 172.503906 54.515625 172.6875 54.664062 172.871094 54.808594 C 172.910156 54.84375 172.949219 54.875 172.988281 54.902344 C 173.214844 55.089844 173.441406 55.277344 173.667969 55.464844 C 173.890625 55.65625 174.113281 55.84375 174.328125 56.035156 C 174.4375 56.128906 174.542969 56.222656 174.652344 56.316406 C 174.839844 56.480469 175.023438 56.648438 175.210938 56.816406 C 175.429688 57.011719 175.648438 57.210938 175.863281 57.414062 C 175.878906 57.425781 175.890625 57.441406 175.90625 57.453125 C 176.105469 57.636719 176.304688 57.828125 176.5 58.015625 C 176.957031 58.453125 177.402344 58.894531 177.839844 59.34375 C 177.933594 59.441406 178.03125 59.539062 178.128906 59.640625 C 178.277344 59.796875 178.425781 59.953125 178.570312 60.105469 C 178.683594 60.226562 178.796875 60.34375 178.90625 60.464844 C 178.945312 60.503906 178.984375 60.546875 179.023438 60.589844 C 179.269531 60.859375 179.515625 61.132812 179.761719 61.410156 C 179.761719 61.410156 179.761719 61.410156 179.765625 61.414062 C 179.878906 61.539062 179.992188 61.671875 180.105469 61.800781 C 180.398438 62.136719 180.683594 62.472656 180.96875 62.8125 Z M 180.96875 62.8125 " fill-opacity="1" fill-rule="nonzero"/><path fill="#cfd3d8" d="M 194.402344 100.003906 C 194.402344 100.152344 194.402344 100.300781 194.398438 100.449219 C 194.28125 106.6875 193.09375 112.710938 190.835938 118.523438 C 190.832031 118.53125 190.828125 118.542969 190.820312 118.550781 C 184.902344 132.105469 172.125 140.0625 156.042969 143.441406 C 149.496094 144.765625 142.882812 145.40625 136.207031 145.363281 C 122.78125 145.363281 110.421875 143.058594 100.574219 138.027344 C 182.347656 147.542969 188.140625 111.171875 188.703125 91.230469 C 189.132812 76.039062 174.074219 57.855469 150.867188 43.671875 C 151.144531 43.746094 151.425781 43.820312 151.703125 43.898438 C 151.734375 43.902344 151.761719 43.910156 151.792969 43.921875 C 152.066406 43.996094 152.34375 44.074219 152.617188 44.15625 C 152.625 44.15625 152.632812 44.160156 152.640625 44.164062 C 152.871094 44.230469 153.097656 44.300781 153.328125 44.371094 C 153.558594 44.441406 153.785156 44.511719 154.011719 44.585938 C 154.164062 44.632812 154.316406 44.679688 154.464844 44.734375 C 154.597656 44.777344 154.730469 44.820312 154.863281 44.867188 C 155.03125 44.921875 155.199219 44.980469 155.371094 45.039062 C 155.550781 45.101562 157.289062 45.808594 157.464844 45.875 C 157.546875 45.902344 156.066406 45.285156 156.144531 45.316406 C 156.335938 45.386719 156.523438 45.457031 156.714844 45.527344 C 156.964844 45.621094 157.214844 45.71875 157.464844 45.816406 C 157.640625 45.882812 157.8125 45.953125 157.984375 46.023438 C 158.019531 46.035156 158.054688 46.046875 158.089844 46.0625 C 158.292969 46.148438 158.496094 46.230469 158.695312 46.316406 C 158.914062 46.40625 159.132812 46.5 159.351562 46.59375 C 159.363281 46.597656 159.371094 46.601562 159.382812 46.605469 C 159.589844 46.695312 159.792969 46.789062 160 46.878906 C 160.195312 46.96875 160.390625 47.054688 160.585938 47.148438 C 161.089844 47.378906 161.585938 47.617188 162.078125 47.863281 C 162.257812 47.949219 162.433594 48.039062 162.609375 48.128906 C 162.800781 48.226562 162.992188 48.324219 163.179688 48.425781 C 163.414062 48.546875 163.648438 48.671875 163.878906 48.796875 C 163.976562 48.847656 164.070312 48.902344 164.164062 48.953125 C 164.34375 49.050781 164.527344 49.152344 164.707031 49.253906 C 164.832031 49.324219 164.953125 49.394531 165.078125 49.464844 C 165.292969 49.589844 165.511719 49.714844 165.726562 49.84375 C 165.734375 49.847656 165.742188 49.851562 165.75 49.855469 C 166.007812 50.007812 166.261719 50.160156 166.515625 50.316406 C 166.589844 50.359375 166.664062 50.40625 166.738281 50.453125 C 166.953125 50.585938 167.167969 50.722656 167.382812 50.859375 C 167.421875 50.882812 167.460938 50.90625 167.503906 50.933594 C 167.75 51.089844 167.992188 51.246094 168.230469 51.40625 C 168.234375 51.40625 168.238281 51.410156 168.238281 51.414062 C 168.488281 51.574219 168.730469 51.738281 168.976562 51.90625 C 169.011719 51.929688 169.050781 51.957031 169.089844 51.984375 C 169.292969 52.121094 169.496094 52.265625 169.695312 52.40625 C 170.046875 52.652344 170.398438 52.90625 170.746094 53.164062 C 170.925781 53.296875 171.101562 53.429688 171.277344 53.558594 C 171.382812 53.640625 171.488281 53.722656 171.59375 53.800781 C 171.835938 53.988281 172.078125 54.175781 172.320312 54.367188 C 172.503906 54.515625 172.6875 54.664062 172.871094 54.808594 C 172.910156 54.84375 172.949219 54.875 172.988281 54.902344 C 173.214844 55.089844 173.441406 55.277344 173.667969 55.464844 C 173.890625 55.65625 174.113281 55.84375 174.328125 56.035156 C 174.4375 56.128906 174.542969 56.222656 174.652344 56.316406 C 174.839844 56.480469 175.023438 56.648438 175.210938 56.816406 C 175.429688 57.011719 175.648438 57.210938 175.863281 57.414062 C 175.878906 57.425781 175.890625 57.441406 175.90625 57.453125 C 176.105469 57.636719 176.304688 57.828125 176.5 58.015625 C 176.957031 58.453125 177.402344 58.894531 177.839844 59.34375 C 177.933594 59.441406 178.03125 59.539062 178.128906 59.640625 C 178.277344 59.796875 178.425781 59.949219 178.570312 60.105469 C 178.683594 60.226562 178.796875 60.34375 178.902344 60.464844 C 178.945312 60.503906 178.984375 60.546875 179.023438 60.589844 C 179.269531 60.859375 179.515625 61.132812 179.761719 61.40625 C 179.761719 61.40625 179.761719 61.410156 179.765625 61.414062 C 179.878906 61.539062 179.992188 61.671875 180.105469 61.800781 C 180.644531 62.417969 181.167969 63.046875 181.675781 63.683594 C 181.792969 63.828125 181.90625 63.972656 182.023438 64.121094 C 182.144531 64.273438 182.265625 64.429688 182.386719 64.585938 C 182.503906 64.742188 182.621094 64.898438 182.742188 65.054688 C 182.992188 65.386719 183.238281 65.722656 183.480469 66.0625 C 183.582031 66.203125 183.683594 66.34375 183.78125 66.484375 C 183.972656 66.75 184.15625 67.019531 184.339844 67.289062 C 184.410156 67.386719 184.476562 67.492188 184.546875 67.59375 C 184.625 67.710938 184.703125 67.828125 184.78125 67.945312 C 184.890625 68.113281 185 68.277344 185.105469 68.441406 C 185.179688 68.554688 185.253906 68.671875 185.324219 68.785156 C 185.402344 68.902344 185.476562 69.015625 185.546875 69.132812 C 185.699219 69.378906 185.851562 69.628906 186.003906 69.875 C 186.035156 69.921875 186.0625 69.96875 186.089844 70.019531 C 186.277344 70.328125 186.464844 70.648438 186.648438 70.964844 C 186.746094 71.132812 186.84375 71.304688 186.941406 71.476562 C 187.035156 71.648438 187.132812 71.820312 187.230469 71.996094 C 187.417969 72.34375 187.605469 72.691406 187.789062 73.039062 C 187.972656 73.390625 188.152344 73.742188 188.332031 74.097656 C 188.417969 74.269531 188.5 74.441406 188.585938 74.617188 C 188.585938 74.621094 188.589844 74.625 188.59375 74.628906 C 188.765625 74.988281 188.933594 75.347656 189.101562 75.707031 C 189.183594 75.886719 189.265625 76.066406 189.347656 76.25 C 189.511719 76.613281 189.667969 76.976562 189.824219 77.34375 C 189.902344 77.527344 189.976562 77.710938 190.054688 77.894531 C 190.128906 78.078125 190.203125 78.261719 190.277344 78.449219 C 190.351562 78.632812 190.425781 78.820312 190.496094 79.003906 C 190.785156 79.75 191.058594 80.503906 191.316406 81.261719 C 191.378906 81.449219 191.445312 81.640625 191.507812 81.828125 C 191.675781 82.34375 191.835938 82.859375 191.992188 83.382812 C 192.03125 83.515625 192.074219 83.652344 192.113281 83.785156 C 192.144531 83.90625 192.179688 84.023438 192.214844 84.144531 C 192.269531 84.335938 192.320312 84.527344 192.371094 84.71875 C 192.480469 85.113281 192.582031 85.5 192.679688 85.894531 C 192.726562 86.09375 192.773438 86.289062 192.820312 86.484375 C 192.855469 86.625 192.890625 86.769531 192.921875 86.910156 C 192.949219 87.027344 192.976562 87.148438 193 87.265625 C 193.035156 87.402344 193.0625 87.535156 193.089844 87.671875 C 193.128906 87.847656 193.167969 88.023438 193.203125 88.195312 C 193.417969 89.246094 193.605469 90.304688 193.765625 91.375 C 193.792969 91.550781 193.816406 91.726562 193.839844 91.898438 C 193.859375 92.019531 193.875 92.140625 193.890625 92.261719 C 193.910156 92.398438 193.925781 92.539062 193.945312 92.679688 C 193.96875 92.878906 193.996094 93.078125 194.015625 93.273438 C 194.054688 93.613281 194.089844 93.957031 194.125 94.296875 C 194.175781 94.816406 194.21875 95.335938 194.253906 95.859375 C 194.277344 96.195312 194.300781 96.535156 194.316406 96.871094 C 194.351562 97.527344 194.378906 98.179688 194.390625 98.835938 C 194.390625 99.011719 194.398438 99.191406 194.398438 99.371094 C 194.398438 99.578125 194.402344 99.792969 194.402344 100.003906 Z M 194.402344 100.003906 " fill-opacity="1" fill-rule="nonzero"/><path fill="#ffffff" d="M 103.179688 62.976562 C 99.761719 68.113281 97.648438 72.71875 96.664062 72.0625 C 95.683594 71.410156 96.203125 65.746094 99.621094 60.609375 C 103.039062 55.472656 108.0625 52.804688 109.046875 53.460938 C 110.027344 54.113281 106.597656 57.839844 103.179688 62.976562 Z M 103.179688 62.976562 " fill-opacity="1" fill-rule="nonzero"/><path fill="#ffffff" d="M 98.453125 126.1875 C 101.972656 130.199219 105.347656 132.988281 104.5625 133.679688 C 103.777344 134.367188 99.121094 132.695312 95.605469 128.683594 C 92.089844 124.667969 91.042969 119.835938 91.832031 119.148438 C 92.617188 118.457031 94.9375 122.171875 98.453125 126.1875 Z M 98.453125 126.1875 " fill-opacity="1" fill-rule="nonzero"/><path fill="#201f48" d="M 137.246094 129.742188 C 129.753906 129.742188 125.5 128.671875 119.042969 125.160156 C 118.855469 125.058594 118.695312 124.925781 118.5625 124.761719 C 118.429688 124.59375 118.332031 124.410156 118.273438 124.207031 C 118.210938 124.003906 118.191406 123.796875 118.214844 123.582031 C 118.238281 123.371094 118.300781 123.171875 118.402344 122.984375 C 118.503906 122.796875 118.636719 122.636719 118.800781 122.503906 C 118.96875 122.371094 119.152344 122.273438 119.355469 122.214844 C 119.558594 122.152344 119.765625 122.132812 119.980469 122.15625 C 120.191406 122.179688 120.390625 122.242188 120.578125 122.34375 C 126.554688 125.59375 130.292969 126.535156 137.246094 126.535156 C 144.914062 126.535156 149.121094 125.292969 153.925781 121.621094 C 154.09375 121.492188 154.28125 121.402344 154.484375 121.347656 C 154.691406 121.292969 154.898438 121.277344 155.109375 121.304688 C 155.320312 121.332031 155.519531 121.402344 155.703125 121.507812 C 155.886719 121.613281 156.042969 121.75 156.171875 121.921875 C 156.300781 122.089844 156.394531 122.277344 156.449219 122.480469 C 156.503906 122.6875 156.515625 122.894531 156.488281 123.105469 C 156.460938 123.316406 156.394531 123.511719 156.289062 123.699219 C 156.183594 123.882812 156.046875 124.039062 155.878906 124.167969 L 155.875 124.171875 C 149.78125 128.832031 144.429688 129.742188 137.246094 129.742188 Z M 137.246094 129.742188 " fill-opacity="1" fill-rule="nonzero"/><path fill="#ffffff" d="M 81.726562 79.476562 C 81.726562 79.273438 81.707031 79.074219 81.660156 78.875 C 81.613281 78.675781 81.546875 78.488281 81.457031 78.304688 C 81.367188 78.121094 81.257812 77.949219 81.128906 77.792969 C 81 77.636719 80.855469 77.496094 80.695312 77.371094 C 80.53125 77.246094 80.359375 77.144531 80.171875 77.058594 C 79.988281 76.976562 79.792969 76.914062 79.59375 76.875 C 79.394531 76.835938 79.195312 76.820312 78.992188 76.828125 C 78.785156 76.835938 78.585938 76.867188 78.390625 76.921875 C 72.214844 78.703125 69.101562 85.535156 69.101562 93.691406 C 69.101562 101.847656 72.214844 108.679688 78.390625 110.460938 C 78.585938 110.515625 78.785156 110.546875 78.992188 110.554688 C 79.195312 110.5625 79.394531 110.546875 79.59375 110.507812 C 79.792969 110.46875 79.988281 110.40625 80.171875 110.324219 C 80.359375 110.238281 80.53125 110.136719 80.695312 110.011719 C 80.855469 109.886719 81 109.746094 81.128906 109.589844 C 81.257812 109.433594 81.367188 109.261719 81.457031 109.078125 C 81.546875 108.898438 81.613281 108.707031 81.660156 108.507812 C 81.707031 108.308594 81.726562 108.109375 81.726562 107.90625 Z M 81.726562 79.476562 " fill-opacity="1" fill-rule="nonzero"/><path fill="#eeeeee" d="M 192.949219 80.207031 L 197.011719 80.160156 L 196.734375 54.800781 L 196.695312 51.101562 L 196.640625 46.191406 L 192.582031 46.234375 L 192.628906 50.761719 L 192.640625 51.84375 L 192.675781 54.78125 L 192.679688 55.296875 Z M 192.949219 80.207031 " fill-opacity="1" fill-rule="nonzero"/><path fill="#cfd3d8" d="M 192.675781 54.78125 C 194.046875 55.160156 195.398438 55.105469 196.734375 54.613281 L 196.695312 51.101562 C 195.304688 51.414062 193.949219 51.300781 192.628906 50.761719 L 192.640625 51.84375 Z M 192.675781 54.78125 " fill-opacity="1" fill-rule="nonzero"/><path fill="#ffffff" d="M 195.027344 41.074219 C 195.40625 41.105469 195.78125 41.175781 196.144531 41.285156 C 196.511719 41.394531 196.863281 41.535156 197.199219 41.714844 C 197.539062 41.890625 197.855469 42.101562 198.152344 42.339844 C 198.449219 42.582031 198.71875 42.851562 198.964844 43.144531 C 199.207031 43.441406 199.421875 43.753906 199.601562 44.09375 C 199.785156 44.429688 199.933594 44.78125 200.046875 45.148438 C 200.160156 45.515625 200.238281 45.890625 200.277344 46.273438 C 200.320312 46.652344 200.324219 47.035156 200.289062 47.417969 C 200.253906 47.800781 200.183594 48.179688 200.074219 48.546875 C 199.96875 48.917969 199.828125 49.269531 199.648438 49.613281 C 199.472656 49.953125 199.265625 50.273438 199.027344 50.574219 C 198.785156 50.871094 198.519531 51.144531 198.226562 51.390625 C 197.9375 51.640625 197.621094 51.855469 197.289062 52.039062 C 196.953125 52.222656 196.605469 52.375 196.238281 52.488281 C 195.875 52.605469 195.503906 52.683594 195.125 52.726562 C 194.746094 52.765625 194.367188 52.769531 193.988281 52.734375 C 193.609375 52.703125 193.238281 52.632812 192.871094 52.523438 C 192.503906 52.414062 192.152344 52.273438 191.816406 52.09375 C 191.476562 51.917969 191.160156 51.707031 190.863281 51.46875 C 190.566406 51.226562 190.296875 50.957031 190.054688 50.664062 C 189.808594 50.371094 189.597656 50.054688 189.414062 49.714844 C 189.230469 49.378906 189.082031 49.027344 188.96875 48.660156 C 188.855469 48.292969 188.777344 47.917969 188.738281 47.535156 C 188.695312 47.15625 188.695312 46.773438 188.726562 46.390625 C 188.761719 46.007812 188.832031 45.628906 188.941406 45.261719 C 189.046875 44.890625 189.191406 44.539062 189.367188 44.195312 C 189.542969 43.855469 189.75 43.535156 189.992188 43.234375 C 190.230469 42.9375 190.496094 42.664062 190.789062 42.417969 C 191.082031 42.167969 191.394531 41.953125 191.730469 41.769531 C 192.0625 41.585938 192.414062 41.433594 192.777344 41.320312 C 193.140625 41.203125 193.511719 41.125 193.890625 41.085938 C 194.269531 41.042969 194.648438 41.039062 195.027344 41.074219 Z M 195.027344 41.074219 " fill-opacity="1" fill-rule="nonzero"/><path fill="#cfd3d8" d="M 199.007812 43.125 C 198.644531 42.675781 198.21875 42.292969 197.742188 41.972656 C 197.261719 41.652344 196.746094 41.410156 196.191406 41.242188 C 195.640625 41.074219 195.078125 40.992188 194.5 40.992188 C 193.921875 40.992188 193.359375 41.074219 192.804688 41.242188 C 193.300781 41.40625 193.765625 41.636719 194.199219 41.925781 C 194.636719 42.214844 195.023438 42.554688 195.367188 42.949219 C 195.710938 43.34375 196 43.773438 196.226562 44.242188 C 196.457031 44.710938 196.621094 45.203125 196.71875 45.714844 C 196.820312 46.226562 196.851562 46.746094 196.8125 47.265625 C 196.773438 47.785156 196.667969 48.292969 196.496094 48.785156 C 196.320312 49.28125 196.085938 49.742188 195.792969 50.171875 C 195.496094 50.601562 195.152344 50.988281 194.753906 51.324219 C 194.160156 51.824219 193.492188 52.183594 192.75 52.410156 C 193.703125 52.734375 194.667969 52.800781 195.65625 52.617188 C 196.640625 52.433594 197.519531 52.019531 198.289062 51.375 C 198.582031 51.128906 198.847656 50.851562 199.089844 50.554688 C 199.328125 50.253906 199.535156 49.933594 199.714844 49.589844 C 199.890625 49.25 200.03125 48.894531 200.140625 48.523438 C 200.246094 48.15625 200.316406 47.78125 200.351562 47.398438 C 200.382812 47.015625 200.378906 46.632812 200.339844 46.25 C 200.296875 45.867188 200.21875 45.496094 200.101562 45.128906 C 199.988281 44.761719 199.839844 44.410156 199.65625 44.070312 C 199.46875 43.734375 199.253906 43.417969 199.007812 43.125 Z M 199.007812 43.125 " fill-opacity="1" fill-rule="nonzero"/><path fill="#ffffff" d="M 190.777344 79.476562 C 190.777344 79.273438 190.800781 79.074219 190.84375 78.875 C 190.890625 78.675781 190.957031 78.488281 191.046875 78.304688 C 191.136719 78.121094 191.246094 77.949219 191.375 77.792969 C 191.503906 77.636719 191.648438 77.496094 191.8125 77.371094 C 191.972656 77.246094 192.144531 77.144531 192.332031 77.058594 C 192.515625 76.976562 192.710938 76.914062 192.910156 76.875 C 193.109375 76.835938 193.3125 76.820312 193.515625 76.828125 C 193.71875 76.835938 193.917969 76.867188 194.113281 76.921875 C 200.289062 78.703125 203.402344 85.535156 203.402344 93.691406 C 203.402344 101.847656 200.289062 108.679688 194.113281 110.460938 C 193.917969 110.515625 193.71875 110.546875 193.515625 110.554688 C 193.3125 110.5625 193.109375 110.546875 192.910156 110.507812 C 192.710938 110.46875 192.515625 110.40625 192.332031 110.324219 C 192.144531 110.238281 191.972656 110.136719 191.8125 110.011719 C 191.648438 109.886719 191.503906 109.746094 191.375 109.589844 C 191.246094 109.433594 191.136719 109.261719 191.046875 109.078125 C 190.957031 108.898438 190.890625 108.707031 190.84375 108.507812 C 190.800781 108.308594 190.777344 108.109375 190.777344 107.90625 Z M 190.777344 79.476562 " fill-opacity="1" fill-rule="nonzero"/><path fill="#cfd3d8" d="M 174.460938 152.5 C 174.382812 152.324219 174.300781 152.152344 174.222656 151.980469 C 174.929688 151.871094 175.617188 151.765625 176.289062 151.660156 C 183.628906 150.460938 188.859375 148.933594 191.023438 147.234375 C 191.683594 146.710938 192.058594 146.175781 192.121094 145.625 C 192.121094 145.574219 192.125 145.523438 192.125 145.46875 C 192.125 145.261719 192.082031 145.0625 192 144.875 C 192.109375 144.863281 192.214844 144.855469 192.320312 144.847656 C 192.808594 144.8125 193.296875 144.804688 193.785156 144.832031 C 193.285156 145.035156 192.882812 145.363281 192.582031 145.8125 C 192.277344 146.261719 192.125 146.757812 192.125 147.300781 L 192.125 175.730469 C 192.125 176.050781 192.183594 176.363281 192.296875 176.664062 C 192.410156 176.964844 192.570312 177.234375 192.78125 177.476562 C 192.992188 177.71875 193.238281 177.917969 193.519531 178.070312 C 193.804688 178.222656 194.101562 178.320312 194.421875 178.367188 C 193.605469 178.988281 192.777344 179.597656 191.941406 180.191406 C 188.683594 182.503906 185.292969 184.609375 181.769531 186.496094 C 181.5625 175.023438 179.394531 163.484375 174.460938 152.5 Z M 174.460938 152.5 " fill-opacity="1" fill-rule="nonzero"/><path fill="#cfd3d8" d="M 170.480469 93.585938 C 170.472656 94.570312 170.308594 95.53125 169.992188 96.460938 C 169.671875 97.394531 169.21875 98.253906 168.621094 99.039062 C 168.027344 99.828125 167.324219 100.5 166.511719 101.058594 C 165.699219 101.617188 164.820312 102.035156 163.875 102.3125 C 162.929688 102.585938 161.964844 102.707031 160.980469 102.671875 C 159.996094 102.636719 159.039062 102.449219 158.117188 102.105469 C 157.191406 101.761719 156.34375 101.285156 155.574219 100.667969 C 154.804688 100.050781 154.152344 99.332031 153.613281 98.503906 C 165.382812 103.640625 168.957031 93.199219 169.945312 90.507812 C 170.304688 91.503906 170.480469 92.527344 170.480469 93.585938 Z M 170.480469 93.585938 " fill-opacity="1" fill-rule="nonzero"/><path fill="#ffffff" d="M 111.960938 84.714844 C 112.550781 84.8125 113.125 84.964844 113.683594 85.171875 C 114.242188 85.382812 114.777344 85.644531 115.285156 85.957031 C 115.792969 86.269531 116.265625 86.632812 116.699219 87.039062 C 117.136719 87.445312 117.53125 87.890625 117.878906 88.375 C 118.230469 88.859375 118.527344 89.375 118.773438 89.917969 C 119.023438 90.460938 119.214844 91.023438 119.351562 91.601562 C 119.488281 92.183594 119.570312 92.773438 119.589844 93.371094 C 119.613281 93.964844 119.574219 94.558594 119.480469 95.148438 C 119.382812 95.738281 119.230469 96.3125 119.023438 96.871094 C 118.8125 97.429688 118.550781 97.964844 118.238281 98.472656 C 117.925781 98.980469 117.5625 99.453125 117.15625 99.890625 C 116.75 100.328125 116.304688 100.71875 115.820312 101.070312 C 115.335938 101.417969 114.820312 101.714844 114.277344 101.964844 C 113.734375 102.210938 113.171875 102.40625 112.59375 102.542969 C 112.011719 102.679688 111.421875 102.757812 110.824219 102.777344 C 110.230469 102.800781 109.636719 102.761719 109.046875 102.667969 C 108.457031 102.570312 107.882812 102.417969 107.324219 102.210938 C 106.765625 102.003906 106.230469 101.742188 105.722656 101.425781 C 105.214844 101.113281 104.742188 100.753906 104.304688 100.34375 C 103.867188 99.9375 103.476562 99.492188 103.125 99.007812 C 102.777344 98.523438 102.480469 98.011719 102.230469 97.46875 C 101.984375 96.925781 101.789062 96.363281 101.652344 95.78125 C 101.515625 95.199219 101.4375 94.609375 101.414062 94.015625 C 101.394531 93.417969 101.433594 92.824219 101.527344 92.234375 C 101.621094 91.644531 101.773438 91.070312 101.984375 90.511719 C 102.191406 89.953125 102.453125 89.417969 102.769531 88.910156 C 103.082031 88.402344 103.441406 87.929688 103.847656 87.496094 C 104.257812 87.058594 104.703125 86.664062 105.1875 86.316406 C 105.671875 85.964844 106.183594 85.667969 106.726562 85.417969 C 107.269531 85.171875 107.832031 84.980469 108.414062 84.84375 C 108.996094 84.703125 109.582031 84.625 110.179688 84.605469 C 110.777344 84.582031 111.371094 84.621094 111.960938 84.714844 Z M 111.960938 84.714844 " fill-opacity="1" fill-rule="nonzero"/><path fill="#cfd3d8" d="M 119.683594 93.691406 C 119.675781 94.675781 119.511719 95.636719 119.191406 96.570312 C 118.875 97.503906 118.417969 98.363281 117.824219 99.148438 C 117.230469 99.933594 116.527344 100.605469 115.714844 101.164062 C 114.902344 101.722656 114.023438 102.140625 113.078125 102.417969 C 112.132812 102.695312 111.167969 102.8125 110.183594 102.777344 C 109.195312 102.746094 108.242188 102.554688 107.316406 102.210938 C 106.394531 101.871094 105.546875 101.390625 104.777344 100.773438 C 104.007812 100.160156 103.355469 99.4375 102.816406 98.613281 C 114.585938 103.746094 118.15625 93.304688 119.148438 90.613281 C 119.507812 91.609375 119.683594 92.636719 119.683594 93.691406 Z M 119.683594 93.691406 " fill-opacity="1" fill-rule="nonzero"/></svg>