<svg xmlns="http://www.w3.org/2000/svg" viewBox="0 0 1941.6 386.8"><title>codeigniter</title><path d="M582.5,263.54c-29.12,0-37.58-17-37.58-42.36,0-8.47,1.06-18,2.37-28.08,6.38-43.93,22-69.06,59.53-69.06,25.42,0,37.81,11.37,37.81,32v10.07h25.22c0.28,0,.28-9.27.28-11.38,0-30.17-18.27-58.79-63.27-58.79-61.15,0-86.3,33.22-95.56,98.34a167.08,167.08,0,0,0-2.12,25.6c0,38.38,15.1,73.3,69.1,73.3,41,0,65.39-20,79.68-44.62l-24.09-16.23C618.25,257,601.3,263.54,582.5,263.54h0ZM748,142.3c-49,0-70.14,25.13-77.29,75.16a130.51,130.51,0,0,0-1.34,17.48c0,32.29,15.09,58,56.91,58,49,0,70.43-26.21,77.57-75.46a144,144,0,0,0,1.33-18c0-32.82-15.6-57.17-57.17-57.17h0Zm20.38,75.17c-5.3,36.27-16.67,47.39-38.13,47.39-17.19,0-25.66-7.15-25.66-28.59a132.45,132.45,0,0,1,1.59-18.8c5.3-36,15.89-47.11,37.59-47.11,17.47,0,26.2,7.15,26.2,28.85a122.61,122.61,0,0,1-1.59,18.26h0ZM928.26,98.59l-8.2,48.6c-0.53,4.22-.26,2.82,1.34,6.79-7.68-5.82-21.45-9.67-30.72-9.67-43.95,0-68.55,19.89-76.49,75.48a108.63,108.63,0,0,0-1.33,17.74c0,40.52,23.82,55.62,55.84,55.62,13.52,0,26.75.28,37.06-8.44l2.64,16.47h25.42L963.47,98.59H928.26ZM903.11,257.18a60.76,60.76,0,0,1-30.69,8.74c-19.33,0-24.62-10.07-24.62-26.2a159.08,159.08,0,0,1,1.86-20.92c6.08-42.08,19.58-49.51,37.06-49.51,11.37,0,20.1,1.86,28.32,6.37l-11.94,81.52h0ZM1040.78,142.3c-48.46,0-71.2,23-78.89,75.16a146.55,146.55,0,0,0-1.34,18.27c0,35.74,18.27,57.18,58.49,57.18,31.24,0,54.56-13,67-36.81l-26.74-10.86c-7.67,11.64-18,19.58-36.26,19.58-19.58,0-27.53-5.27-27.53-22.75,0-3.45.27-8.45,0.8-8.45h95.55c1.34-13.51,2.91-23.05,2.91-31,0-26.45-10-60.37-54-60.37h0ZM1059,206.64H1000.8c5.84-13.51,15.61-34.41,35.74-34.41,15.61,0,23.3,9.13,23.3,24.74,0,2.65-.26,9.67-0.8,9.67h0Zm137.6-67.53,3.17-27h-74.66l-3.16,27h19.58L1120.4,274.16h-19.61l-3.16,27h74.64l3.19-27h-19.6L1177,139.11h19.6Zm151.69,40.52,9.54-27h-25.68l-18.52,3.82c-10.33-6.6-24.36-11.56-37.58-11.56-37.87,0-70.15,18.29-70.15,59.85a44.21,44.21,0,0,0,9.25,27.43c-7.92,4.22-14.81,11.3-14.81,20.85a20,20,0,0,0,4.77,12.52c-15.9,9.55-25.66,25.36-25.66,43.88,0,35.75,37.32,43.38,65.9,43.38,36,0,78.89-8.23,78.89-54,0-15.61-9.79-27.81-38.12-33.1l-51.09-9.55c-5.82-1.07-7.15-2.92-7.15-5.57,0-4,2.41-6.08,6.36-6.08l3.45,0.53a104.59,104.59,0,0,0,23,2.39c36.81,0,69.62-15.89,69.62-57.18,0-5.83-1.05-9.78-3.7-16.14,4.49,2.13,10.33,5.57,12.69,5.57h9v0h0ZM1275.54,289.2c10,1.86,13.48,5.56,13.48,12.18,0,21.45-23,24.09-39.7,24.09-25.41,0-34.94-6.08-34.94-19.6,0-11.92,3.43-17.46,11.39-25.95Zm-10.87-69.34c-15.35,0-23.83-5.55-23.83-18.8,0-19.58,11.39-31,31.24-31,15.89,0,23.57,6.62,23.57,19.57C1295.65,209.26,1284.52,219.86,1264.67,219.86Zm177.69-77.56c-14.83,0-28,7.27-44.47,20.23l-2.38-9.92h-29.13L1346,301.17h35.21l15.36-112.66c10.33-6.35,23-15.57,33.88-15.57,13.23,0,18,6.38,18,18.55a140.33,140.33,0,0,1-.81,14.72l-13,95h35.21l13-95.73c0.54-4.48,1.06-11.86,1.06-16.08,0-25.18-11.91-47.07-41.56-47.07h0ZM1550.8,264l0.27-3.64,15.34-107.71h-58.51l-3.69,27h25.66c-2.12,0-3.44,2.37-3.7,4.5l-10.59,71.73a124.22,124.22,0,0,0-.78,13.53c0,18.53,10,31.79,30.69,31.79h18l4-27h-11.38c-4,0-5.29-7-5.29-10.21h0Zm22.76-165.37h-34.41c-2.12,0-2.12-7.79-2.38-5.15L1532,131.5c-0.27,2.39-.27,7.61,1.85,7.61h34.43c2.12,0,2.12-9.25,2.38-11.66l4.78-29.38c0.27-2.65.27,0.51-1.86,0.51h0Zm71.79,166.27c-8.72,0-13-3.71-13-11.64l0.27-.54,11.12-73.05H1684l12.17-27h-48.7l8.2-59.44-37,11.85L1612,152.61h-21.44l-3.7,27h24.88c-2.38,13.51-4.77,4.74-5,7.4l-9.53,64.06a39.07,39.07,0,0,0-.53,7.67c0,25.15,18.53,34.56,40.78,34.56,20.64,0,37.32-6,50.3-16.9l-16.42-20.2c-8.23,5-13.78,8.64-26,8.64h0ZM1774.53,142.3c-48.44,0-71.2,23-78.88,75.16a148.63,148.63,0,0,0-1.33,18.27c0,35.74,18.26,57.18,58.49,57.18,31.24,0,54.56-13,67-36.81l-26.73-10.86c-7.67,11.64-18,19.58-36.27,19.58-19.57,0-27.53-5.27-27.53-22.75,0-3.45.29-8.45,0.82-8.45h95.55c1.32-13.51,2.91-23.05,2.91-31,0-26.45-10.05-60.37-54-60.37h0Zm18.27,64.34h-58.24c5.82-13.51,15.6-34.41,35.74-34.41,15.61,0,23.3,9.13,23.3,24.74,0,2.65-.27,9.67-0.8,9.67h0ZM1926,142.29c-12.71,0-24.62,7.29-36.54,18.64l-2.12-8.32H1858.2l-20.39,148.56h35.47l15.61-115c9.27-5.55,19.86-10.28,29.92-10.28,6.36,0,12.44-1,18.26-.22l4.53-30.69c-5.32-1.06-10.61-2.64-15.64-2.64h0ZM103.62,386.77c-23.19-10-44.89-35.5-44.95-61.57C58.61,296.77,76.62,272.64,99,256.78c-2.69,10.18-4.16,19.48,2.51,28.59a27,27,0,0,0,27.33,10.34c24-5.25,25.07-31.6,10.86-46.95-14-15.2-27.64-32.38-22.29-54.42,2.68-11.05,9.46-21.4,18.06-28.8-6.61,17.37,12.17,34.49,24.54,43,21.46,14.8,45,26,64.74,43.33,20.76,18.23,36.08,42.89,33,71.48-3.35,31-28,52.55-55.6,63.43,58.37-12.88,118.69-58.19,119.92-122.93,1-53.26-35.51-94.25-80.77-117.71l-2.36-1.29a19.27,19.27,0,0,1,1.6,7.87,27.53,27.53,0,0,0,.76-5.23,25.47,25.47,0,0,1-.83,6.32l0.07-1.09a26.53,26.53,0,0,1-3.35,8l0.66-.71c-9,15-33.47,18.23-45.55,2.72-19.41-24.94.41-51.84,3.18-78.25C199,51.37,178.2,19.23,152.45,0,166.63,22.93,148,53.28,133,70.24c-14.49,16.44-32.11,30.17-48.11,45.11-17.18,16-33.7,33-47.83,51.78C8.82,204.83-8.47,252.25,4.24,299.28s53.41,76.91,99.38,87.49h0Z" transform="translate(0)" fill="#ee4323"/></svg>