<?xml version="1.0" encoding="utf-8"?>
<!-- Generator: Adobe Illustrator 19.2.1, SVG Export Plug-In . SVG Version: 6.00 Build 0)  -->
<svg version="1.1" id="Layer_1" xmlns="http://www.w3.org/2000/svg" xmlns:xlink="http://www.w3.org/1999/xlink" x="0px" y="0px"
	 viewBox="0 0 187.4 56" style="enable-background:new 0 0 187.4 56;" xml:space="preserve">
<style type="text/css">
	.st0{fill:#FF2D20;}
</style>
<title>Logotype</title>
<path class="st0" d="M78.8,13.9v23h8.3v4H74.3v-27C74.3,13.9,78.8,13.9,78.8,13.9z M102.8,25.4V23h4.2v18h-4.2v-2.4
	c-0.6,0.9-1.4,1.6-2.4,2.1c-1,0.5-2.1,0.8-3.1,0.8c-1.4,0-2.6-0.3-3.7-0.8c-1.1-0.5-2.1-1.2-2.9-2.1c-0.8-0.9-1.5-1.9-1.9-3
	c-0.5-1.2-0.7-2.4-0.7-3.6c0-1.3,0.2-2.5,0.7-3.6c0.4-1.1,1.1-2.1,1.9-3c0.8-0.9,1.8-1.6,2.9-2.1c1.1-0.5,2.4-0.8,3.7-0.8
	c1.1,0,2.1,0.3,3.1,0.8C101.4,23.8,102.2,24.5,102.8,25.4L102.8,25.4z M102.4,34.1c0.3-0.7,0.4-1.4,0.4-2.2c0-0.8-0.1-1.5-0.4-2.2
	c-0.2-0.7-0.6-1.3-1.1-1.8c-0.5-0.5-1-0.9-1.7-1.2c-0.7-0.3-1.4-0.5-2.2-0.5c-0.8,0-1.5,0.2-2.2,0.5c-0.6,0.3-1.2,0.7-1.7,1.2
	c-0.5,0.5-0.8,1.1-1.1,1.8c-0.2,0.7-0.4,1.5-0.4,2.2c0,0.8,0.1,1.5,0.4,2.2c0.2,0.7,0.6,1.3,1.1,1.8c0.5,0.5,1,0.9,1.7,1.2
	c0.6,0.3,1.4,0.5,2.2,0.5s1.5-0.2,2.2-0.5c0.6-0.3,1.2-0.7,1.7-1.2C101.8,35.4,102.2,34.8,102.4,34.1z M110.3,40.9V23h11.4v4.1h-7.2
	v13.9L110.3,40.9L110.3,40.9z M137,25.4V23h4.2v18H137v-2.4c-0.6,0.9-1.4,1.6-2.4,2.1c-1,0.5-2.1,0.8-3.1,0.8
	c-1.4,0-2.6-0.3-3.7-0.8c-1.1-0.5-2.1-1.2-2.9-2.1c-0.8-0.9-1.5-1.9-1.9-3c-0.5-1.2-0.7-2.4-0.7-3.6c0-1.3,0.2-2.5,0.7-3.6
	c0.4-1.1,1.1-2.1,1.9-3c0.8-0.9,1.8-1.6,2.9-2.1c1.1-0.5,2.4-0.8,3.7-0.8c1.1,0,2.1,0.3,3.1,0.8C135.6,23.8,136.4,24.5,137,25.4z
	 M136.6,34.1c0.3-0.7,0.4-1.4,0.4-2.2c0-0.8-0.1-1.5-0.4-2.2c-0.2-0.7-0.6-1.3-1.1-1.8c-0.5-0.5-1-0.9-1.7-1.2
	c-0.7-0.3-1.4-0.5-2.2-0.5c-0.8,0-1.5,0.2-2.2,0.5c-0.6,0.3-1.2,0.7-1.7,1.2c-0.5,0.5-0.8,1.1-1.1,1.8c-0.2,0.7-0.4,1.5-0.4,2.2
	c0,0.8,0.1,1.5,0.4,2.2c0.2,0.7,0.6,1.3,1.1,1.8c0.5,0.5,1,0.9,1.7,1.2c0.6,0.3,1.4,0.5,2.2,0.5c0.8,0,1.5-0.2,2.2-0.5
	c0.6-0.3,1.2-0.7,1.7-1.2C136,35.4,136.4,34.8,136.6,34.1z M158.1,23h4.3l-6.9,18h-5.3l-6.9-18h4.3l5.3,13.8L158.1,23z M171.5,22.5
	c5.7,0,9.6,5.1,8.9,11h-14c0,1.6,1.6,4.6,5.3,4.6c3.2,0,5.3-2.8,5.3-2.8l2.8,2.2c-2.5,2.7-4.6,4-7.9,4c-5.8,0-9.8-3.7-9.8-9.5
	C162.3,26.7,166.4,22.5,171.5,22.5L171.5,22.5z M166.5,30.4h10.1c0-0.3-0.6-4.6-5.1-4.6C167,25.8,166.5,30,166.5,30.4z M183.1,40.9
	v-27h4.2v27H183.1z"/>
<path class="st0" d="M50.8,16.4c0,0.1,0,0.1,0,0.2v11c0,0.3-0.2,0.6-0.4,0.7l-9.2,5.3v10.5c0,0.3-0.2,0.5-0.4,0.7L21.6,55.8
	c0,0-0.1,0-0.1,0.1c0,0,0,0-0.1,0c-0.1,0-0.3,0-0.4,0c0,0,0,0-0.1,0c0,0-0.1,0-0.1-0.1L1.6,44.8c-0.2-0.1-0.4-0.4-0.4-0.7V11.2
	c0-0.1,0-0.1,0-0.2c0,0,0,0,0-0.1c0,0,0-0.1,0.1-0.1c0,0,0,0,0.1-0.1c0,0,0-0.1,0.1-0.1c0,0,0.1,0,0.1-0.1c0,0,0.1-0.1,0.1-0.1h0
	l9.6-5.5c0.2-0.1,0.6-0.1,0.8,0l9.6,5.5h0c0,0,0.1,0,0.1,0.1c0,0,0.1,0,0.1,0.1c0,0,0,0.1,0.1,0.1c0,0,0,0,0.1,0.1
	c0,0,0,0.1,0.1,0.1c0,0,0,0,0,0.1c0,0.1,0,0.1,0,0.2v20.6l8-4.6V16.6c0-0.1,0-0.1,0-0.2c0,0,0,0,0-0.1c0,0,0-0.1,0.1-0.1
	c0,0,0,0,0.1-0.1c0,0,0-0.1,0.1-0.1c0,0,0.1,0,0.1-0.1c0,0,0.1-0.1,0.1-0.1h0l9.6-5.5c0.2-0.1,0.6-0.1,0.8,0l9.6,5.5
	c0,0,0.1,0,0.1,0.1c0,0,0.1,0,0.1,0.1c0,0,0,0.1,0.1,0.1c0,0,0,0,0.1,0.1C50.7,16.2,50.8,16.3,50.8,16.4
	C50.8,16.3,50.8,16.4,50.8,16.4z M49.2,27.1V18l-3.4,1.9l-4.6,2.7v9.1L49.2,27.1L49.2,27.1z M39.6,43.6v-9.1l-4.6,2.6l-13,7.4v9.2
	C22,53.8,39.6,43.6,39.6,43.6z M2.8,12.5v31.1l17.6,10.1v-9.2l-9.2-5.2l0,0l0,0c0,0-0.1,0-0.1-0.1c0,0-0.1,0-0.1-0.1l0,0
	c0,0,0-0.1-0.1-0.1c0,0,0,0-0.1-0.1l0,0c0,0,0-0.1,0-0.1c0,0,0-0.1,0-0.1v0c0,0,0-0.1,0-0.1c0,0,0-0.1,0-0.1v0V17.2l-4.6-2.7
	L2.8,12.5L2.8,12.5z M11.6,6.5l-8,4.6l8,4.6l8-4.6L11.6,6.5L11.6,6.5z M15.8,35.3l4.6-2.7V12.5L17,14.5l-4.6,2.7v20.1
	C12.4,37.2,15.8,35.3,15.8,35.3z M40.4,12l-8,4.6l8,4.6l8-4.6C48.4,16.6,40.4,12,40.4,12z M39.6,22.6L35,19.9L31.6,18v9.1l4.6,2.7
	l3.4,1.9C39.6,31.7,39.6,22.6,39.6,22.6z M21.2,43.2l11.7-6.7l5.9-3.3l-8-4.6l-9.2,5.3l-8.4,4.8C13.2,38.6,21.2,43.2,21.2,43.2z"/>
</svg>
