<?xml version="1.0" encoding="utf-8"?>
<!-- Generator: Adobe Illustrator 19.2.1, SVG Export Plug-In . SVG Version: 6.00 Build 0)  -->
<svg version="1.1" id="Layer_1" xmlns="http://www.w3.org/2000/svg" xmlns:xlink="http://www.w3.org/1999/xlink" x="0px" y="0px"
	 viewBox="0 0 250 31" style="enable-background:new 0 0 250 31;" xml:space="preserve">
<style type="text/css">
	.st0{fill:#7AAC41;}
	.st1{fill:#1C1C1C;}
</style>
<g transform="translate(-1 -1)">
	<path class="st0" d="M21.4,3.9c-0.8-0.4-3.1-0.2-5.9,0.7c-4.8,3.3-8.9,8.2-9.2,16c-0.1,0.2-0.5,0-0.6-0.1C4.4,18,3.9,15.4,5,11.6
		c0.2-0.3-0.5-0.8-0.6-0.6c-0.2,0.2-1.2,1.3-1.9,2.5c-3.3,5.7-1.1,13,4.6,16.2c5.8,3.2,13,1.1,16.2-4.6C27,18.3,23.6,5.1,21.4,3.9"
		/>
	<g>
		<path class="st1" d="M42,7.1c-6.8,0-11.8,5.1-11.8,12.1c0,7,4.9,12,12,12c3.6,0,6.4-1.1,8.6-3.4c0.7-0.7,0.7-1.4,0.7-1.7
			c0-1.1-0.8-2-2-2c-0.6,0-1.1,0.2-1.6,0.7c-1.3,1.2-3,2.4-5.7,2.4c-3.9,0-7-2.9-7.2-6.6h15.4c1.7,0,2.5-0.8,2.5-2.4
			c0-0.5,0-0.8-0.1-1.5C52,10.7,48,7.1,42,7.1z M42,10.8c3.7,0,6.1,2.4,6.2,6.2H35.1C35.4,13.5,38.4,10.8,42,10.8z"/>
		<path class="st1" d="M67.6,7.1c-3.1,0-6.2,1.8-7.4,4.3V9.8c0-2.4-1.8-2.5-2.2-2.5c-1.1,0-2.3,0.7-2.3,2.5v18.5
			c0,2.5,2,2.6,2.3,2.6c0.4,0,2.3-0.1,2.3-2.6v-9.9c0-4.3,2.4-7.3,5.9-7.3c3.4,0,5,2.2,5,6.8v10.4c0,2.5,2,2.6,2.3,2.6
			c0.4,0,2.3-0.1,2.3-2.6V16.4C76.2,11.9,73.9,7.1,67.6,7.1"/>
		<path class="st1" d="M97.4,7.3c-1.1,0-1.9,0.6-2.3,1.9l-6.4,16.1L82.3,9.2c-0.5-1.3-1.3-1.9-2.4-1.9c-1.3,0-2.3,1-2.3,2.3
			c0,0.3,0,0.7,0.3,1.3l7.4,17.4c0.9,2.1,2.3,2.5,3.4,2.5s2.5-0.4,3.4-2.5l7.4-17.5c0.3-0.6,0.3-1.1,0.3-1.3
			C99.7,8.3,98.7,7.3,97.4,7.3"/>
		<path class="st1" d="M111.1,7.1c-3,0-5.8,0.8-7.9,2.4c-0.7,0.5-1,1.1-1,1.9c0,1,0.8,1.9,1.8,1.9c0.4,0,0.9-0.2,1.4-0.5
			c1.8-1.2,3.5-1.7,5.3-1.7c3.5,0,5.5,1.8,5.5,4.8v0.5c-7.8,0-15.7,0.9-15.7,7.7c0,4.9,4.2,7.1,8.3,7.1c3.3,0,5.9-1.3,7.6-3.8v1.2
			c0,1.8,1.2,2.4,2.2,2.4c0.2,0,2.1-0.1,2.1-2.4V16C120.6,10.4,117,7.1,111.1,7.1z M115.1,19.7h1v1.1c0,4-2.5,6.5-6.4,6.5
			c-1.1,0-4.5-0.2-4.5-3.4C105.2,20.2,110.8,19.7,115.1,19.7z"/>
		<path class="st1" d="M132.8,11.6c2.1,0,2.2-1.6,2.2-1.9c0-0.9-0.6-2-2.2-2h-4.2V3.4c0-1.9-1.2-2.6-2.3-2.6c-0.4,0-2.3,0.1-2.3,2.6
			v20.3c0,4.7,2.3,7.2,6.7,7.2c1.1,0,2.2-0.2,3-0.5c0.8-0.4,1.3-1.1,1.3-1.9c0-1.1-0.8-1.9-1.9-1.9c-0.2,0-0.5,0.1-0.8,0.1
			c-0.4,0.1-0.7,0.1-1,0.1c-1.8,0-2.6-1.2-2.6-3.7V11.6L132.8,11.6z"/>
		<path class="st1" d="M148.3,7.1c-7.1,0-12.2,5-12.2,12c0,3.4,1.2,6.4,3.5,8.7c2.2,2.2,5.3,3.4,8.7,3.4c7,0,12.3-5.2,12.3-12.1
			C160.6,12.1,155.4,7.1,148.3,7.1z M148.3,27.1c-4.9,0-7.4-4.1-7.4-8.1c0-5.5,3.8-8,7.4-8c3.6,0,7.4,2.5,7.4,8
			C155.7,24.6,151.9,27.1,148.3,27.1z"/>
	</g>
	<path class="st0" d="M175.2,28.3c-2.2,0.3-3.5,0.2-4.1-0.6c-0.4-0.6-0.6-1.7-0.6-3.1V9.5h4.3c0.4,0,0.7-0.3,0.7-0.7V7.7
		c0-0.4-0.3-0.7-0.7-0.7h-4.3V1.7c0-0.4-0.3-0.7-0.7-0.7h-1.1c-0.4,0-0.7,0.3-0.7,0.7V7h-3.4c-0.4,0-0.7,0.3-0.7,0.7v1.1
		c0,0.4,0.3,0.7,0.7,0.7h3.4v15.2c0,2.1,0.4,3.6,1.2,4.7c0.8,1.1,2.2,1.6,4,1.6c1.2,0,2-0.1,2.6-0.3c0.3-0.1,0.5-0.4,0.4-0.8l-0.2-1
		C175.9,28.5,175.6,28.2,175.2,28.3"/>
	<path class="st0" d="M194.9,7h-1.1c-0.4,0-0.7,0.3-0.7,0.7v15.5c-0.3,1.7-1.1,3-2.2,3.9c-1.2,0.9-2.8,1.4-4.7,1.4
		c-1.8,0-3.1-0.5-4-1.6c-0.9-1.1-1.4-2.7-1.4-4.9V7.7c0-0.4-0.3-0.7-0.7-0.7h-1.1c-0.4,0-0.7,0.3-0.7,0.7V22c0,2.9,0.7,5.1,2,6.6
		c1.3,1.6,3.4,2.4,6,2.4c2,0,3.8-0.4,5.1-1.2c0.7-0.4,1.3-0.9,1.8-1.4v1.5c0,0.4,0.3,0.7,0.7,0.7h1.1c0.4,0,0.7-0.3,0.7-0.7V7.7
		C195.6,7.3,195.3,7,194.9,7"/>
	<path class="st0" d="M209.4,28.3c-2.2,0.3-3.5,0.2-4.1-0.6c-0.4-0.6-0.6-1.7-0.6-3.1V9.5h4.3c0.4,0,0.7-0.3,0.7-0.7V7.7
		c0-0.4-0.3-0.7-0.7-0.7h-4.3V1.7c0-0.4-0.3-0.7-0.7-0.7h-1.1c-0.4,0-0.7,0.3-0.7,0.7V7h-3.4c-0.4,0-0.7,0.3-0.7,0.7v1.1
		c0,0.4,0.3,0.7,0.7,0.7h3.4v15.2c0,2.1,0.4,3.6,1.2,4.7c0.8,1.1,2.2,1.6,4,1.6c1.2,0,2-0.1,2.6-0.3c0.3-0.1,0.5-0.4,0.5-0.8l-0.2-1
		C210.1,28.5,209.7,28.2,209.4,28.3"/>
	<path class="st0" d="M228.6,21.2c-0.5-0.9-1.4-1.7-2.6-2.3c-1.1-0.6-2.6-1.1-4.5-1.6c-1.8-0.4-3.1-0.8-4-1.3
		c-0.9-0.4-1.5-0.9-1.8-1.3c-0.3-0.4-0.5-1.1-0.5-1.9c0-1,0.5-1.9,1.4-2.6c1-0.8,2.4-1.1,4.2-1.1c1.9,0,3.4,0.5,4.5,1.3
		c1.1,0.9,1.6,1.9,1.6,3.2c0,0.4,0.3,0.7,0.7,0.7h1.1c0.4,0,0.7-0.3,0.7-0.7c0-2.2-0.8-3.9-2.4-5.2c-1.6-1.2-3.7-1.9-6.2-1.9
		c-2.3,0-4.3,0.6-5.8,1.7c-1.5,1.2-2.3,2.7-2.3,4.6c0,1.8,0.6,3.3,1.9,4.3c1.2,1,3.2,1.8,6.1,2.4c4.3,0.9,6.3,2.5,6.3,4.8
		c0,1.1-0.5,2-1.6,2.8c-1.1,0.8-2.6,1.2-4.4,1.2c-2,0-3.6-0.4-4.7-1.2c-1.1-0.7-1.7-1.8-1.8-3.1c0-0.4-0.3-0.7-0.7-0.7h-1.1
		c-0.4,0-0.7,0.3-0.7,0.7c0,2,0.9,3.7,2.6,4.9c1.6,1.2,3.8,1.8,6.4,1.8c2.5,0,4.5-0.6,6.1-1.7c1.6-1.2,2.4-2.8,2.4-4.8
		C229.4,23.2,229.1,22.1,228.6,21.2"/>
	<path class="st0" d="M249.4,17.5h-6.2V11c0-0.5-0.4-0.9-0.9-0.9h-0.8c-0.5,0-0.9,0.4-0.9,0.9v6.5h-5.9c-0.5,0-0.8,0.4-0.8,0.9v0.8
		c0,0.5,0.4,0.9,0.8,0.9h5.9v6.5c0,0.5,0.4,0.9,0.9,0.9h0.8c0.5,0,0.9-0.4,0.9-0.9V20h6.2c0.5,0,0.9-0.4,0.9-0.9v-0.8
		C250.3,17.9,249.9,17.5,249.4,17.5"/>
</g>
</svg>
