<svg id="Layer_1" data-name="Layer 1" xmlns="http://www.w3.org/2000/svg" xmlns:xlink="http://www.w3.org/1999/xlink" viewBox="0 0 591.4 150.65"><defs><style>.cls-1{fill:#b3b3b3;}.cls-2,.cls-5{fill:#fff;}.cls-3{fill:none;}.cls-4{fill:url(#linear-gradient);}.cls-5{fill-rule:evenodd;}.cls-6{fill:#56c15f;}</style><linearGradient id="linear-gradient" x1="73.88" y1="131.98" x2="74.5" y2="27.46" gradientTransform="matrix(1, 0, 0, -1, 0, 153.19)" gradientUnits="userSpaceOnUse"><stop offset="0" stop-color="#57d163"/><stop offset="1" stop-color="#23b33a"/></linearGradient></defs><path class="cls-1" d="M41.57,127.1l2.23,1.33A61.13,61.13,0,0,0,74.93,137h0a61.15,61.15,0,1,0-51.8-28.65l1.45,2.31-6.18,22.56ZM.76,150.65l10.43-38.12A73.59,73.59,0,1,1,75,149.37h0a73.47,73.47,0,0,1-35.16-9Z"/><path class="cls-2" d="M0,149.89l10.44-38.11a73.58,73.58,0,1,1,63.75,36.84h0a73.62,73.62,0,0,1-35.16-9Z"/><path class="cls-3" d="M74.22,13.88a61.16,61.16,0,0,0-51.83,93.66l1.45,2.32-6.18,22.56,23.15-6.07,2.24,1.32a61,61,0,0,0,31.12,8.52h0a61.16,61.16,0,0,0,0-122.31Z"/><path class="cls-4" d="M74.22,13.88a61.16,61.16,0,0,0-51.83,93.66l1.45,2.32-6.18,22.56,23.15-6.07,2.24,1.32a61,61,0,0,0,31.12,8.52h0a61.16,61.16,0,0,0,0-122.31Z"/><path class="cls-5" d="M55.81,44.26c-1.38-3.07-2.83-3.13-4.14-3.18l-3.52,0a6.77,6.77,0,0,0-4.91,2.3,20.62,20.62,0,0,0-6.43,15.33c0,9,6.59,17.78,7.5,19S57,98.06,75.72,105.43c15.53,6.13,18.69,4.91,22.06,4.6s10.88-4.45,12.41-8.74,1.53-8,1.07-8.74-1.68-1.22-3.52-2.14-10.88-5.37-12.57-6-2.91-.91-4.13.93-4.75,6-5.82,7.2-2.15,1.38-4,.46a50.18,50.18,0,0,1-14.78-9.12A55.73,55.73,0,0,1,56.22,71.16c-1.07-1.84-.11-2.84.81-3.75s1.84-2.15,2.76-3.22a12.64,12.64,0,0,0,1.84-3.07,3.39,3.39,0,0,0-.16-3.22c-.46-.92-4-10-5.66-13.64"/><path class="cls-6" d="M245,88.89q-1,10.55-7.79,16.45t-18,5.9a25.69,25.69,0,0,1-13.87-3.73A24.44,24.44,0,0,1,196,96.9a38.29,38.29,0,0,1-3.39-16V74.78A38.6,38.6,0,0,1,196,58.36a24.93,24.93,0,0,1,9.48-11,26.43,26.43,0,0,1,14.27-3.84q10.91,0,17.55,5.9T245,66.19h-11.4q-.83-7.11-4.14-10.25T219.7,52.8q-7.47,0-11.47,5.45t-4.09,16V80.1q0,10.68,3.82,16.3t11.2,5.61q6.74,0,10.13-3t4.3-10.09Z"/><path class="cls-6" d="M265.84,110.34h-11V40.85h11Z"/><path class="cls-6" d="M275.74,85.41a28.89,28.89,0,0,1,2.86-13,20.7,20.7,0,0,1,8-8.86,22.53,22.53,0,0,1,11.85-3.1q9.92,0,16.08,6.37t6.68,16.92l0,2.58a29.18,29.18,0,0,1-2.78,12.94,20.54,20.54,0,0,1-8,8.82,22.73,22.73,0,0,1-12,3.12q-10.35,0-16.58-6.9T275.74,86Zm11,1q0,7.56,3.12,11.83a10.89,10.89,0,0,0,17.35-.07q3.09-4.34,3.09-12.71c0-4.94-1.06-8.87-3.18-11.76a10.19,10.19,0,0,0-8.67-4.34,10.08,10.08,0,0,0-8.55,4.27Q286.74,77.86,286.74,86.36Z"/><path class="cls-6" d="M360.2,105.54q-4.84,5.7-13.75,5.7-8,0-12.06-4.66T330.3,93.1V61.39h11V93q0,9.32,7.74,9.31,8,0,10.81-5.74V61.39h11v49H360.47Z"/><path class="cls-6" d="M380,85.5q0-11.31,5.24-18.16a16.81,16.81,0,0,1,14.07-6.85,16,16,0,0,1,12.58,5.42V40.85h11v69.49h-10l-.54-5.07a16.22,16.22,0,0,1-13.17,6,16.74,16.74,0,0,1-13.91-6.92Q380,97.41,380,85.5Zm11,1q0,7.47,2.87,11.65a9.33,9.33,0,0,0,8.17,4.18,10.38,10.38,0,0,0,9.86-6V75.37a10.22,10.22,0,0,0-9.77-5.88,9.4,9.4,0,0,0-8.24,4.23Q391,78,391,86.45Z"/><path class="cls-6" d="M495.32,95H469.8l-5.33,15.34h-11.9l24.88-65.87h10.27l24.92,65.87H500.7ZM473,85.77H492.1l-9.54-27.32Z"/><path class="cls-6" d="M531.55,85.91v24.43H520.1V44.47h25.2q11,0,17.53,5.75t6.49,15.22q0,9.69-6.36,15.08t-17.8,5.39Zm0-9.23H545.3q6.11,0,9.32-2.87c2.14-1.92,3.21-4.68,3.21-8.3A11.41,11.41,0,0,0,554.57,57q-3.26-3.19-9-3.28H531.55Z"/><path class="cls-6" d="M591.4,110.34H580V44.47h11.4Z"/></svg>