<?xml version="1.0" encoding="utf-8"?>
<!-- Generator: Adobe Illustrator 19.2.1, SVG Export Plug-In . SVG Version: 6.00 Build 0)  -->
<svg version="1.1" id="Capa_1" xmlns="http://www.w3.org/2000/svg" xmlns:xlink="http://www.w3.org/1999/xlink" x="0px" y="0px"
	 viewBox="0 0 112.2 112.2" style="enable-background:new 0 0 112.2 112.2;" xml:space="preserve">
<style type="text/css">
	.st0{clip-path:url(#SVGID_2_);}
	.st1{fill:url(#SVGID_3_);}
	.st2{clip-path:url(#SVGID_5_);}
	.st3{fill:url(#SVGID_6_);}
	.st4{fill:#227B3D;}
	.st5{fill:#8C8C8C;}
</style>
<g>
	<defs>
		<path id="SVGID_1_" d="M0,44.8C0,55,5.5,64.2,14,70.5c0.7,0.5,1.1,1.3,1.1,2.2c0,0.3-0.1,0.6-0.1,0.9c-0.7,2.6-1.8,6.6-1.8,6.8
			c-0.1,0.3-0.2,0.6-0.2,1c0,0.7,0.6,1.3,1.3,1.3c0.3,0,0.5-0.1,0.8-0.2l8.9-5.1c0.7-0.4,1.4-0.6,2.2-0.6c0.4,0,0.8,0.1,1.2,0.2
			c4.3,1.2,8.8,1.9,13.3,1.9c22.4,0,40.6-15.2,40.6-33.9S63.1,11,40.6,11S0,26.2,0,44.8"/>
	</defs>
	<clipPath id="SVGID_2_">
		<use xlink:href="#SVGID_1_"  style="overflow:visible;"/>
	</clipPath>
	<g class="st0">
		
			<linearGradient id="SVGID_3_" gradientUnits="userSpaceOnUse" x1="-178.0535" y1="-662.0229" x2="-176.7985" y2="-662.0229" gradientTransform="matrix(3.073251e-015 -50.19 -50.19 -3.073251e-015 -33186.293 -8842.9902)">
			<stop  offset="0" style="stop-color:#7BC142"/>
			<stop  offset="3.000000e-002" style="stop-color:#7BC142"/>
			<stop  offset="0.96" style="stop-color:#A7D168"/>
			<stop  offset="1" style="stop-color:#A7D168"/>
		</linearGradient>
		<rect y="11" class="st1" width="81.3" height="71.7"/>
	</g>
</g>
<g>
	<defs>
		<path id="SVGID_4_" d="M44.5,70c0,15.6,15.2,28.2,33.8,28.2c3.7,0,7.5-0.5,11.1-1.5c0.3-0.1,0.7-0.1,1-0.1c0.6,0,1.3,0.2,1.8,0.5
			l7.4,4.3c0.2,0.1,0.4,0.2,0.6,0.2c0.6,0,1.1-0.5,1.1-1.1c0-0.3-0.1-0.6-0.2-0.8l-1.5-5.7c-0.1-0.2-0.1-0.5-0.1-0.7
			c0-0.7,0.4-1.4,1-1.8c7.1-5.2,11.7-12.8,11.7-21.3c0-15.6-15.2-28.2-33.8-28.2S44.5,54.4,44.5,70"/>
	</defs>
	<clipPath id="SVGID_5_">
		<use xlink:href="#SVGID_4_"  style="overflow:visible;"/>
	</clipPath>
	<g class="st2">
		
			<linearGradient id="SVGID_6_" gradientUnits="userSpaceOnUse" x1="-178.3463" y1="-662.1678" x2="-177.0914" y2="-662.1678" gradientTransform="matrix(2.904862e-015 -47.44 -47.44 -2.904862e-015 -31334.8809 -8359.0498)">
			<stop  offset="0" style="stop-color:#D3D3D3"/>
			<stop  offset="0" style="stop-color:#E4E7E8"/>
			<stop  offset="1" style="stop-color:#F1F0F0"/>
		</linearGradient>
		<rect x="44.5" y="41.8" class="st3" width="67.7" height="59.7"/>
	</g>
</g>
<path class="st4" d="M32.5,33.9c0,3-2.4,5.4-5.4,5.4s-5.4-2.4-5.4-5.4s2.4-5.4,5.4-5.4S32.5,31,32.5,33.9"/>
<path class="st4" d="M59.7,33.9c0,3-2.4,5.4-5.4,5.4s-5.4-2.4-5.4-5.4s2.4-5.4,5.4-5.4S59.7,31,59.7,33.9"/>
<path class="st5" d="M85.5,61.4c0,2.5,2,4.6,4.5,4.6c2.5,0,4.6-2,4.6-4.5c0-2.5-2-4.6-4.5-4.6c0,0,0,0-0.1,0
	C87.5,56.9,85.5,58.9,85.5,61.4C85.5,61.4,85.5,61.4,85.5,61.4"/>
<path class="st5" d="M62.8,61.4c0,2.5,2,4.6,4.5,4.6c2.5,0,4.6-2,4.6-4.5c0-2.5-2-4.6-4.5-4.6c0,0,0,0,0,0
	C64.9,56.9,62.8,58.9,62.8,61.4L62.8,61.4"/>
</svg>
